<svg xmlns="http://www.w3.org/2000/svg" viewBox="0 0 1200 900"><g data-name="body checkup"><path fill="#eff5f9" d="M310.63,725.89c-24.45-18.81-132.32-106.36-143.46-233.06C151.54,315.07,339,204,390.38,173.58,508.26,103.76,791.61-1.54,971.26,155.76c143.88,126,132.57,357.75,43.61,490.33C868.27,864.57,504.66,875.06,310.63,725.89Z"/><rect width="64.89" height="28.93" x="945.96" y="455.78" fill="none" stroke="#c9effb" stroke-miterlimit="10" stroke-width="2" rx="2"/><rect width="64.89" height="28.93" x="945.96" y="513.53" fill="none" stroke="#c9effb" stroke-miterlimit="10" stroke-width="2" rx="2"/><rect width="64.89" height="28.93" x="978.41" y="484.71" fill="#c9effb" rx="2"/><rect width="64.89" height="28.93" x="913.52" y="484.71" fill="#c9effb" rx="2"/><rect width="64.89" height="28.93" x="234.18" y="598.77" fill="none" stroke="#c9effb" stroke-miterlimit="10" stroke-width="2" rx="2"/><rect width="64.89" height="28.93" x="266.63" y="656.52" fill="none" stroke="#c9effb" stroke-miterlimit="10" stroke-width="2" rx="2"/><rect width="64.89" height="28.93" x="280.11" y="627.7" fill="#c9effb" rx="2"/><rect width="64.89" height="28.93" x="215.22" y="627.7" fill="#c9effb" rx="2"/><rect width="64.89" height="28.93" x="611.58" y="213.33" fill="#c9effb" rx="2"/><rect width="64.89" height="28.93" x="633.5" y="271.19" fill="#c9effb" rx="2"/><rect width="64.89" height="28.93" x="657.51" y="242.26" fill="none" stroke="#c9effb" stroke-miterlimit="10" stroke-width="2" rx="2"/><rect width="64.89" height="28.93" x="592.62" y="242.26" fill="none" stroke="#c9effb" stroke-miterlimit="10" stroke-width="2" rx="2"/><g data-name="Patient/Head/Male"><path fill="#000001" d="M324.17 261.54s-10.66.53-11.26 12.75-9.79 8.81-9.79 8.81 6.15 9.36 18.47-.36 13.93-11 13.93-11 0-9.71-10.55-10.26M319.33 287.17s2.5 30.29 14.48 43.43.22-44.44.22-44.44z"/><path fill="#ea9d7d" d="M357.82,345.32c-.63-2.22,1.95-7.61,3.6-10.72-10.86,1.66-23.78-6-30.51-19.56a4.74,4.74,0,0,1-1.29.47s-1.06,28.21-7.17,28.56C315.3,350.2,291.94,371,296.7,380.6c4,8.07,25.56,3.91,57.71-2.31a16.14,16.14,0,0,0,8.39-4c6.75-6.43,4.9-18,4-20.61C365.53,350.28,358.72,348.51,357.82,345.32Z"/><path fill="#d18165" d="M334.37,348.53c-4.27-9.24,4.69-11.2,4.69-11.2l-.07-.13c5.92,4,12.54,5.73,18.47,4.58l.83-.2a47.36,47.36,0,0,1,3.13-7.06c-10.86,1.67-23.16-6.71-29.89-20.28a2,2,0,0,1-1.91,1.19s-.2,5.25-.91,11.24h0c-.94,7.92-2.78,17.19-6.27,17.39-9.69,8.22-33.09,29.16-28.39,38.45s36.81,6,60.35-4.23c3.59-1.56,6.53-3.08,8.66-4.26C348.36,375.64,338.2,356.82,334.37,348.53Z"/><path fill="#ea9d7d" d="M344.62,261.82c-12.39,2.41-20,18.2-18.25,36.53h-.09c-3.39.66-5.39,5-4.47,9.77s4.42,8,7.81,7.38a2.76,2.76,0,0,0,2-1c6.88,13.88,19.53,22.11,30.53,20,13.65-2.66,18.49-19.51,14.46-40.14S358.28,259.15,344.62,261.82Z"/><path fill="#be3e5f" d="M358.13,319.91a83.48,83.48,0,0,1,11.29,1.55s-.37-5.37-4.85-6S358.13,319.91,358.13,319.91Z"/><path fill="#d18165" d="M367.71,293c.45,2,.84,4,1.39,5.93a11.78,11.78,0,0,0,1.06,2.6c.19.34.54.81.82,1.23s.56.89.83,1.37a6.41,6.41,0,0,1,.93,3.44,3,3,0,0,1-.94,1.92,3.78,3.78,0,0,1-1.69.88,12.39,12.39,0,0,1-6.34-.44,24,24,0,0,0,5.84-1,2.82,2.82,0,0,0,.95-.64,1.12,1.12,0,0,0,.29-.81,5.55,5.55,0,0,0-.8-2.36c-.22-.42-.48-.84-.74-1.26s-.53-.8-.81-1.38a10.71,10.71,0,0,1-.92-3.18A19.6,19.6,0,0,1,367.71,293Z"/><path fill="#000001" d="M349.58 290.33a43.59 43.59 0 006-.58 17.3 17.3 0 002.83-.73c1-.29 1.83-.74 2.85-1.15a6.85 6.85 0 01-2.34 2.23 8.82 8.82 0 01-3.06 1.16 10.37 10.37 0 01-3.24.07A8.11 8.11 0 01349.58 290.33zM374.76 287.24c.17.49.33 1 .47 1.47l-.14 0a10.37 10.37 0 01-3.24.07 8.11 8.11 0 01-3.06-1A44.46 44.46 0 00374.76 287.24zM374 300.59a1.54 1.54 0 01-1.8-1.22l-.85-4.39a1.53 1.53 0 113-.59l.86 4.4A1.54 1.54 0 01374 300.59zM358.62 301.53a1.54 1.54 0 01-1.8-1.21l-.86-4.4a1.53 1.53 0 013-.59l.86 4.4A1.54 1.54 0 01358.62 301.53z"/><path fill="#d18165" d="M326.16,302.56a13.74,13.74,0,0,0-.07,5,9.52,9.52,0,0,0,.75,2.24c.14.39.38.75.56,1.17a12.3,12.3,0,0,1,.65,1.26,6.29,6.29,0,0,1-1.36-.59,6.05,6.05,0,0,1-1.15-1,5.64,5.64,0,0,1-1.41-2.73,5.43,5.43,0,0,1,.23-3.07A4.74,4.74,0,0,1,326.16,302.56Z"/><path fill="#000001" d="M326.28,298.29s5.86,20.62,10.68,27.46c4.46,6.32,12.8,12.57,25.79,11.2a12.78,12.78,0,0,0,6.75-2.74c3.8-3.07,9.24-9.53,8.2-20.93,0,0-3.32-3.75-12.23-3.56s-11.17,2.48-12.7,4.21S344.43,324,341,321.38,329.4,302,333.27,293s8.33-5.3,3.6-15.6c0,0,6.77-2.48,18.6.12a10.33,10.33,0,0,0,7.2-.94c1.77-1,3.38-2.42,3.23-4.45a64.62,64.62,0,0,1,8,12.78s5.73-8.71-2.28-15.94c-6.8-6.15-8.93-9.82-11.21-10.69-4.52-1.7-6.41,1-10.87,1.78s-5.29-2.05-10.47.71-7.4,6.93-9.16,10.88c0,0-5.09-.7-9.73,8.43C318.16,284.08,317.43,304.71,326.28,298.29Zm30.43,15.84c1.21-1.17,4.7-3.06,9.79-2.17,4.85.85,5.49,4,6.25,6.4a8.12,8.12,0,0,1,.34,3.56c-.34,2.4-1.57,3.28-3.71,3.52-2.63.28-3.21-3.57-5.1-3.36s-1.62,3.47-6.3,3.66S353.59,317.13,356.71,314.13Z"/></g><g data-name="Patient/Bottom"><path fill="#454851" d="M414.82 824.49c-14 2-27.63-2.68-32.63-6.78s-13.13-2.49-13.13-2.49l.25 9.75-14.66-.42s-.73-9.67-1.39-18.38c-.32-4.35 1.1-6.78 1.65-11s3.59-11 3.59-11c7.89.26 28.25 1.46 32-3.07a28.46 28.46 0 005.69 7.84c.76.78 1.56 1.53 2.38 2.27s1.41 1.17 2.13 1.74c.92.72 1.86 1.45 2.86 2.15 10 7.07 22.45 12.48 29.34 17.5C443.67 820.58 428.82 822.47 414.82 824.49zM275.26 817.16c-12.94-5.72-22-16.94-24.06-23.07s-9.52-10.28-9.52-10.28l-4.09 6.54-12.21-8.14s3.36-5.51 7.42-13.24c2-3.87 4.52-5.17 7.21-8.42s8.86-7.39 8.86-7.39c6.55 4.41 23.18 16.22 28.72 14.35a28.63 28.63 0 00.67 9.67c.22 1.06.51 2.13.81 3.19.28.87.57 1.73.88 2.6.4 1.1.81 2.22 1.28 3.34 4.69 11.27 12.42 22.49 15.59 30.4C301.79 829.15 288.2 822.87 275.26 817.16z"/><path fill="#25beef" d="M381.48,492.17s15.61,138.53,16.1,150.73S391,782,391,782s-19,7.65-32.63,2.44c0,0-10.74-97.31-9.11-122l-3.58-46.86s-2.93,39-5.86,43.6S279.93,770.8,279.93,770.8s-32.54-14.65-32.54-18.88c0,0,18.87-78.1,43-99.91q.15-45.32.32-90.63a90.78,90.78,0,0,1-5.86-43,89.46,89.46,0,0,1,7.33-26.85S362,501.93,381.48,492.17Z"/><path fill="#1a87c4" d="M346.81,600.43c2.61-30,8-58.76,9.76-58.58,1.35.14,0,15.07-.49,49.31-.36,27.93.2,46.68,1,73.22,1.53,51.81,3.61,60.69,5.83,67.86A139.21,139.21,0,0,0,391,782c-6.4,2.88-16.78,6.2-28.37,3.64a40.05,40.05,0,0,1-4.26-1.2s-10.74-97.31-9.11-122l-3.47-45.36C345.92,612.51,346.19,607.51,346.81,600.43Z"/><path fill="#1a87c4" d="M271.6,721.25c4-21.45,16.14-25.68,26.13-50.79,6-15.11,6.7-32.46,8.09-67.17,2.13-53.22-3.48-57.29,3.53-70.22,18.47-34.08,72.88-35.21,72.13-40.9-21.09,7.24-79.62.65-88.27-.46h0l-.7-.09h-.23l-.1,0a89.46,89.46,0,0,0-7.33,26.85,90.78,90.78,0,0,0,5.86,43q-.17,45.32-.32,90.63c-24.09,21.81-43,99.91-43,99.91q1.13,1.46,2.43,2.88c6.54,5.07,24.4,13.39,29,15.5l.09,0,.09,0,.24.11.14.06.09.05.14.06.05,0,.26.12C274.15,758.91,267.88,741.05,271.6,721.25Z"/><path fill="none" stroke="#fff" stroke-miterlimit="10" stroke-width="3" d="M289.06,499.39s51.45,13,93.23,0"/></g><g data-name="Patient/Torso"><path fill="#25beef" d="M370.26,480.21l-77.48-1.81a8.43,8.43,0,0,1-8.11-9.88l21.11-120.25,18.94-3.74c6.39,14.43,27.1,15.56,34,1.4l14.17,5.77A10.89,10.89,0,0,1,381,363l-.25,4.5q-3.06,54.33-6.11,108.65C374.61,476.48,374.49,477.94,370.26,480.21Z"/><path fill="#1a87c4" d="M374.62,476.19c-5.82-2.21-21.1-2.64-44.08-10.48-21.55-7.34-25.8-13-27.69-17-4.43-9.46-1.11-21.25.25-26.1,2.45-8.71,3.17-12,7.92-23,1.6-3.69,2.31-12.71.32-13.5-2.31-.91-9.13,9-16.19,22.8l-10.48,59.68a8.43,8.43,0,0,0,8.11,9.88l77.48,1.81a4.25,4.25,0,0,0,4.36-4Z"/><path fill="#25beef" d="M357.71,343.11l-3.19,136.74,19.56,11.29A19.08,19.08,0,0,0,391,492.2c5.87-2.48,12.52-22.93,13.68-26.58C418.7,421.62,397.7,356.62,357.71,343.11Z"/><path fill="#1a87c4" d="M351.43,479.78l4.12-43.91c4.93-2.25,13.42-13.33,15.78-16.15,5.55-6.63,8-13.87,9.85-21.05-2.09,19.12,3.08,94.71,3.08,94.71Z"/><path fill="#25beef" d="M325.07,342.46l-1.17,111,35.39-12.14a4,4,0,0,1,5.2,3.28l2.41,21.19a4,4,0,0,1-2.25,4c-8.07,3.76-33.26,15.55-48.65,23.2,0,0-41.53-1.35-49.3-16.38-15-29-11.11-101,5-117.5C291.26,339,325.07,342.46,325.07,342.46Z"/><path fill="#1a87c4" d="M278.64,353.84h0S312.43,359,304,413.45A27.23,27.23,0,0,0,309.54,435,23.42,23.42,0,0,0,324,443.5h0c0,7.12-.07,9.95-.07,9.95A139.33,139.33,0,0,1,308,455.09c-4.6,2.87-14,9-17.92,13.45A44.44,44.44,0,0,1,301.76,451a5.1,5.1,0,0,1-.19-.5,102.19,102.19,0,0,1-1.38-43S305.58,362.52,278.64,353.84Z"/><path fill="#1a87c4" d="M324,443.5s19.19-2.81,31.58-7.63l.52,6.54-32.17,11-1,.15Z"/><path fill="#ea9d7d" d="M321.39,453.37l.15-.95s-1.72-2.3-4.08-5.32c-4.44-5.71-11.16-14-12.9-14.38-2.66-.53-7.72.17,1.31,11.89l-.11.05c-.39.17-2,.71-5.44.24.42,2.18.86,4.06,1.25,5.57.05.17,1.09,5.21,6.47,4.62a118.44,118.44,0,0,0,13-1.22Z"/><path fill="#25beef" d="M321.54,452.42s51.29-3.66,60-15.94l2.75,56.9L316,493Z"/><path fill="#1a87c4" d="M328.86 451.75c-2 .21-3.7.37-4.94.48l0 1.22zM381.51 436.48c-2.62 3.71-9.13 6.63-16.93 8.9l2.32 20.4a4 4 0 01-2.25 4c-8.06 3.76-33.26 15.55-48.65 23.2l21.66.12A44.16 44.16 0 00382 446.84z"/><path fill="#ea9d7d" d="M414.39,453.88c-1.32-1.4-21.91.81-22.79.46-2.56-1,.13-2.31.13-2.31,18-2.83,23.51-3.26,23.22-6-.39-3.75-20.85,0-23.24.37-1,.13-1.4-.22-1.58-.69a1.43,1.43,0,0,1,1.15-1.87c26.27-4.37,21.85-8.33,20.18-8.6-3.08-.49-20.91,1.88-26.2,2.62-4.6.65-6.6-.16-7.05-.37l-.1-.06c9.69-11.18,4.68-12.17,2-11.79-1.75.24-8.94,8.15-13.71,13.61-1.11,1.26-2.07,2.38-2.82,3.25a4,4,0,0,1,.92,2.08l1.08,9.54s0,.05,0,.08a29.36,29.36,0,0,1,.67,5.93l.54,4.75,17.65.36c16.59,2.08,23.35,3.39,20.49.62s-11.48-3.18-14.61-4.25c-2.95-1-2.48-1.42-2.48-1.42C418.84,457.37,415.63,455.2,414.39,453.88Z"/></g><g><rect width="8" height="168.21" x="148.11" y="524.22" fill="#2f170b"/><path fill="#e3eaf3" d="M190.28,791.71c-.91-11.36-2.09-22.67-3.44-33.94S184,735.26,182.31,724s-3.49-22.4-5.44-33.56a10.17,10.17,0,0,0-9.72-8.42l-.47,0c-4.86-.14-9.72-.11-14.57-.17s-9.72.06-14.57.08h-.19a10.32,10.32,0,0,0-10.1,8.51q-3,16.74-5.53,33.54c-1.66,11.22-3.23,22.45-4.55,33.73s-2.48,22.59-3.4,33.95-1.6,22.76-1.7,34.27c4.14-10.74,7.68-21.6,11-32.49s6.46-21.83,9.33-32.82,5.6-22,8.2-33q2.81-12.3,5.39-24.64c2,0,4.06,0,6.09,0l6.19-.05c1.76,8.23,3.56,16.45,5.48,24.64,2.59,11,5.27,22.06,8.2,33s6,21.93,9.29,32.83,6.82,21.76,10.87,32.52C192,814.45,191.21,803.06,190.28,791.71Z"/><polygon fill="#feaa40" points="112.07 524.22 137.54 390.69 166.68 390.69 192.14 524.22 112.07 524.22"/><path fill="#ea8826" d="M150.08,430.9c.68-15.33,3.87-29.54,2.28-40.2H137.54L112.07,524.22h80.07l-.07-.39a53.87,53.87,0,0,1-17.63-9.66C147.39,491.24,149.71,439.18,150.08,430.9Z"/></g><g><rect width="333.13" height="106.6" x="131.31" y="97.48" fill="#c0d6f2" rx="5.29"/><path fill="#a2aee6" d="M459.14,97.48H136.59a5.28,5.28,0,0,0-5.28,5.29V143.9H464.43V102.77A5.29,5.29,0,0,0,459.14,97.48Z"/><rect width="307.74" height="19.04" x="144" y="179.93" fill="#a2aee6" rx="1.7"/><path fill="#dae8f7" d="M449.36 186.51h-303a.85.85 0 110-1.7h303a.85.85 0 010 1.7zM449.36 193.94h-303a.85.85 0 110-1.7h303a.85.85 0 010 1.7z"/><rect width="30.46" height="13.96" x="407.64" y="115.57" fill="#dae8f7" rx="1.7"/><circle cx="415.55" cy="122.55" r="3.93" fill="#a2aee6"/><circle cx="430.19" cy="122.55" r="3.93" fill="#c0d6f2"/></g><g data-name="Body/Organ"><rect width="326.46" height="541.22" x="460.29" y="256.58" fill="#e3eaf3"/><path fill="#c82833" d="M547.76,615.73a16.68,16.68,0,0,1-4.52-6.39,29.9,29.9,0,0,1-1.41-3.65l-.59-1.86-.29-.94-.22-.95-.86-3.82c-.21-1.28-.38-2.57-.58-3.86-.46-2.57-.55-5.17-.78-7.76a209.12,209.12,0,0,1,.78-31.16c.25-2.59.61-5.16.9-7.74s.57-5.17,1-7.73l1.22-7.69c.42-2.56.76-5.14,1.29-7.68l2.95-15.3,1.63-7.61L550,494c2.35-10.12,4.93-20.2,8-30.16,1.56-5,3.34-9.89,5.26-14.77a124.48,124.48,0,0,1,6.87-14.2A69.11,69.11,0,0,1,579.52,422a40.46,40.46,0,0,1,12.94-9.46,42.69,42.69,0,0,1,15.46-3.62,88.34,88.34,0,0,1,15.62.84l0,.4a101.44,101.44,0,0,0-15.42.58,48.88,48.88,0,0,0-7.44,1.55l-.9.25-.89.32c-.59.21-1.19.41-1.77.63-1.14.52-2.31.95-3.4,1.58a37.66,37.66,0,0,0-6.22,4.08c-.93.83-1.92,1.59-2.78,2.5L583.37,423l-1.24,1.41a67.32,67.32,0,0,0-8.48,12.47,182.32,182.32,0,0,0-11.85,28.25c-3.35,9.72-6.15,19.66-8.7,29.67l-1.85,7.53-1.77,7.54L546.25,525c-.57,2.52-1,5.08-1.43,7.61l-1.36,7.63c-.47,2.54-.75,5.11-1.13,7.66s-.75,5.11-1.05,7.67a209.87,209.87,0,0,0-1.58,30.88c.17,2.57.19,5.16.58,7.7.16,1.28.3,2.56.48,3.84l.75,3.78.19,1,.26.93.53,1.85a33.14,33.14,0,0,0,1.29,3.62,16.69,16.69,0,0,0,4.18,6.29Z"/><path fill="#c82833" d="M554,598.76a25.51,25.51,0,0,0,.35-7,22.68,22.68,0,0,0-1.63-6.75,21.86,21.86,0,0,0-1.59-3.08,20.8,20.8,0,0,0-2.15-2.71,22.74,22.74,0,0,0-5.45-4.2l-.34-.21.06-.38c1.48-9.24,2.73-18.54,3.85-27.84s2.14-18.61,2.85-28c1.42-18.67,2.3-37.36,0-55.92a62.13,62.13,0,0,1,4.18-28.45,63.37,63.37,0,0,1,6.79-12.78c.69-1,1.36-2,2.12-2.94s1.46-1.93,2.27-2.83,1.58-1.83,2.44-2.67,1.68-1.75,2.59-2.54A59.72,59.72,0,0,1,582,402a53.69,53.69,0,0,1,13.38-5.34,50.76,50.76,0,0,1,14.24-1.54,51.44,51.44,0,0,1,14,2.49l-.11.38a53.81,53.81,0,0,0-27.39,1.15,56.68,56.68,0,0,0-12.4,5.71A62,62,0,0,0,573,413.28c-.84.77-1.58,1.63-2.36,2.46s-1.5,1.71-2.23,2.58-1.42,1.77-2.11,2.67-1.33,1.85-2,2.79a69.47,69.47,0,0,0-6.35,12,60.32,60.32,0,0,0-4.46,26.64l.53,7c.07,1.19.21,2.37.23,3.55l.09,3.55.1,3.55c0,1.18,0,2.36,0,3.54,0,2.35,0,4.72-.11,7.07-.28,9.42-1,18.8-1.94,28.16-1.85,18.71-4.61,37.29-8,55.77l-.28-.59a23.88,23.88,0,0,1,5.6,4.55,21.88,21.88,0,0,1,2.18,2.89,21.62,21.62,0,0,1,1.57,3.25,23.38,23.38,0,0,1,1.51,7,25.8,25.8,0,0,1-.54,7.12Z"/><path fill="#c82833" d="M546.28,517a140.26,140.26,0,0,1-1-19.65,166.3,166.3,0,0,1,1.39-19.68,151.19,151.19,0,0,1,4.12-19.36c1-3.15,1.93-6.33,3.19-9.4,1.08-3.13,2.6-6.11,4-9.14a84.78,84.78,0,0,1,11.26-16.59,63,63,0,0,1,15.68-12.64,60.5,60.5,0,0,1,18.86-6.91,47.7,47.7,0,0,1,19.84.33l-.07.39c-13.06-.83-25.8,3-36.59,9.64a40.54,40.54,0,0,0-4,2.61L581,418l-1,.69-.9.77c-1.2,1-2.47,2-3.64,3.08l-3.41,3.33a77.66,77.66,0,0,0-11.33,15.39c-1.43,2.88-3,5.7-4.13,8.73-1.32,2.95-2.32,6-3.4,9.09A148.41,148.41,0,0,0,548.6,478a165.88,165.88,0,0,0-2.17,19.4,139,139,0,0,0,.25,19.57Z"/><path fill="#c82833" d="M583.54 435.78c2.67-2.82 5.54-5.44 8.45-8a109.85 109.85 0 019.21-7.24c3.21-2.25 6.44-4.68 10.34-5.94a20.39 20.39 0 016.1-1.12 8.85 8.85 0 016 1.8l-.17.36a12.53 12.53 0 00-5.39.62 41.64 41.64 0 00-5 2c-1.66.78-3.33 1.6-5 2.37s-3.4 1.63-5.07 2.56-3.28 1.94-4.89 3-3.23 2.07-4.82 3.16c-3.2 2.13-6.32 4.41-9.4 6.74zM584.49 452c2.61-2.86 5.41-5.53 8.26-8.17s5.85-5.11 9-7.45 6.22-4.86 9.94-6.37a28.31 28.31 0 015.77-1.75 14.66 14.66 0 016.08 0v.4a63.06 63.06 0 00-10.1 4.94c-1.62.92-3.24 1.83-4.92 2.68s-3.35 1.77-5 2.74-3.22 2-4.8 3.11-3.17 2.14-4.73 3.25c-3.14 2.2-6.2 4.53-9.23 6.91zM590.18 463.8a91.47 91.47 0 017-6.69 79.65 79.65 0 017.69-5.92c1.36-.91 2.7-1.85 4.11-2.71a20.51 20.51 0 014.55-2.05 19.63 19.63 0 015-.86 11.16 11.16 0 015 .85l0 .4a52.06 52.06 0 00-8.61 3.35c-2.69 1.35-5.66 2.3-8.43 3.76-1.39.72-2.75 1.5-4.1 2.31s-2.71 1.61-4 2.47c-2.69 1.68-5.29 3.51-7.87 5.38zM591.91 478.24a77.08 77.08 0 016.43-6.48 65.77 65.77 0 017.29-5.63c1.3-.85 2.59-1.73 4-2.52a17.59 17.59 0 014.42-1.79 16.67 16.67 0 014.84-.49 10.32 10.32 0 014.71 1.26l-.07.4a41.09 41.09 0 00-8.25 2.64c-2.56 1.14-5.36 1.93-8 3.26-1.31.66-2.6 1.38-3.88 2.13s-2.55 1.52-3.81 2.34c-2.53 1.59-5 3.34-7.37 5.17zM598.82 493.57a64.72 64.72 0 014.51-6.44 54.73 54.73 0 015.37-5.84c1-.91 1.95-1.86 3-2.74a14.14 14.14 0 013.51-2.15 13.92 13.92 0 014.1-1.06 8.54 8.54 0 014.22.53v.4a46.49 46.49 0 00-6.47 3.68c-2 1.36-4.26 2.34-6.32 3.81-1 .72-2 1.5-3 2.3s-2 1.61-2.94 2.45c-2 1.67-3.82 3.46-5.64 5.3zM598.81 510.9a73 73 0 014.45-6.72 60.6 60.6 0 015.28-6.19c1.9-1.94 3.79-4.12 6.44-5.31a13.84 13.84 0 014.19-1.25 7.46 7.46 0 014.37.62l0 .39a26.32 26.32 0 00-6.53 3.71c-1 .7-2 1.4-3.11 2.06a27.93 27.93 0 00-3.19 2.16c-1 .79-2 1.63-3 2.5s-2 1.73-2.92 2.64c-2 1.78-3.8 3.69-5.62 5.62zM597.67 531.68c1.55-2.21 3.26-4.27 5-6.33.89-1 1.81-2 2.74-3s1.93-1.9 2.93-2.83 2-1.86 3.07-2.77a15.36 15.36 0 013.56-2.23 14 14 0 014.19-1.19 7.27 7.27 0 014.38.65l0 .4A17.56 17.56 0 00620 516c-1.06.64-2.08 1.32-3.11 2s-2.1 1.35-3.22 2a35.46 35.46 0 00-3.33 2c-2.13 1.5-4.22 3.1-6.28 4.76s-4.09 3.39-6.1 5.15zM569.83 786.32a37 37 0 0018-2.68 33.78 33.78 0 008.1-4.13 13.06 13.06 0 004.87-7.22 21.18 21.18 0 00.1-8.9c-.5-3-1.5-5.86-2.28-8.9a115.82 115.82 0 01-3-18.36c-.58-6.16-.94-12.31-1.58-18.41-.31-3.05-.74-6.06-1.23-9.09s-.89-6.16-1.21-9.24c-1.23-12.35-1.62-24.68-2.11-37s-1-24.64-1.17-37c0-6.18-.06-12.37.11-18.56s.55-12.39 1.08-18.56 1.26-12.34 2.31-18.48c.28-1.54.54-3.07.89-4.6l.48-2.29.58-2.28c.35-1.53.84-3 1.28-4.54s1-3 1.66-4.43a44.18 44.18 0 014.51-8.37 40.68 40.68 0 016.28-7.06 49.18 49.18 0 0116-9.49l.15.36a51.25 51.25 0 00-14.89 10.45 39.86 39.86 0 00-5.63 7 42 42 0 00-3.83 8.1 90.35 90.35 0 00-4 17.68c-.85 6-1.4 12.13-1.81 18.25s-.77 12.23-.92 18.36-.29 12.27-.3 18.42c-.08 12.29.19 24.61.41 36.93s.48 24.64 1.5 36.85c.26 3.05.6 6.09 1 9.11s.84 6.17 1.1 9.25c.55 6.18.81 12.34 1.28 18.46a114.87 114.87 0 002.58 18.14c.69 2.95 1.66 5.95 2.11 9.06a22.67 22.67 0 01-.32 9.45 14.17 14.17 0 01-5.43 7.7 34.36 34.36 0 01-8.41 4.07 37.58 37.58 0 01-18.29 2.34z"/><path fill="#c82833" d="M609.08,776.18a139.63,139.63,0,0,1-3.88-17.91c-.45-3-.81-6.06-1.06-9.12s-.34-6.14-.32-9.21c.06-6.14.52-12.23.88-18.31s.71-12.15.95-18.22.47-12.18.56-18.23a145.9,145.9,0,0,0-.48-17.92,132.55,132.55,0,0,0-3.17-17.71,171.08,171.08,0,0,0-5.4-17.35l.36-.17a96.28,96.28,0,0,1,12.18,34.72,91.07,91.07,0,0,1,.47,18.57c-.39,6.12-.86,12.19-1.32,18.27s-1,12.17-1.56,18.24S606.08,734,605.81,740c-.14,3-.17,6-.06,9.06s.35,6.05.67,9.07a151.87,151.87,0,0,0,3.05,18Z"/><path fill="#c82833" d="M597.91,656a182.46,182.46,0,0,1-2.06-30.56A190.69,190.69,0,0,1,599,594.86q1.38-7.58,3.36-15.06a105.27,105.27,0,0,1,5.16-14.59,115.78,115.78,0,0,1,15.85-26.39l.33.22c-2.28,4.58-4.52,9.14-6.63,13.73s-4.06,9.25-5.85,14-3.52,9.41-5.06,14.2-2.91,9.65-4,14.58a189.26,189.26,0,0,0-4.28,30,193.32,193.32,0,0,0,.47,30.43Z"/><path fill="#c82833" d="M606 626.71c.1-6.17.47-12.33.89-18.5s1.11-12.31 1.94-18.46 1.57-12.36 3.59-18.34a46.08 46.08 0 013.82-8.72 19.62 19.62 0 012.92-3.91 7.1 7.1 0 014.32-2.33l.09.39a7.21 7.21 0 00-3 3.07 23.66 23.66 0 00-1.82 4 82.22 82.22 0 00-2.52 8.62l-2.2 8.83c-.78 2.95-1.45 5.93-2.07 8.93-1.21 6-2.22 12.07-3.11 18.15s-1.74 12.19-2.48 18.31zM601.39 304.44c.32 5.39.85 10.77 1.7 16.09a123.1 123.1 0 003.36 15.68 61.87 61.87 0 002.75 7.41 74.21 74.21 0 003.43 6.92 27.55 27.55 0 004.46 6.07 18.88 18.88 0 006.47 4.23l-.07.4a14.09 14.09 0 01-8.15-2.43 22.56 22.56 0 01-6.1-6.14 30.27 30.27 0 01-3.73-7.62 80.31 80.31 0 01-2.16-8q-.89-4-1.45-8.11c-.35-2.72-.61-5.44-.8-8.16a138.69 138.69 0 01-.11-16.31z"/><path fill="#c82833" d="M594.46 334.82a64.15 64.15 0 004.18 10.91 55.05 55.05 0 002.78 5.06 38.12 38.12 0 003.31 4.63 26.51 26.51 0 004 3.87c1.45 1.12 2.9 2.16 4.4 3.14a32.08 32.08 0 004.86 2.46 54.76 54.76 0 005.54 1.72v.4a16 16 0 01-6.17.62 17.91 17.91 0 01-11.3-5.41 36.68 36.68 0 01-3.89-4.88 44.57 44.57 0 01-5.38-10.84 58.47 58.47 0 01-2.73-11.61zM699.08 615.39a16.46 16.46 0 004.18-6.29 31.23 31.23 0 001.3-3.62l.53-1.85.26-.93.19-1 .75-3.78c.18-1.28.31-2.56.48-3.84.38-2.54.4-5.13.57-7.7a208.5 208.5 0 00-1.57-30.88c-.3-2.56-.7-5.11-1-7.67s-.66-5.12-1.14-7.66l-1.35-7.63c-.48-2.53-.86-5.09-1.43-7.61l-3.24-15.16-1.76-7.54-1.86-7.53c-2.54-10-5.34-19.95-8.69-29.67a181.39 181.39 0 00-11.86-28.25 66.79 66.79 0 00-8.47-12.47L663.68 423l-1.33-1.32c-.85-.91-1.84-1.67-2.77-2.5a37.75 37.75 0 00-6.23-4.08 37.31 37.31 0 00-3.39-1.58c-.58-.22-1.18-.42-1.77-.63l-.89-.32-.91-.25a48.5 48.5 0 00-7.43-1.55 101.44 101.44 0 00-15.42-.58l0-.4a88.23 88.23 0 0115.61-.84 42.59 42.59 0 0115.46 3.62A40.5 40.5 0 01667.53 422a69.56 69.56 0 019.35 12.89 124.48 124.48 0 016.87 14.2c1.92 4.88 3.7 9.8 5.26 14.77 3.11 10 5.69 20 8 30.16l1.72 7.59 1.63 7.61 3 15.3c.53 2.54.87 5.12 1.29 7.68l1.22 7.69c.43 2.56.65 5.16 1 7.73s.66 5.15.91 7.74a210.48 210.48 0 01.78 31.16c-.24 2.59-.32 5.19-.78 7.76-.2 1.29-.37 2.58-.59 3.86l-.85 3.82-.22.95-.29.94-.59 1.86a29.9 29.9 0 01-1.41 3.65 16.68 16.68 0 01-4.52 6.39z"/><path fill="#c82833" d="M692.64,598.86a25.8,25.8,0,0,1-.54-7.12,23.08,23.08,0,0,1,1.51-7,21.62,21.62,0,0,1,1.57-3.25,21,21,0,0,1,2.18-2.89,23.68,23.68,0,0,1,5.6-4.55l-.28.59c-3.38-18.48-6.14-37.06-8-55.77-.89-9.36-1.65-18.74-1.93-28.16-.11-2.35-.07-4.72-.12-7.07,0-1.18,0-2.36,0-3.54l.1-3.55.09-3.55c0-1.18.16-2.36.23-3.55l.53-7a60.18,60.18,0,0,0-4.47-26.64,68.79,68.79,0,0,0-6.35-12c-.64-.94-1.25-1.9-2-2.79s-1.36-1.82-2.11-2.67-1.43-1.77-2.23-2.58-1.52-1.69-2.36-2.46a62.35,62.35,0,0,0-10.72-8.42A56.54,56.54,0,0,0,651,399.15,53.77,53.77,0,0,0,623.58,398l-.11-.38a51.44,51.44,0,0,1,14-2.49,50.69,50.69,0,0,1,14.23,1.54A53.54,53.54,0,0,1,665,402a59.79,59.79,0,0,1,11.67,8.52c.91.79,1.73,1.68,2.58,2.54s1.64,1.77,2.45,2.67,1.53,1.87,2.27,2.83,1.43,1.94,2.12,2.94a63.37,63.37,0,0,1,6.79,12.78,62.26,62.26,0,0,1,4.18,28.45c-2.33,18.56-1.44,37.25,0,55.92.71,9.34,1.76,18.65,2.84,28s2.37,18.6,3.86,27.84l.06.38-.34.21a22.54,22.54,0,0,0-5.45,4.2,17.44,17.44,0,0,0-3.74,5.79,22.68,22.68,0,0,0-1.63,6.75,25.12,25.12,0,0,0,.35,7Z"/><path fill="#c82833" d="M700.37,517a140.47,140.47,0,0,0,.25-19.57,165.88,165.88,0,0,0-2.17-19.4,148.44,148.44,0,0,0-4.63-18.9c-1.07-3.06-2.08-6.14-3.39-9.09-1.16-3-2.71-5.85-4.13-8.73A77.7,77.7,0,0,0,675,425.88l-3.41-3.33c-1.16-1.08-2.44-2-3.63-3.08l-.91-.77-1-.69-1.93-1.4a41.77,41.77,0,0,0-4-2.61c-10.79-6.63-23.53-10.47-36.59-9.64l-.07-.39a47.69,47.69,0,0,1,19.84-.33,60.35,60.35,0,0,1,18.85,6.91,62.78,62.78,0,0,1,15.68,12.64,84.4,84.4,0,0,1,11.27,16.59c1.39,3,2.9,6,4,9.14,1.26,3.07,2.19,6.25,3.19,9.4a152.92,152.92,0,0,1,4.12,19.36,166.3,166.3,0,0,1,1.39,19.68A138.77,138.77,0,0,1,700.76,517Z"/><path fill="#c82833" d="M663.24 436.08c-3.08-2.33-6.2-4.61-9.4-6.74-1.59-1.09-3.19-2.15-4.82-3.16s-3.24-2-4.89-3-3.35-1.81-5.08-2.56-3.37-1.59-5-2.37a42.32 42.32 0 00-5-2 12.53 12.53 0 00-5.39-.62l-.17-.36a8.83 8.83 0 016-1.8 20.32 20.32 0 016.09 1.12c3.9 1.26 7.14 3.69 10.34 5.94a108.39 108.39 0 019.22 7.24c2.91 2.59 5.77 5.21 8.45 8zM662.28 452.25c-3-2.38-6.09-4.71-9.23-6.91-1.56-1.11-3.14-2.2-4.73-3.25s-3.18-2.11-4.8-3.11-3.29-1.91-5-2.74-3.31-1.76-4.92-2.68a63.06 63.06 0 00-10.1-4.94v-.4a14.66 14.66 0 016.08 0 28.51 28.51 0 015.77 1.75c3.72 1.51 6.82 4 9.94 6.37s6.11 4.84 9 7.45 5.64 5.31 8.26 8.17zM656.6 464.09c-2.58-1.87-5.19-3.7-7.88-5.38-1.33-.86-2.67-1.68-4-2.47s-2.71-1.59-4.1-2.31c-2.78-1.46-5.74-2.41-8.43-3.76a52.06 52.06 0 00-8.61-3.35l0-.4a11.16 11.16 0 015-.85 19.7 19.7 0 015 .86 20.43 20.43 0 014.54 2.05c1.42.86 2.76 1.8 4.12 2.71a80.9 80.9 0 017.69 5.92 91.47 91.47 0 017 6.69zM654.86 478.53c-2.39-1.83-4.84-3.58-7.37-5.17q-1.87-1.23-3.81-2.34c-1.27-.75-2.56-1.47-3.88-2.13-2.63-1.33-5.43-2.12-8-3.26a41.09 41.09 0 00-8.25-2.64l-.07-.4a10.25 10.25 0 014.7-1.26 16.71 16.71 0 014.85.49 17.75 17.75 0 014.42 1.79c1.36.79 2.66 1.67 4 2.52a64.73 64.73 0 017.28 5.63 75.71 75.71 0 016.44 6.48zM647.91 493.81c-1.83-1.84-3.68-3.63-5.64-5.3-1-.84-1.94-1.67-2.94-2.45s-2-1.58-3-2.3c-2-1.47-4.35-2.45-6.31-3.81a46.62 46.62 0 00-6.48-3.68v-.4a8.6 8.6 0 014.23-.53 13.85 13.85 0 014.09 1.06 14 14 0 013.52 2.15c1 .88 2 1.83 3 2.74a54.73 54.73 0 015.37 5.84 64.72 64.72 0 014.51 6.44zM647.91 511.13c-1.83-1.93-3.67-3.84-5.62-5.62-.95-.91-1.93-1.79-2.92-2.64s-2-1.71-3-2.5a27.93 27.93 0 00-3.19-2.16c-1.08-.66-2.11-1.36-3.11-2.06a26.32 26.32 0 00-6.53-3.71l0-.39a7.44 7.44 0 014.37-.62 13.92 13.92 0 014.19 1.25c2.65 1.19 4.53 3.37 6.44 5.31a60.6 60.6 0 015.28 6.19 72.92 72.92 0 014.44 6.72zM649.08 531.94c-2-1.76-4-3.51-6.1-5.15s-4.15-3.26-6.29-4.76a36.65 36.65 0 00-3.32-2c-1.12-.63-2.19-1.28-3.22-2s-2.06-1.38-3.11-2a17.56 17.56 0 00-3.49-1.63l0-.4a7.26 7.26 0 014.38-.65 14 14 0 014.18 1.19 15 15 0 013.56 2.23c1.06.91 2.06 1.85 3.07 2.77s2 1.87 2.94 2.83 1.84 2 2.74 3c1.75 2.06 3.46 4.12 5 6.33zM677.26 786.72A37.58 37.58 0 01659 784.38a34.36 34.36 0 01-8.41-4.07 14.81 14.81 0 01-3.37-3.38 15.07 15.07 0 01-2.06-4.32 22.34 22.34 0 01-.32-9.45c.45-3.11 1.42-6.11 2.11-9.06A113.7 113.7 0 00649.49 736c.48-6.12.74-12.28 1.29-18.46.26-3.08.65-6.19 1.09-9.25s.78-6.06 1-9.11c1-12.21 1.21-24.54 1.5-36.85s.49-24.64.4-36.93c0-6.15-.11-12.29-.29-18.42s-.44-12.24-.92-18.36-1-12.22-1.81-18.25a90.35 90.35 0 00-4-17.68 41.44 41.44 0 00-3.84-8.1 39.36 39.36 0 00-5.62-7 51.25 51.25 0 00-14.89-10.45l.15-.36a49 49 0 0116 9.49 40.73 40.73 0 016.29 7.06 44.18 44.18 0 014.51 8.37c.64 1.45 1.12 3 1.66 4.43s.93 3 1.28 4.54l.57 2.28.49 2.29c.35 1.53.6 3.06.88 4.6 1.06 6.14 1.74 12.31 2.31 18.48s.89 12.37 1.09 18.56.16 12.38.1 18.56c-.17 12.36-.69 24.69-1.16 37s-.89 24.66-2.12 37c-.31 3.08-.7 6.17-1.21 9.24s-.91 6-1.22 9.09c-.64 6.1-1 12.25-1.58 18.41a117 117 0 01-3 18.36c-.79 3-1.78 5.91-2.28 8.9a21.18 21.18 0 00.1 8.9 14.11 14.11 0 001.8 4 13.91 13.91 0 003.07 3.2 33.78 33.78 0 008.1 4.13 37 37 0 0018 2.68z"/><path fill="#c82833" d="M637.58,776.07a151.87,151.87,0,0,0,3-18c.32-3,.54-6,.67-9.07s.08-6-.07-9.06c-.26-6-.91-12.09-1.47-18.16s-1.11-12.15-1.56-18.24-.93-12.15-1.32-18.27a91.07,91.07,0,0,1,.47-18.57A96.28,96.28,0,0,1,649.53,632l.36.17a173.72,173.72,0,0,0-5.41,17.35,134.14,134.14,0,0,0-3.16,17.71,144,144,0,0,0-.48,17.92c.08,6.05.32,12.15.55,18.23s.58,12.14,1,18.22.82,12.17.88,18.31c0,3.07-.08,6.15-.32,9.21s-.61,6.1-1.06,9.12A138,138,0,0,1,638,776.18Z"/><path fill="#c82833" d="M648.74,656a193.32,193.32,0,0,0,.46-30.43,188.12,188.12,0,0,0-4.28-30q-1.67-7.39-4-14.58c-1.54-4.79-3.26-9.49-5.06-14.2s-3.77-9.35-5.85-14-4.35-9.15-6.63-13.73l.33-.22a116.14,116.14,0,0,1,15.85,26.39,103.94,103.94,0,0,1,5.15,14.59q2,7.47,3.37,15.06a190.69,190.69,0,0,1,3.14,30.59A183.53,183.53,0,0,1,649.14,656Z"/><path fill="#c82833" d="M640.65 626.74c-.74-6.12-1.53-12.23-2.48-18.31s-1.9-12.14-3.11-18.15c-.62-3-1.29-6-2.07-8.93l-2.21-8.83a82.18 82.18 0 00-2.51-8.62 23.66 23.66 0 00-1.82-4 7.27 7.27 0 00-3-3.07l.09-.39a7.1 7.1 0 014.32 2.33 20 20 0 012.92 3.91 46.73 46.73 0 013.82 8.72c2 6 2.72 12.21 3.58 18.34s1.45 12.3 1.95 18.46.79 12.33.89 18.5zM646.06 304.43a138.69 138.69 0 01-.11 16.31c-.19 2.72-.45 5.44-.8 8.16s-.86 5.41-1.45 8.11a83.09 83.09 0 01-2.16 8 30 30 0 01-3.74 7.62 22.52 22.52 0 01-6.09 6.14 14.09 14.09 0 01-8.15 2.43l-.07-.4a18.88 18.88 0 006.47-4.23 28.2 28.2 0 004.46-6.07 76.78 76.78 0 003.43-6.92 61.87 61.87 0 002.75-7.41A124.85 124.85 0 00644 320.53c.85-5.32 1.38-10.7 1.7-16.09z"/><path fill="#c82833" d="M653,334.89a57.75,57.75,0,0,1-2.72,11.61,44.93,44.93,0,0,1-5.38,10.84,36.68,36.68,0,0,1-3.89,4.88,18.93,18.93,0,0,1-5.16,3.72,18.73,18.73,0,0,1-6.14,1.69,16,16,0,0,1-6.17-.62v-.4a56.39,56.39,0,0,0,5.54-1.72,31.51,31.51,0,0,0,4.85-2.46c1.51-1,3-2,4.4-3.14a26.11,26.11,0,0,0,4-3.87,39.24,39.24,0,0,0,3.31-4.63,55.05,55.05,0,0,0,2.78-5.06,65,65,0,0,0,4.18-10.91Z"/><path fill="#c82833" d="M623.72,293.65l.8,68.4.6,68.4c.22,22.8.67,45.59.4,68.39-.14,11.4-.28,22.8-.6,34.2l-.48,17.1c-.24,5.7-.41,11.4-.72,17.1h-.4c-.3-5.7-.47-11.4-.71-17.1l-.48-17.1c-.32-11.4-.46-22.8-.61-34.2-.26-22.8.19-45.59.4-68.39l.6-68.4.8-68.4Z"/><path fill="#c82833" d="M603.6,396.31a24.39,24.39,0,0,1,9-7.15,26.61,26.61,0,0,1,11.49-2.63,29.75,29.75,0,0,1,3,.16,28.7,28.7,0,0,1,2.94.53,26.08,26.08,0,0,1,5.56,2,27.21,27.21,0,0,1,9,7.11,73.82,73.82,0,0,0-10.2-4.18,34.44,34.44,0,0,0-5.14-1.19,31.1,31.1,0,0,0-5.18-.41,36.18,36.18,0,0,0-10.36,1.55A53.92,53.92,0,0,0,603.6,396.31Z"/><path fill="#ef3e3b" d="M623.53,272.68a35.14,35.14,0,0,1,12.26-4.49c2.22-.35,11.24-2.12,14.62,3.31,2.15,3.44,1.65,5.89,3.07,13,1.24,6.2,2.82,9.42,2.59,13.44-.34,6-6.66,8.77-13.91,9.9-1.84.29-10.87,1.71-15.8-4.48a14.19,14.19,0,0,1-2.83-9.2h0a14.19,14.19,0,0,1-2.83,9.2c-4.93,6.19-14,4.77-15.8,4.48-7.25-1.13-13.57-3.86-13.92-9.9-.22-4,1.36-7.24,2.6-13.44,1.41-7.08.91-9.53,3.06-13,3.39-5.43,12.41-3.66,14.62-3.31a35.12,35.12,0,0,1,12.27,4.49Z"/><path fill="#c82833" d="M596.8 296.74a3.5 3.5 0 00-1.22 2.87 3.46 3.46 0 001.87 2.44 4 4 0 003 .36 4.15 4.15 0 002.35-1.94 2.67 2.67 0 00.35-1.44 1.84 1.84 0 00-.66-1.23c-.79-.66-1.82-1.19-2.68-1.93a9.52 9.52 0 01-3.27-5.88 55.35 55.35 0 01-.4-6.66 14.48 14.48 0 01.26-3.39 9 9 0 011.4-3.15 9.78 9.78 0 015.41-4.12 5.18 5.18 0 013.51.3 3.91 3.91 0 011.48 1.1 1.55 1.55 0 01.36 1 1.74 1.74 0 01-.4 1 9.89 9.89 0 01-2.83 2c-1 .53-2 1-3 1.52-.51.24-1 .46-1.5.69a2.43 2.43 0 00-1 1 5 5 0 00-.56 3 8.88 8.88 0 00.87 3.09 6.87 6.87 0 001.91 2.53c1.68 1.44 4.39.42 5.37-1.39a1.54 1.54 0 00.06-1.44 3 3 0 00-1.1-1.08 26.65 26.65 0 01-2.86-1.71 1.77 1.77 0 01-.69-1.59 2.6 2.6 0 011-1.43 18.63 18.63 0 012.8-1.82l2.91-1.58a30.84 30.84 0 013-1.49 5.67 5.67 0 01.83-.24 1.37 1.37 0 011 .11 1.16 1.16 0 01.51.86 2.64 2.64 0 010 .89 8.22 8.22 0 01-1.28 3.15 8.69 8.69 0 01-2.45 2.35c-.44.32-.84.64-.91 1a1.25 1.25 0 00.54 1.16 13 13 0 011.23 1.16 3.8 3.8 0 01.83 1.59 5 5 0 01-.41 3.49 3.2 3.2 0 01-1.32 1.31 3.7 3.7 0 01-1.79.37 9.43 9.43 0 00-3.12.05 2.52 2.52 0 00-1.29 2.31 3 3 0 00.27 1.37c.19.4.61.71 1 1.27a3.2 3.2 0 01.5 1.86 7.11 7.11 0 00-.05 1.58 8.71 8.71 0 00.2 1.55 1 1 0 00.76.82 5.45 5.45 0 002.93-.33 12.32 12.32 0 002.86-1.36 5.09 5.09 0 001.12-1 1 1 0 00.2-.45c0-.1 0-.17-.16-.29a4.1 4.1 0 00-1.31-.55c-.51-.14-1-.26-1.61-.43a4.11 4.11 0 01-1.69-.86 1.48 1.48 0 01-.41-1.17 2.17 2.17 0 01.4-1 6.19 6.19 0 011.29-1.27 11.38 11.38 0 011.45-1 7.86 7.86 0 011.63-.64 1.54 1.54 0 001-.68c.4-.67.15-1.85 0-2.9a16.73 16.73 0 00-.76-3.12 5.29 5.29 0 01-.43-1.76 3.86 3.86 0 01.44-1.83c.32-.56.67-.94.93-1.39a8.37 8.37 0 00.66-1.42 10.19 10.19 0 00.42-1.53 7 7 0 01.4-1.71 3.4 3.4 0 011.29-1.34 4.27 4.27 0 011.7-.63 2.77 2.77 0 011.85.37 2.7 2.7 0 011.06 1.55 5.29 5.29 0 01.16 1.76 3.72 3.72 0 01-.53 1.73c-.32.51-.68.91-1 1.35a12.06 12.06 0 00-.87 1.36 15.81 15.81 0 00-1.36 2.93 4.9 4.9 0 00.27 3.1 3.71 3.71 0 01.21 1.73 3 3 0 01-.25.86 7.61 7.61 0 01-.43.72 5.4 5.4 0 00-.6 3.1 11 11 0 01-.13 3.33 11.75 11.75 0 01-1.18 3.1l-.09 0a11.87 11.87 0 001.07-3.1 10.54 10.54 0 000-3.27 5.72 5.72 0 01.54-3.32 3 3 0 00.37-3 5.35 5.35 0 01-.33-3.38 15.65 15.65 0 011.36-3.09 26.06 26.06 0 011.83-2.77 3.89 3.89 0 00.24-2.93 1.73 1.73 0 00-2.1-1.35 3.26 3.26 0 00-2.34 1.55 7.39 7.39 0 00-.31 1.51 9.75 9.75 0 01-.43 1.67 8.32 8.32 0 01-.71 1.59c-.28.51-.67 1-.88 1.37a2.75 2.75 0 00-.29 1.37 4.42 4.42 0 00.38 1.43 18.41 18.41 0 01.82 3.29c.1.55.19 1.1.24 1.69a3.21 3.21 0 01-.34 1.9 2.36 2.36 0 01-.74.77 3.78 3.78 0 01-.88.37 7.42 7.42 0 00-1.45.57 8 8 0 00-2.36 1.91 1.34 1.34 0 00-.23.52.41.41 0 00.13.33 3 3 0 001.24.58l1.6.43a4.72 4.72 0 011.7.75 1.4 1.4 0 01.54 1.14 1.94 1.94 0 01-.43 1.05 5.83 5.83 0 01-1.38 1.19 13.77 13.77 0 01-3.11 1.46 9.57 9.57 0 01-1.7.4 4.09 4.09 0 01-1.86-.1 2.26 2.26 0 01-.91-.57 2.21 2.21 0 01-.49-.93 11.22 11.22 0 01-.22-1.73 8 8 0 01.07-1.72 2.3 2.3 0 00-.34-1.29 13 13 0 01-1-1.35 3.77 3.77 0 01-.36-1.84 4.31 4.31 0 01.46-1.78 2.7 2.7 0 011.42-1.3c1.28-.44 2.42-.06 3.45-.06a2.46 2.46 0 002.43-1.24 4.26 4.26 0 00.39-2.94 4.77 4.77 0 00-1.83-2.45 2.9 2.9 0 01-.57-.74 1.53 1.53 0 01-.12-1 2.46 2.46 0 011.17-1.41 7.85 7.85 0 002.34-2.17 7.7 7.7 0 001.26-2.91c.09-.5.07-1.09-.24-1.29s-.93 0-1.41.15a61.11 61.11 0 00-5.88 3 18 18 0 00-2.76 1.76 2.31 2.31 0 00-.86 1.23 1.44 1.44 0 00.58 1.31 23.29 23.29 0 002.82 1.67 3.36 3.36 0 011.23 1.2 1.91 1.91 0 01-.05 1.74 4.49 4.49 0 01-2.62 2.12 3.49 3.49 0 01-3.31-.55 7.27 7.27 0 01-2.09-2.65 9.39 9.39 0 01-1-3.24 5.52 5.52 0 01.57-3.39 3.07 3.07 0 011.28-1.27c.52-.27 1-.49 1.5-.74 1-.48 1.94-1 2.9-1.56a10.07 10.07 0 002.55-1.82.71.71 0 000-1 3.07 3.07 0 00-1.17-.83 4.29 4.29 0 00-2.95-.23 9.28 9.28 0 00-4.9 3.76 8.46 8.46 0 00-1.3 2.85 14 14 0 00-.26 3.19 54.51 54.51 0 00.34 6.55 8.9 8.9 0 002.94 5.5c.8.72 1.76 1.21 2.65 2a2.36 2.36 0 01.81 1.63 3.1 3.1 0 01-.44 1.73 4.48 4.48 0 01-2.68 2.11 4.33 4.33 0 01-3.34-.5 3.29 3.29 0 01-.56-5.67zM649.85 296.66a3.29 3.29 0 01-.56 5.67 4.33 4.33 0 01-3.34.5 4.51 4.51 0 01-2.68-2.11 3.19 3.19 0 01-.44-1.73 2.44 2.44 0 01.81-1.63c.89-.78 1.85-1.27 2.65-2a8.9 8.9 0 002.94-5.5 54.51 54.51 0 00.34-6.55 14 14 0 00-.26-3.19 8.46 8.46 0 00-1.3-2.85 9.28 9.28 0 00-4.9-3.76 4.29 4.29 0 00-3 .23 3.07 3.07 0 00-1.17.83.72.72 0 000 1 10.07 10.07 0 002.55 1.82c1 .54 1.93 1.08 2.9 1.56.49.25 1 .47 1.5.74a3.07 3.07 0 011.28 1.27 5.6 5.6 0 01.58 3.39 9.62 9.62 0 01-1 3.24 7.27 7.27 0 01-2.09 2.65 3.49 3.49 0 01-3.31.55 4.49 4.49 0 01-2.62-2.12 1.94 1.94 0 010-1.74 3.32 3.32 0 011.24-1.2 23.94 23.94 0 002.81-1.67 1.44 1.44 0 00.58-1.31 2.25 2.25 0 00-.86-1.23 18 18 0 00-2.76-1.76 61.11 61.11 0 00-5.88-3c-.48-.17-1.07-.35-1.41-.15s-.33.79-.24 1.29a7.7 7.7 0 001.26 2.91 7.85 7.85 0 002.34 2.17 2.48 2.48 0 011.18 1.41 1.6 1.6 0 01-.13 1 2.9 2.9 0 01-.57.74 4.77 4.77 0 00-1.83 2.45 4.26 4.26 0 00.39 2.94 2.46 2.46 0 002.43 1.24c1 0 2.17-.38 3.45.06a2.7 2.7 0 011.42 1.3 4.16 4.16 0 01.46 1.78 3.77 3.77 0 01-.36 1.84 13 13 0 01-1 1.35 2.3 2.3 0 00-.34 1.29 7.44 7.44 0 01.07 1.72 11.22 11.22 0 01-.22 1.73 2.21 2.21 0 01-.49.93 2.26 2.26 0 01-.91.57 4.09 4.09 0 01-1.86.1 9.57 9.57 0 01-1.7-.4 13.77 13.77 0 01-3.11-1.46 5.83 5.83 0 01-1.38-1.19 1.94 1.94 0 01-.43-1.05 1.4 1.4 0 01.54-1.14 4.69 4.69 0 011.71-.75l1.59-.43a3 3 0 001.24-.58.41.41 0 00.13-.33 1.34 1.34 0 00-.23-.52 8 8 0 00-2.36-1.91 7.42 7.42 0 00-1.45-.57 3.78 3.78 0 01-.88-.37 2.36 2.36 0 01-.74-.77 3.21 3.21 0 01-.34-1.9c0-.59.14-1.14.24-1.69a18.41 18.41 0 01.82-3.29 4.74 4.74 0 00.39-1.43 2.87 2.87 0 00-.3-1.37c-.21-.41-.6-.86-.88-1.37a8.32 8.32 0 01-.71-1.59 9.75 9.75 0 01-.43-1.67 7.39 7.39 0 00-.31-1.51 3.24 3.24 0 00-2.34-1.55 1.93 1.93 0 00-1.33.22 2 2 0 00-.77 1.13 3.89 3.89 0 00.24 2.93 26.06 26.06 0 011.83 2.77 15.65 15.65 0 011.36 3.09 5.35 5.35 0 01-.33 3.38 3 3 0 00.37 3 5.72 5.72 0 01.54 3.32 10.54 10.54 0 000 3.27 11.87 11.87 0 001.07 3.1l-.08 0a11.44 11.44 0 01-1.19-3.1 11 11 0 01-.13-3.33 5.4 5.4 0 00-.6-3.1 7.61 7.61 0 01-.43-.72 3 3 0 01-.25-.86 3.71 3.71 0 01.21-1.73 4.9 4.9 0 00.27-3.1A15.81 15.81 0 00626 284a12.06 12.06 0 00-.87-1.36c-.32-.44-.68-.84-1-1.35a3.72 3.72 0 01-.53-1.73 5.56 5.56 0 01.16-1.76 2.7 2.7 0 011.06-1.55 2.77 2.77 0 011.85-.37 4.27 4.27 0 011.7.63 3.4 3.4 0 011.29 1.34 7 7 0 01.4 1.71 10.19 10.19 0 00.42 1.53 8.37 8.37 0 00.66 1.42c.26.45.61.83.93 1.39a3.86 3.86 0 01.44 1.83 5.29 5.29 0 01-.43 1.76 16.73 16.73 0 00-.76 3.12c-.17 1.05-.42 2.23 0 2.9a1.54 1.54 0 001 .68 7.86 7.86 0 011.63.64 11.38 11.38 0 011.45 1 6.19 6.19 0 011.29 1.27 2.18 2.18 0 01.41 1 1.52 1.52 0 01-.42 1.17 4.11 4.11 0 01-1.69.86c-.56.17-1.1.29-1.61.43a4.1 4.1 0 00-1.31.55c-.12.12-.17.19-.16.29a1 1 0 00.2.45 5.09 5.09 0 001.12 1 12.32 12.32 0 002.86 1.36 5.45 5.45 0 002.93.33 1 1 0 00.76-.82 8.71 8.71 0 00.2-1.55 7.11 7.11 0 000-1.58 3.2 3.2 0 01.5-1.86c.38-.56.8-.87 1-1.27a3 3 0 00.27-1.37 2.5 2.5 0 00-1.29-2.31 9.43 9.43 0 00-3.12-.05 3.7 3.7 0 01-1.79-.37 3.2 3.2 0 01-1.32-1.31 5 5 0 01-.41-3.49 3.92 3.92 0 01.83-1.59 13 13 0 011.23-1.16 1.25 1.25 0 00.54-1.16c-.06-.4-.47-.72-.91-1a8.69 8.69 0 01-2.45-2.35 8.22 8.22 0 01-1.28-3.15 2.64 2.64 0 010-.89 1.16 1.16 0 01.51-.86 1.37 1.37 0 011-.11 5.33 5.33 0 01.83.24 30.84 30.84 0 013 1.49l2.91 1.58a18.63 18.63 0 012.8 1.82 2.6 2.6 0 011 1.43 1.77 1.77 0 01-.69 1.59 27.55 27.55 0 01-2.85 1.71 3 3 0 00-1.11 1.08 1.54 1.54 0 00.06 1.44c1 1.81 3.69 2.83 5.37 1.39a6.76 6.76 0 001.91-2.53 8.88 8.88 0 00.87-3.09 5 5 0 00-.56-3 2.43 2.43 0 00-1.05-1c-.47-.23-1-.45-1.49-.69-1-.48-2-1-3-1.52a9.89 9.89 0 01-2.83-2 1.81 1.81 0 01-.4-1 1.55 1.55 0 01.36-1 3.91 3.91 0 011.48-1.1 5.19 5.19 0 013.51-.3 9.78 9.78 0 015.41 4.12 9.15 9.15 0 011.41 3.15 15 15 0 01.25 3.39A55.35 55.35 0 01650 290a9.47 9.47 0 01-3.27 5.88c-.86.74-1.89 1.27-2.67 1.93a1.82 1.82 0 00-.67 1.23 2.67 2.67 0 00.35 1.44 4.15 4.15 0 002.35 1.94 4 4 0 003-.36 3.08 3.08 0 00.66-5.31z"/><rect width="77.52" height="19.92" x="676.93" y="301.4" fill="#454851"/><rect width="77.52" height="19.92" x="517.38" y="360.59" fill="#454851"/><rect width="45.09" height="19.92" x="706.24" y="451.25" fill="#454851"/><rect width="45.09" height="19.92" x="536.35" y="697.88" fill="#454851"/><rect width="45.09" height="19.92" x="673.77" y="623.97" fill="#454851"/><rect width="77.52" height="19.92" x="489.08" y="623" fill="#454851"/><rect width="77.52" height="19.92" x="667.57" y="742.3" fill="#454851"/><path fill="#454851" d="M438.09,228.44V826H809V228.44ZM786.76,797.8H460.29V256.58H786.76Z"/></g><g><path fill="#a04833" d="M855.93,117.11V234.66a5,5,0,0,0,5,5H988.71a5,5,0,0,0,5-5V117.11a5,5,0,0,0-5-5H860.93A5,5,0,0,0,855.93,117.11ZM977.52,229.3H872.12a5,5,0,0,1-5-5V127.47a5,5,0,0,1,5-5h105.4a5,5,0,0,1,5,5V224.3A5,5,0,0,1,977.52,229.3Z"/><rect width="115.4" height="106.83" x="867.12" y="122.47" fill="#e3eaf3" rx="5"/><path fill="#ef3e3b" d="M904 150.16a8.1 8.1 0 00-3.93 2.4 4.44 4.44 0 01-2.47-4.07l-1.69-.09A6.07 6.07 0 00899 154a8.07 8.07 0 00-1.07 4 6.74 6.74 0 00-.77 0 8.13 8.13 0 00-8.12 8.12h1.7a6.43 6.43 0 016.42-6.42 6.69 6.69 0 011.52.2l1.22.21-.19-1.24a5.83 5.83 0 01-.08-.83 6.37 6.37 0 015.42-6.31l1-.19-.31-1a9.05 9.05 0 01.69-4.19l-1.31-1.08C904.42 146.12 904 148.62 904 150.16zM943.14 149.46A6.21 6.21 0 00936.5 153l1.51.78a4.54 4.54 0 014.93-2.64 5 5 0 013.78 2.62 6.2 6.2 0 01.34 5.44l1.54.72a7.89 7.89 0 00-.4-7A6.62 6.62 0 00943.14 149.46z"/><path fill="#ef3e3b" d="M970.85,175.94c-.13-7.29-2.13-12.88-5.78-16.19A12.43,12.43,0,0,0,962.5,158a23.72,23.72,0,0,0-5.45-10.7c-4.37-5-9.26-7.71-13.88-8a41,41,0,0,0-15.59-3.73,5.57,5.57,0,0,0-4.45-2.93,6.91,6.91,0,0,0-6.9,3.94c-7.22.44-13.57,1.28-18.11,5.54a9.77,9.77,0,0,0-2.32-.28,7.19,7.19,0,0,0-6.95,6.45c-4.72,3.18-7.23,7.4-8.05,13.55a8.45,8.45,0,0,0,3.78,13.51,3.69,3.69,0,0,0-.09.58c0,3.09,3.52,5.52,8,5.52a14.11,14.11,0,0,0,2.24-.19c-.06.14-.13.27-.19.39a6,6,0,0,0,5.33,8.63,5.18,5.18,0,0,0,1.61-.27c1.13,2.88,6.48,4.57,14.72,4.57a38.62,38.62,0,0,0,8.88-.75c3,7.47,9.67,11.79,18.27,11.79.53,0,1.08,0,1.63-.05,7-.43,13.22-3.7,14-7.43a4.43,4.43,0,0,0-.18-2.7C966.56,193.47,971,186.29,970.85,175.94Z"/><path fill="#ef3e3b" d="M959 170.51a5.5 5.5 0 00-1.76 3.69l-.23 0c-3.56.08-4.82 2.67-6.05 5.17a20.83 20.83 0 01-2 3.43c-2 2.54-5.86 3.23-9.54 2.68-.86-.85-1.14-1.66-.79-2.38a3.68 3.68 0 013.23-1.71l.28-1.68a5.34 5.34 0 00-5 2.65 3.2 3.2 0 00-.09 2.58 15.48 15.48 0 01-1.73-.66c-8.91-4.12-19 3-19.46 3.29l1 1.39c.1-.07 9.76-6.84 17.76-3.13 3.92 1.81 9.08 2.18 12.77.38a3.75 3.75 0 001 2.13 3.42 3.42 0 002.51 1 5.85 5.85 0 002.86-.86l-.85-1.47c-1.41.8-2.58.85-3.31.12a1.92 1.92 0 01-.41-2.12 7.42 7.42 0 001.14-1.17 21.35 21.35 0 002.17-3.73c1.3-2.65 2.15-4.16 4.56-4.22h.07a3.83 3.83 0 012.59 1.13 3.58 3.58 0 011.12 2.51 7.2 7.2 0 01-2.54 5.31l-.32.33 1.23 1.17.28-.28a8.87 8.87 0 003.06-6.52 5.19 5.19 0 00-1.64-3.73 5.65 5.65 0 00-2-1.26 3.89 3.89 0 011.26-2.79 3.27 3.27 0 012.81-1l.45-1.64A4.92 4.92 0 00959 170.51zM937.53 204.54c-.62-.14-12-17.68-16.11-10.21 6.93 7.88 10.11 18.91 11.37 22.56a3.5 3.5 0 003.31 2.35 3.49 3.49 0 003.45-4.15z"/><polygon fill="#ef3e3b" points="962.95 170.72 962.95 170.71 962.95 170.71 962.95 170.72"/><polygon fill="#ef3e3b" points="963.17 169.9 962.95 170.71 962.96 170.72 963.17 169.9"/><path fill="#c82833" d="M942.53,140.82a39.56,39.56,0,0,0-15.11-3.62v-1.7a40.81,40.81,0,0,1,15.8,3.75Zm-43.83,3-1.24-1.17c4.73-5,11.63-5.77,19.51-6.23l.11,1.71c-7.52.43-14.09,1.16-18.38,5.69Zm-16.25,18.36-1.69-.21c.82-6.6,3.54-11,8.82-14.29l.9,1.45c-4.8,3-7.27,7-8,13.05Zm8.32,3.85h-1.7a8.13,8.13,0,0,1,8.12-8.12,6.74,6.74,0,0,1,.77,0,8.06,8.06,0,0,1,6-7.83c0-1.54.42-4,1.12-4.89l1.31,1.08a9.05,9.05,0,0,0-.69,4.19l.31,1-1,.18a6.39,6.39,0,0,0-5.42,6.32,5.56,5.56,0,0,0,.08.82l.19,1.25-1.22-.21a6.69,6.69,0,0,0-1.52-.2,6.43,6.43,0,0,0-6.42,6.42Zm0,0"/><path fill="#c82833" d="M911,159.77c-.08-.3-1.75-7.48,1.52-12.47a22.42,22.42,0,0,0,2.79-7.8,12.88,12.88,0,0,1,.75-2.72c1.52-3,4.16-4.54,7.07-4.21a5.34,5.34,0,0,1,4.76,3.76c.87,3.65-.34,7.33-3.72,11.26a8.34,8.34,0,0,0-1.51,4.64l-1.7-.14a9.78,9.78,0,0,1,1.92-5.62c3-3.53,4.09-6.62,3.35-9.75a3.73,3.73,0,0,0-3.3-2.46c-1-.11-3.66,0-5.35,3.3a13.26,13.26,0,0,0-.6,2.3,24.06,24.06,0,0,1-3,8.38c-2.87,4.37-1.32,11.07-1.3,11.13Zm5.78,29.17-1-1.39c.42-.31,10.55-7.41,19.46-3.29,4.44,2.05,10.93,2.06,13.68-1.48a20.83,20.83,0,0,0,2-3.43c1.23-2.5,2.49-5.09,6.05-5.17a5.49,5.49,0,0,1,3.89,1.62,5.19,5.19,0,0,1,1.64,3.73,8.87,8.87,0,0,1-3.06,6.52l-.28.28-1.23-1.17.32-.33a7.2,7.2,0,0,0,2.54-5.31,3.58,3.58,0,0,0-1.12-2.51,3.83,3.83,0,0,0-2.59-1.13H957c-2.41.06-3.26,1.57-4.56,4.22a21.35,21.35,0,0,1-2.17,3.73c-3.3,4.26-10.59,4.35-15.74,2-8-3.71-17.66,3.06-17.76,3.13Zm31.82-29-1.54-.72a6.2,6.2,0,0,0-.34-5.44,5,5,0,0,0-3.78-2.62,4.55,4.55,0,0,0-4.93,2.64L936.5,153a6.21,6.21,0,0,1,6.64-3.55,6.62,6.62,0,0,1,5.06,3.48,7.89,7.89,0,0,1,.4,7Zm-58.26-7.15a5.45,5.45,0,0,1-1.51-4.37,7.18,7.18,0,0,1,7-6.64c2.91,0,5,1,6.17,2.9l-1.44.9c-.88-1.41-2.42-2.09-4.73-2.09a5.45,5.45,0,0,0-5.27,4.92c0,1.51.15,2.32,1,3.16Zm-3,23a8.53,8.53,0,0,1-2.65-16.63l.53,1.62a6.82,6.82,0,0,0,4.23,13l.53,1.63a8.72,8.72,0,0,1-2.64.41Zm56.05,29.78c-8.88,0-15.75-4.59-18.56-12.51l1.61-.57c3.91,11,14.23,11.6,18.48,11.32,6.74-.41,11.9-3.48,12.48-6.09a2.45,2.45,0,0,0-.45-2.29c-2.24-2.63-10.82-2.42-17.08-2l-.1-1.69c10.81-.67,16.34.11,18.48,2.61a4.14,4.14,0,0,1,.81,3.77c-.82,3.73-7,7-14,7.43-.55,0-1.1.05-1.63.05Zm0,0"/><path fill="#c82833" d="M957.93,195.58l-.32-1.67c7.51-1.39,11.71-7.93,11.53-17.95-.12-6.8-1.92-12-5.21-14.94a11.71,11.71,0,0,0-9.17-2.78l-.14-1.7a13.36,13.36,0,0,1,10.45,3.21c3.65,3.31,5.65,8.9,5.78,16.19.19,10.76-4.64,18.11-12.92,19.64Zm0,0"/><path fill="#c82833" d="M960.92,158.7a22,22,0,0,0-5.16-10.31c-7-8-15.07-9.78-21-4.59a11.55,11.55,0,0,0-3.47,5.86l-1.64-.44a13.28,13.28,0,0,1,4-6.7c6.62-5.8,15.81-3.93,23.42,4.75a23.57,23.57,0,0,1,5.54,11.11ZM892.5,181.38c-4.49,0-8-2.43-8-5.52a4.11,4.11,0,0,1,.18-1.2l1.63.52a2.24,2.24,0,0,0-.1.68c0,2.07,2.88,3.81,6.3,3.81a11.58,11.58,0,0,0,3.52-.53l.58,1.6a13.11,13.11,0,0,1-4.1.64Zm0,0"/><path fill="#c82833" d="M899.88,190.21a6,6,0,0,1-5.33-8.63c1.3-2.62,4.79-9,8.93-11,4.9-2.43,10.37-1.83,13-1.53h.1a49.87,49.87,0,0,0,6.19-2.46c3.58-1.9,9.43-3.45,14.6-1.91a11.13,11.13,0,0,1,2.55-3.68l.16-.17,1.41.95a2.24,2.24,0,0,1-.34.4c-.54.56-2.17,2.23-2.31,3.69l-.11,1.11-1.05-.39c-4.84-1.84-10.63-.34-14.11,1.5a49.23,49.23,0,0,1-6.72,2.65l-.15,0-.41,0c-2.45-.27-7.58-.84-12,1.38-3.69,1.83-7,7.78-8.18,10.25a4.29,4.29,0,0,0-.22,3.26,4.25,4.25,0,0,0,4,2.91c1.38,0,2.69-.84,3.89-2.49a12.25,12.25,0,0,0,2.3-5.36l.18-1.27,1.1.66a7.1,7.1,0,0,0,5.78.38,3.16,3.16,0,0,0,2.08-1.84l.36-1.11.95.68c1.71,1.22,5.32,1.33,8.05.25,1.45-.57,2.37-1.38,2.54-2.21l.26-1.29,1.06.75a7.61,7.61,0,0,0,6,1.06c5.56-1.13,11.07-6.36,13.84-10.75l1.44.91c-3,4.69-8.9,10.28-15,11.5a9.36,9.36,0,0,1-6.44-.77A6.15,6.15,0,0,1,925.2,180c-2.52,1-6.27,1.29-8.82.06a5.3,5.3,0,0,1-2.64,2,9,9,0,0,1-6.2,0,14.92,14.92,0,0,1-2.38,5c-1.55,2.11-3.32,3.18-5.28,3.18Zm0,0"/><path fill="#c82833" d="M897.16,176.87a9.9,9.9,0,0,1-4.3-1.21l.83-1.49s3.85,2.09,5.38.21a17.8,17.8,0,0,1,2.45-2.51c.37-1.23-1.87-3.42-4.35-4.9l.88-1.46c3,1.82,6.16,4.81,4.93,7.26l-.22.29a16.36,16.36,0,0,0-2.37,2.4,4,4,0,0,1-3.23,1.41Zm19.53-6.11-.41,0a31.19,31.19,0,0,0-5.66-.23,2.31,2.31,0,0,1-1.83-.56c-1.86-1.36-3.95-5.17-4.23-9.19l1.7-.13c.24,3.46,2,6.81,3.52,7.92.4.3.58.28.59.28a32.63,32.63,0,0,1,6.09.22h.11a48.36,48.36,0,0,0,6.19-2.46l.8,1.5a48,48,0,0,1-6.72,2.65Zm0,0"/><path fill="#c82833" d="M922.42,168.32a3.47,3.47,0,0,1-1.89-.6,6.34,6.34,0,0,1-2.78-5h1.7a4.66,4.66,0,0,0,2,3.54,1.49,1.49,0,0,0,1.35.26,28.7,28.7,0,0,1,5.55-2c1-1,1.14-3.71.33-6.42l1.64-.48c.89,3,.92,6.76-1,8.35l-.17.13-.2,0a26,26,0,0,0-5.42,1.94,2.54,2.54,0,0,1-1.09.23Zm15.46,47.08a1.82,1.82,0,0,1-.38,1.49,1.84,1.84,0,0,1-1.4.65,1.81,1.81,0,0,1-1.7-1.21c-1.57-4.54-6.07-15.56-10.95-22.23-.61.12-1.37.15-2,.23,5.21,6.76,10.11,18.91,11.37,22.56a3.5,3.5,0,0,0,3.31,2.35,3.49,3.49,0,0,0,3.45-4.15l-1.89-10.23c-.62-.14-1.26-.79-1.86-1Zm-21.67-20.89c-9,0-14.62-2-14.94-5.43l1.7-.16c.21,2.29,5.66,3.88,13.24,3.88,8.33,0,11.45-.91,13.37-3.92l1.44.92c-2.55,4-7,4.71-14.81,4.71Zm35.17-26.24a4,4,0,0,1-4.08-3.83H949a2.32,2.32,0,0,0,2.37,2.13,2.53,2.53,0,0,0,1.57-.81l1.19,1.22a4.07,4.07,0,0,1-2.76,1.29Zm5.84,6.89a5.51,5.51,0,0,1,1.74-4.65,4.92,4.92,0,0,1,4.44-1.44l-.45,1.64.22-.81-.21.81a3.26,3.26,0,0,0-2.82,1,3.79,3.79,0,0,0-1.24,3.15ZM927.38,177a3.66,3.66,0,0,1-1.33-2.81c0-2.4,2.44-4.51,2.54-4.6l1.11,1.29c-.54.47-1.94,2-2,3.33a2,2,0,0,0,.75,1.51Zm-12.18,2.23a11.62,11.62,0,0,1-1.73-4.19l1.65-.42a10.46,10.46,0,0,0,1.4,3.52Zm-15.14-24.82a6,6,0,0,1-4.15-6l1.69.09a4.34,4.34,0,0,0,2.95,4.29Zm23.56-.92a2.59,2.59,0,0,0-3.81-.42l-1.18-1.23a4.18,4.18,0,0,1,2.91-1.16,4.14,4.14,0,0,1,3.52,1.9ZM905.89,181.8a3,3,0,0,0-.81-2.06,2,2,0,0,0-1.72-.23l-.36-1.66a3.57,3.57,0,0,1,3.15.57,4.64,4.64,0,0,1,1.44,3.38Zm45,7.53a3.42,3.42,0,0,1-2.51-1,3.62,3.62,0,0,1-.65-4.24l1.47.86a1.94,1.94,0,0,0,.39,2.18c.73.73,1.9.68,3.31-.12l.85,1.47a5.85,5.85,0,0,1-2.86.86Zm-12.47-2.47c-2.1-1.93-1.72-3.66-1.3-4.52a5.34,5.34,0,0,1,5-2.65l-.28,1.68a3.68,3.68,0,0,0-3.23,1.71c-.37.77-.06,1.62.92,2.53Zm0,0"/></g><g data-name="Doctor/Head/Male"><path d="M966.5,309.4S964,339.7,952,352.84s-.22-44.45-.22-44.45Z"/><path fill="#ea9d7d" d="M928,367.55c.63-2.21-2-7.61-3.6-10.72,10.86,1.67,23.78-6,30.51-19.56a4.43,4.43,0,0,0,1.29.47s1.06,28.21,7.17,28.56c7.15,6.14,30.51,26.9,25.75,36.53-4,8.08-25.56,3.91-57.71-2.3a16.14,16.14,0,0,1-8.39-4c-6.75-6.44-4.9-18-3.95-20.62C920.29,372.51,927.1,370.75,928,367.55Z"/><path fill="#d18165" d="M951.45,370.76c4.27-9.24-4.69-11.19-4.69-11.19l.07-.13c-5.92,4-12.54,5.73-18.47,4.57-.28-.05-.55-.12-.83-.19a45.92,45.92,0,0,0-3.13-7.06c10.86,1.67,23.16-6.72,29.89-20.28a2,2,0,0,0,1.91,1.19s.2,5.24.91,11.24h0c.93,7.92,2.77,17.18,6.26,17.38,9.69,8.23,33.09,29.16,28.39,38.45s-36.81,6-60.35-4.22c-3.59-1.56-6.52-3.09-8.66-4.27C937.46,397.87,947.62,379.06,951.45,370.76Z"/><path fill="#ea9d7d" d="M941.2,284.05c12.39,2.42,20,18.21,18.25,36.54h.1c3.38.66,5.38,5,4.46,9.77s-4.42,8-7.81,7.37a2.76,2.76,0,0,1-2-1c-6.88,13.88-19.53,22.11-30.53,20-13.65-2.66-18.48-19.51-14.46-40.15S927.54,281.39,941.2,284.05Z"/><path fill="#d18165" d="M959.66,324.8a4.7,4.7,0,0,1,1.8,2.35,5.43,5.43,0,0,1,.23,3.07,5.68,5.68,0,0,1-1.41,2.73,6.91,6.91,0,0,1-1.15.95,6.58,6.58,0,0,1-1.36.59,12.5,12.5,0,0,1,.65-1.27c.18-.41.42-.77.56-1.17a9.8,9.8,0,0,0,.76-2.23A13.76,13.76,0,0,0,959.66,324.8Z"/><path fill="#be3e5f" d="M915.35,343.17c10,.46,11.12-7.22,11.12-7.22a26.48,26.48,0,0,1-12.41.86S917,340.14,915.35,343.17Z"/><path fill="#d18165" d="M918.15,315.13a19.6,19.6,0,0,1,.12,6.26,10.42,10.42,0,0,1-.92,3.18c-.28.58-.55.93-.81,1.38s-.51.84-.73,1.26a5.42,5.42,0,0,0-.8,2.36,1.08,1.08,0,0,0,.29.81,2.87,2.87,0,0,0,.94.64,24.17,24.17,0,0,0,5.84,1,12.37,12.37,0,0,1-6.34.44,3.8,3.8,0,0,1-1.68-.88,3,3,0,0,1-.94-1.92,6.41,6.41,0,0,1,.93-3.44c.26-.48.54-.93.83-1.37s.62-.89.82-1.23a11.3,11.3,0,0,0,1-2.6C917.31,319.16,917.7,317.16,918.15,315.13Z"/><path d="M924.4 311a43.82 43.82 0 015.89 1.37 18.49 18.49 0 012.71 1.09c.9.42 1.71 1 2.66 1.52a6.84 6.84 0 00-2-2.52 9 9 0 00-2.88-1.55 10.59 10.59 0 00-3.2-.5A8 8 0 00924.4 311zM914.17 309.09a8.82 8.82 0 00-2.76-.65c-.18.49-.34 1-.51 1.5h0a17.82 17.82 0 012.91.29c1 .15 1.92.46 3 .71A6.92 6.92 0 00914.17 309.09zM911.83 322.69a1.51 1.51 0 001.79-1.21l.86-4.39a1.53 1.53 0 00-3-.59l-.85 4.4A1.52 1.52 0 00911.83 322.69zM927.24 323.64a1.54 1.54 0 001.8-1.22l.86-4.39a1.53 1.53 0 00-3-.59l-.86 4.4A1.54 1.54 0 00927.24 323.64z"/><path d="M966.51,305.56s-5.64-34.63-23.25-22.56c0,0-17.18-6.17-25.37,6.65s-12.08,9.54-12.08,9.54,14.15,10.42,23.8,5.18L941.69,308a8.51,8.51,0,0,1,6.1,7.88l.49,14.18a4.05,4.05,0,0,0,7.32-.27c.74-1.74,1.51-3.66,2.22-5.63C960.31,317.21,968.2,312,966.51,305.56Z"/></g><g data-name="Doctor/Bottom"><path fill="#cc7829" d="M861.83,813.86c10.81-7.91,35.5-16.73,42.4-31.5,3.71,4.54,24.08,3.33,32,3.07h0s5.88,13.23,5.23,21.93-1.38,18.38-1.38,18.38l-14.67.42.25-9.75s-8.13-1.61-13.13,2.49-18.63,8.8-32.63,6.78S851,821.77,861.83,813.86Z"/><path fill="#7c2f13" d="M941.46,805.23c0-.64-.06-1.3-.13-2a.45.45,0,0,1,0-.11c-.08-.7-.18-1.41-.3-2.12a.5.5,0,0,0,0-.12c-.12-.69-.25-1.38-.4-2.06l0-.16c-.32-1.43-.69-2.85-1.09-4.19l0-.1c-.4-1.36-.83-2.64-1.23-3.79h0c-1.08-3.08-2-5.18-2-5.18h0c-1.9.06-4.53.18-7.48.26a15.54,15.54,0,0,0-1.45,1.78c-5.15,8.63-13.25,19-25.93,26.07-13.79,7.65-28.68,9-35.69,9.72,4,1,9.18,1.69,14.22,2.42.9.13,1.79.23,2.68.31h.2c.76.06,1.51.11,2.25.13.41,0,.8,0,1.2,0s.86,0,1.29,0,.81,0,1.22,0l1.22-.05,1.21-.1c.4,0,.8-.06,1.19-.11l1.17-.14,1.16-.16,1.13-.19,1.13-.2,1.08-.22,1.09-.25,1-.26,1.06-.28,1-.28,1-.32.89-.31,1-.35.81-.31.92-.39.73-.31.87-.42.63-.31.83-.45.52-.3c.29-.17.55-.34.81-.51l.38-.24c.36-.25.7-.5,1-.75,2.82-2.31,6.62-2.8,9.4-2.8H922a21.61,21.61,0,0,1,3.67.31h0l-.25,9.75,3.81-.11,10.86-.31s-1.39-3.6.3-4c0-.55.08-1.17.13-1.81.21-2.75.47-6.18.73-9.65.07-1,.14-1.94.22-2.91,0-.63.05-1.29,0-2C941.47,805.35,941.46,805.29,941.46,805.23Z"/><path fill="#cc7829" d="M923.18,813.86c10.81-7.91,35.5-16.73,42.4-31.5,3.71,4.54,31.71,2.22,31.71,2.22s6.14,14.08,5.49,22.78-1.38,18.38-1.38,18.38l-14.67.42.25-9.75s-8.13-1.61-13.13,2.49-18.63,8.8-32.63,6.78S912.37,821.77,923.18,813.86Z"/><path fill="#7c2f13" d="M979.08,785.12c-4.17,5.51-4.92,9.41-6.82,13.48-8.3,17.73-29.74,19.76-31.71,27l.67.1c14,2,27.63-2.68,32.63-6.78S987,816.41,987,816.41l-.25,9.75,14.67-.42s.72-9.67,1.38-18.38-5.49-22.78-5.49-22.78S987.76,785.37,979.08,785.12Z"/><path fill="#ffc065" d="M1004,562.57a90.78,90.78,0,0,0,5.86-43,89.46,89.46,0,0,0-7.33-26.85s-69.81,10.36-89.34.6c0,0-15.61,138.53-16.1,150.73s6.59,139.13,6.59,139.13,19,7.65,32.63,2.44c0,0,10.74-97.31,9.11-122l.89-16.82c.54,12.2,18.24,138.08,18.24,138.08s19.53,6,32.71-.3c0,0,2.54-97.87-1.15-122.37l-.37-47Z"/><path fill="#ffaa39" d="M947.89,601.62c-2.61-30-8-58.76-9.76-58.57-1.35.14,0,15.06.48,49.3.37,27.93-.19,46.68-1,73.22-1.53,51.81-3.61,60.69-5.83,67.86a139.21,139.21,0,0,1-28.1,49.79c6.4,2.88,16.77,6.2,28.37,3.64a40.05,40.05,0,0,0,4.26-1.2s10.74-97.31,9.11-122l3.46-45.36C948.78,613.71,948.5,608.7,947.89,601.62Z"/><path fill="#ffaa39" d="M1009.89,519.61a89.46,89.46,0,0,0-7.33-26.85s-69.81,10.36-89.34.6h0c-.75,5.69,53.66,6.82,72.13,40.9,4.58,8.46,3.47,104,4.58,130.51,2.16,51.78.73,60.79-1,68.09a139.1,139.1,0,0,1-24.43,51.6v.09c1.35.49,2.86,1,4.5,1.44,5.25,1.11,14.29,2.4,22.46.56.51-.13,1-.26,1.53-.41a39.34,39.34,0,0,0,3.89-1.39l.28-.12c0-.11.12-3.18.29-8.29.52-24.08,1.7-94-1.34-114.13l-.37-47,1.05-6.71v0a.29.29,0,0,0,0-.09l7.19-45.8h0A90.78,90.78,0,0,0,1009.89,519.61Z"/><path fill="none" stroke="#fff" stroke-miterlimit="10" stroke-width="3" d="M968.55,496.48a45.53,45.53,0,0,1,1.84,5.7"/><path fill="none" stroke="#fff" stroke-dasharray="12.19 12.19" stroke-miterlimit="10" stroke-width="3" d="M972.71,514.14c1.36,10.27,1.9,24.9-.91,43.64-5.66,37.68-1.46,150.24,9,217.76"/><path fill="none" stroke="#fff" stroke-miterlimit="10" stroke-width="3" d="M981.81,781.56c.34,2,.68,4,1,5.91"/></g><g data-name="Doctor/Torso"><path fill="#ea9d7d" d="M821.55,478.7l-10.33.42s-2.24-1.79-5.29-4.11c-5.75-4.39-14.37-10.72-16.14-10.61-2.71.16-7.43,2.13,4.3,11.16l-.09.08c-.4.3-2.2,1.48-6.84,1.76-5.33.33-23.28,1.55-26.19,2.65-1.59.59-5.13,5.35,21.48,4.41a1.43,1.43,0,0,1,1.5,1.61c-.08.49-.44.93-1.41,1-2.41.15-23.21.5-22.85,4.26.26,2.74,5.7,2.07,23.95,1.26,0,0,2.89.75.58,2.24-.8.51-21.41,2.44-22.42,4.07s-3.67,4.31,27.26.93c0,0,.55.31-2.14,1.88-2.86,1.67-11.33,3.92-13.49,7.07s4.12.65,20-4.69l22.29-2.82c14.72,2.07,69.84,6.77,83.54-7.45C912,480.48,919,432.85,919,432.85l-31.38-1.05-13.13,35.54a6.9,6.9,0,0,1-5.49,4.44l-49.32,7.12"/><line x1="821" x2="821" y1="478.7" y2="500.89" fill="none" stroke="#2f170b" stroke-linecap="round" stroke-linejoin="round" stroke-width="6"/><path fill="#ef3e3b" d="M882.2,434.07l12-37.55a39,39,0,0,1,13-19,28.68,28.68,0,0,1,5.07-3.22,1,1,0,0,1,1.43.94l-1.9,58.8Z"/><path fill="#25beef" d="M882.2,434.07l12-37.55a39,39,0,0,1,13-19,28.68,28.68,0,0,1,5.07-3.22,1,1,0,0,1,1.43.94l-1.9,58.8Z"/><path fill="#1a87c4" d="M913.22,387.74l-1.5,46.33H896c-.37-11.25.47-23.68,7-37.51,4.48-9.42,7.07-9.89,8.16-9.84A3.29,3.29,0,0,1,913.22,387.74Z"/><path fill="#ea9d7d" d="M1057.69,568.4a23.73,23.73,0,0,1-.74-5.5c-.23-15.57-1.71-75-10.67-102-2.86-8.62-29.07-52.53-29.07-52.53l-37.44,7.91,33,54.79a27.38,27.38,0,0,1,3.18,7.83L1036,564.53a8.07,8.07,0,0,1-1.49,6.82c-4.23,5.43-12.6,16.46-12.47,18.48.18,2.71,2.18,7.42,11.13-4.37,0,0,1.53,1.58,1.89,6.91s1.12,25.85,2.81,26.19,5.49,5.22,4.23-22.66c0,0,2.48-1.38,2.64,1s1.54,25.3,4.4,22.84,2-5.73,1.12-24c0,0,1.86-1.49,2.22-.6s2.42,22.51,4.22,22.39,4.33,3.64.75-27.26c0,0,1-.52,2.14,2.58s5.5,16.71,6.91,13,.63-4.13-4.81-19.94l-4-17.57Z"/><path fill="#d18165" d="M979.77,416.26l8.84-1.86c6.59,8.37,14.8,14.45,25.48,30.09,8.32,12.19,13.71,24.59,16.11,29.83,6.56,14.36,5.22,21.69,9.6,57.12,2.62,21.28,3.94,31.92,5.32,37.48,0,0,9.88,39.86,5.05,49.73a2.72,2.72,0,0,1-1,1.12c-2.86,2.46-4.24-20.43-4.4-22.84s-2.64-1-2.64-1c1.26,27.88-2.54,23-4.23,22.66s-2.45-20.76-2.81-26.15h0v0c-.36-5.33-1.89-6.91-1.89-6.91-9,11.79-11,7.08-11.13,4.37-.13-2,8.24-13.05,12.47-18.48a8.07,8.07,0,0,0,1.49-6.82l-20.11-85.65a27.38,27.38,0,0,0-3.18-7.83Z"/><polygon fill="#fff" points="884.22 427.73 910.74 427.73 910.74 431.73 882.95 431.73 884.22 427.73"/><path fill="#e3eaf3" d="M895.9,427.73h14.84v4H895.89C895.87,430.41,895.87,429.08,895.9,427.73Z"/><polygon fill="#fff" points="887.15 418.53 910.25 418.53 910.25 422.53 885.88 422.53 887.15 418.53"/><path fill="#e3eaf3" d="M896.55,418.53h13.7v4h-14.1C896.25,421.21,896.38,419.88,896.55,418.53Z"/><path fill="#25beef" d="M913.35,502.23h77.51a8.42,8.42,0,0,0,8.33-9.69L980.9,371.82l-18.85-4.17c-6.73,14.27-27.45,14.92-34.07.6l-14.3,5.44a10.9,10.9,0,0,0-8.31,11.15l.15,4.51,3.57,108.75C909.1,498.4,909.18,499.86,913.35,502.23Z"/><path fill="#25beef" d="M1031.49,432.28a4.06,4.06,0,0,0,1-5.68l-28.21-39.16s-10-12.88-23.34-15.62l-7.62,39.74,27,41a1.35,1.35,0,0,0,1.91.36Z"/><path fill="#1a87c4" d="M1000.23,452.52l-26.77-40.68.06-.39a4.34,4.34,0,0,1,6.9-2.8c5.11,3.89,11.64,10.58,17.62,16.71,6.24,6.4,12.94,13.27,16.05,19.13l-12,8.39A1.35,1.35,0,0,1,1000.23,452.52Z"/><rect width="41.07" height="4" x="993.6" y="434.3" fill="#fff" transform="rotate(-35.22 1014.155 436.31)"/><path fill="#e3eaf3" d="M1009.14,437.38c.88,1.07,1.7,2.13,2.45,3.17l-13.08,9.23-1.16-1.63-1.1-1.68Z"/><rect width="40.65" height="4" x="988.05" y="425.92" fill="#fff" transform="rotate(-33.22 1008.254 427.915)"/><path fill="#e3eaf3" d="M1004.93,432.57l-12.46,8.15-1.06-1.6-1.14-1.74,11.88-7.77C1003.09,430.59,1004,431.58,1004.93,432.57Z"/><path fill="#1a87c4" d="M909.09,498.1C915,496,930.25,496,953.4,488.66c21.72-6.84,26.1-12.4,28.08-16.38,4.65-9.35,1.61-21.22.36-26.1-2.25-8.76-2.88-12.11-7.38-23.22-1.51-3.73-2-12.76,0-13.5,2.33-.86,8.92,9.2,15.65,23.17l9.08,59.91a8.42,8.42,0,0,1-8.33,9.69H913.35a4.26,4.26,0,0,1-4.26-4.13Z"/><path fill="none" stroke="#2f170b" stroke-miterlimit="10" stroke-width="2" d="M793.77,475.61s4.32,16.18,19.08,11.71"/><path fill="#ea9d7d" d="M821.55,478.73l-10.33.42s-2.24-1.79-5.29-4.1c-5.75-4.4-14.37-10.73-16.14-10.62-2.71.16-7.43,2.13,4.3,11.16l-.09.08c-.4.3-2.2,1.49-6.84,1.77-5.33.32-23.28,1.54-26.19,2.64-1.59.59-5.13,5.35,21.48,4.42a1.42,1.42,0,0,1,1.5,1.6c-.08.5-.44.93-1.41,1-2.41.14-23.21.5-22.85,4.25.26,2.74,5.7,2.07,23.95,1.26,0,0,2.89.75.58,2.24-.8.51-21.41,2.44-22.42,4.07s-3.67,4.31,27.26.93c0,0,.55.31-2.14,1.88-2.86,1.67-11.33,3.92-13.49,7.07s4.12.65,20-4.68l22.29-2.83c14.72,2.07,69.84,6.78,83.54-7.45C912,480.51,919,432.88,919,432.88l-31.38-1.05-13.13,35.54a6.9,6.9,0,0,1-5.49,4.44l-49.32,7.12"/><path fill="none" stroke="#2f170b" stroke-miterlimit="10" stroke-width="2" d="M793.77,475.64s4.32,16.18,19.08,11.72"/><path fill="#e3eaf3" d="M1054,567.23a9.21,9.21,0,0,0,7-8.8c.26-18.78.5-75.39-5.87-93.7-7.68-22.08-42.15-79.7-58-91s-36.52-11.27-36.52-11.27l9.12,276h66.24l-4.38-74.4a30.16,30.16,0,0,0,14.94,4.08A29.78,29.78,0,0,0,1054,567.23Z"/><path fill="#e3eaf3" d="M960.52,362.48l9.12,276h66.24l-3.21-54.54L1032,572l-.47-7.93a29.55,29.55,0,0,0,5.49,2.5l19.43-2.34.43,1.72a9.17,9.17,0,0,0,4.1-7.53c.27-18.79.5-75.39-5.87-93.71-7.68-22.08-42.15-79.69-58-91S960.52,362.48,960.52,362.48Z"/><path fill="#abbcca" d="M1019.92,638.49c-3-3.58-5.52-4.63-6.34-9.6-2.63-15.84,5-38.4,7.95-53.76s-6.44-40.4-6.44-40.4l14.17,17.2,2.63,12.16h-.38l4.38,74.4Z"/><path fill="#abbcca" d="M1031.51,564.09s-15.23-82.66-16.13-85.68-25.66-41.51-25.66-41.51l-17-25.81s-3.13,26.13,6.49,41.56,21.66,22.16,28.6,57.2S1031.51,564.09,1031.51,564.09Z"/><path fill="#e3eaf3" d="M927.41,362.49v276H885.33l12-136.74s-5,6.32-12,5.65c-5.84-.56-47.1-2.41-60.61-3a4.46,4.46,0,0,1-4.27-4.47V476.57a4.47,4.47,0,0,1,4-4.45c11-1.14,40.91-4.47,45.6-7.15C875.81,461.66,874.25,369.09,927.41,362.49Z"/><path fill="#abbcca" d="M902.65,420.05a42.74,42.74,0,0,1,7.05,23.05c-.05,13.23-4.69,58.37-4.89,73.6s-3.58,48.8-.81,75.93c1.91,18.74,6.28,35.86,11.41,45.86H885.33l12-136.74S904.29,439.22,902.65,420.05Z"/><line x1="820.45" x2="820.45" y1="478.23" y2="500.41" fill="none" stroke="#2f170b" stroke-linecap="round" stroke-linejoin="round" stroke-width="6"/><path fill="#7c2f13" d="M987.05,638.48h100.88V591.72a7.33,7.33,0,0,0-7.33-7.33H994.38a7.33,7.33,0,0,0-7.33,7.33Z"/><polygon fill="#cc7829" points="1087.93 638.48 1087.93 627.62 1076.96 638.48 1087.93 638.48"/><polygon fill="#cc7829" points="987.05 638.48 987.05 627.62 998.02 638.48 987.05 638.48"/><path fill="#cc7829" d="M1087.93,591.72v2.67H987.05v-2.67a7.33,7.33,0,0,1,7.33-7.33h86.22A7.33,7.33,0,0,1,1087.93,591.72Z"/><path fill="#ea9d7d" d="M1021.46,588.22c.18,2.71,2.18,7.41,11.13-4.37l.08.09c.3.39,1.5,2.19,1.81,6.82.36,5.33,1.7,23.27,2.81,26.18.61,1.58,5.39,5.1,4.28-21.51a1.44,1.44,0,0,1,1.6-1.51c.49.08.93.44,1,1.4.16,2.41.65,23.22,4.4,22.83,2.74-.28,2-5.72,1.11-24,0,0,.73-2.9,2.23-.6.52.8,2.58,21.4,4.22,22.4s4.33,3.64.75-27.27c0,0,.31-.55,1.9,2.14,1.69,2.85,4,11.29,7.15,13.43s.63-4.12-4.81-19.93l-4-17.57-.21-.83a9.41,9.41,0,0,1-2.85,1.27,29.44,29.44,0,0,1-7.56.93,30.07,30.07,0,0,1-9.45-1.58l-1,.11S1034.27,569,1032,572C1027.61,577.79,1021.34,586.45,1021.46,588.22Z"/><polygon fill="#cc7829" points="1032.05 584.56 1022.82 584.56 1017.37 590.75 1025.69 593.15 1031.55 591.29 1032.05 584.56"/><path fill="none" stroke="#2f170b" stroke-linecap="round" stroke-linejoin="round" stroke-width="5" d="M924,364s-6,9-5.23,39.3"/><path fill="#abbcca" d="M918.21,446.22l-.93-1.27c-.94,1.1-1.84,2.08-2.69,2.93-4.43,4.45-7.9,6.13-10.62,5.12a2.5,2.5,0,0,1,1.66-4.72h0c1.5,0,4.93-3.14,8.72-7.74-6.83-10.92-14.27-27.48-10.16-35,.84-1.55,3-4.09,7.76-3.76l14.6,1c3.4.23,5.86,1.94,6.93,4.8,3,7.88-5.21,23.06-12.91,33.29,3.58,5.22,6.95,8.9,8.56,9.06a2.5,2.5,0,0,1,1,4.9,4.65,4.65,0,0,1-1,.13C927.35,454.94,924,453.84,918.21,446.22ZM908,410.11c-.47,6.73,4.34,17.53,9.59,26.18,5.64-7.75,11.09-17.61,11.45-24.38.2-3.65-1.31-4.06-2.87-4.17l-14.61-1-.59,0C909.27,406.71,908.23,407.39,908,410.11Z"/><ellipse cx="903.47" cy="450.64" fill="#2f170b" rx="3.6" ry="3.09" transform="rotate(-86.03 903.448 450.64)"/><ellipse cx="931.48" cy="452.58" fill="#2f170b" rx="3.6" ry="3.09" transform="rotate(-86.03 931.461 452.588)"/><path fill="none" stroke="#2f170b" stroke-linecap="round" stroke-linejoin="round" stroke-width="5" d="M964.27,362.64s12.46,22.73.51,72.67"/><circle cx="964.22" cy="435.99" r="8.96" fill="#2f170b"/><circle cx="964.22" cy="435.99" r="5.7" fill="#abbcca"/><circle cx="964.22" cy="435.99" r="2.64" fill="#2f170b"/></g></g></svg>