<svg xmlns="http://www.w3.org/2000/svg" viewBox="0 0 3000 2432" width="3000" height="2432"><g transform="translate(2038.3783783783786 193.7837837837838) rotate(0.0 425.2702702702703 1031.3513513513515) scale(0.8611542668798347 0.8609356052993791)"><svg width="987.675" height="2395.885" viewBox="0 0 987.675 2395.885"><linearGradient id="a"><stop offset=".354" stop-color="#7c3939"/><stop offset=".994" stop-color="#744747"/></linearGradient><linearGradient xmlns:xlink="http://www.w3.org/1999/xlink" id="b" gradientTransform="matrix(.0554 .0276 -.0276 .0555 678.595 2452.6772)" gradientUnits="userSpaceOnUse" x1="-16121.177" x2="-15100.308" xlink:href="#a" y1="-32558.986" y2="-32558.986"/><linearGradient xmlns:xlink="http://www.w3.org/1999/xlink" id="c" gradientTransform="matrix(-.0588 -.0193 .0193 -.0589 316.8553 2713.3457)" gradientUnits="userSpaceOnUse" x1="8139.912" x2="8750.028" xlink:href="#a" y1="39695.707" y2="39695.707"/><path d="M790.29 2097.805v86.142h92.66l5.927-96.164zm-316.531-4.255-7.434 85.821 92.314 7.997 14.204-95.294z" fill="#774647"/><path d="M563.893 821.155c17.85 188.17 116.85 553.17 149.85 724.17 29.85 154.68 64.547 585.48 64.547 585.48 0 13 115 11 117-3 28.53-214.65 26.003-346.08 22.363-432.34-4.23-100.4-20.92-139.14-28.35-175.04v-.02c-1.16-5.57-2.09-11.07-2.71-16.72-8.15-73.64-11.474-132.299-1-366.12 12.15-271.24-106.85-352.24-106.85-352.24z" fill="#242929"/><path d="M447.743 1559.324c4 98 11.547 564.48 11.547 564.48 1 11 115 18 117 6 41-232 54.653-415.96 34.453-567.48-2.63-19.72 5.8-91.26 17.72-178.08 19.5-142.04 48.32-325 53.28-388.92 5.97-76.81 2-120-8-176l-173-22c-114 178-58.09 637.22-53 762z" fill="#242929"/><path d="M607.743 1014.324c-7.971-42.798 4.327-185.904 4.327-185.904l5.673-.096s-12 141-3 192c.866 4.907-6.088-1.102-7-6zM520.658 868.78s-13.915 45.544-17.915 48.544-43 25-43 27 47.419-14.419 49-16c6-6 21.83-85.088 11.915-59.544z" fill="#1a2a42"/><path d="M837.232 1547.645c17.476-3.867-2.774 20.348-35.891 22.974-35.502 2.816-57.334-16.188-38.379-15.814 23.839.471 34.918 1.549 74.27-7.16zm-314.264 8.842c13.36-1.981-3.44 16.968-28.444 16.755-26.804-.228-41.902-17.867-27.716-16.161 17.841 2.146 26.076 3.868 56.16-.594z"/><path d="M941.586 2384.307c-1.447 2.865-6.837 4.681-16.608 6.268-1.148.189-4.751-4.162-5.988-3.992-1.547.209-5.31 5.799-6.987 5.989-8.673.968-13.604.688-24.952.998-1.597.04-6.348-5.02-7.985-4.99-2.266.04-6.657 5.969-8.983 5.989-11.647.1-18.504-.549-30.94-.998-1.867-.07-6.118-5.908-7.985-5.989-2.295-.1-7.685 6.108-9.981 5.989-9.642-.489-15.909-1.587-25.052-2.375-2.226-.19-4.711-6.398-6.887-6.607-2.495-.24-6.567 5.25-8.983 4.99-7.785-.838-10.31-1.936-16.967-2.994-1.916-.3-6.188-6.667-7.985-6.987-1.946-.349-8.184 4.362-9.981 3.992-11.458-2.346-15.84-3.673-19.113-6.727 0 0-4.482-35.981-.529-41.51 3.953-5.539 12.536-9.961 12.536-9.961.24-2.615.499-5.14.789-7.575 3.683-30.621 11.847-47.599 23.555-60.693 2.386-2.665 4.921-5.17 7.595-7.595 7.007-5.15 13.434-60.074 13.774-72.44.25-6.527 8.304-13.075 17.286-2.096 14.971-33.935 56.89-29.942 71.862-.998 5.988-6.987 14.223-5.33 14.622 1.447 1.877 27.238 9.881 70.085 17.197 76.353a86.377 86.377 0 0 1 4.462 4.102c14.312 14.153 24.163 34.404 24.503 67.929.01 1.088.01 2.186 0 3.293 0 0 9.811 10.48 11.977 21 2.165 10.517-4.252 36.188-4.252 36.188z" fill="#4b4b4c"/><g fill="#242929"><path d="m909.358 2255.894-.349 2.934-40.612-25.092 4.681-59.745c5.988-6.987 14.223-5.33 14.622 1.447 1.877 27.238 9.881 70.085 17.197 76.353a87.707 87.707 0 0 1 4.461 4.103zm32.228 128.413c-16.872 17.991-188.701 14.643-215.375-7.446 0 0-4.482-35.981-.529-41.51 3.953-5.539 12.536-9.961 12.536-9.961.24-2.615.499-5.14.789-7.575l194.855 6.008c.01 1.088.01 2.186 0 3.293 0 0 9.811 10.48 11.977 21 2.164 10.52-4.253 36.191-4.253 36.191zm-133.384-146.438-45.642 19.253c2.386-2.665 4.921-5.17 7.595-7.595 7.007-5.15 13.434-60.074 13.774-72.44.25-6.527 8.304-13.075 17.286-2.096z"/></g><path d="M807.177 2228.637s37.161-5.483 61.512 1.376c2.393 6.858-1.599 13.845-1.599 13.845l-62.879-.998v-13.4z" fill="#381e17"/><path d="M738.22 2325.394c21.077 29.25 169.79 30.248 195.635 1.724 0 0 8.089-46.331-30.675-77.418-33.719-27.041-102.962-24.805-131.57-1.954-5.759 4.6-35.269 30.046-33.39 77.648z" fill="#4b4b4c"/><path d="M855.68 2220.744c21.642-.855-49.648-6.322-52.423-6.85-2.775-.529-4.678-1.789-3.778-4.632 2.782-11.415 64.375-3.843 65.549-7.208 0-2.524-50.587-3.607-64.938-5.205-7.145-.589-2.121-5.889 0-5.889 29.358 0 66.872 5.128 71.514 6.887 5.312 2.013 3.523 9.254-2.349 9.254-23.486 1.683-56.458-4.641-60.109 2.443-.568 1.101 6.99 1.532 10.218 1.756 1.99.137 53.661 1.143 55.526 8.988.781 2.186-2.997 5.051-5.474 4.977-17.996-.201-61.9 3.984-64.514 4.552-2.614.567-6.708-2.534-3.523-4.207.001 0 .796-2.768 54.301-4.866z" fill="#190d0b"/><path d="M580.196 2238.261c3.094 24.544 1.826 64.415-3.384 83.538 6.847.908 10.09 4.561 11.019 8.923 1.656 7.815-4.102 17.915-9.871 18.554-7.775 1.038-16.558 1.916-25.72 2.625-3.194.25-8.214-6.617-10.21-6.617s-6.457 7.715-9.941 7.885c-10.51.519-20.91.808-30.321.858-1.777.01-3.583-2.276-5.18-4.362-1.348-1.767-2.555-3.384-3.464-3.384-.858 0-2.136 1.407-3.493 3.004-1.816 2.116-3.803 4.561-5.21 4.511-11.867-.449-19.872-1.517-20.68-3.264-1.427-3.094-.559-20.221-.559-20.221-10.979.888-36.889.998-50.752.389h-.03v.12c0 .11 0 .29-.01.529-.05 3.084-.449 16.428-3.433 24.333-.958 2.515-13.214 4.142-31.06 5.17-2.665.15-6.537-8.583-8.533-8.583s-6.358 9.262-9.791 9.382c-10.161.329-27.218.529-38.516.649-1.867.02-5.709-9.053-7.585-9.033-1.867.02-6.118 8.973-7.985 8.983-15.62.09-23.624.09-36.929 0-2.565-.02-6.567-7.985-8.983-7.985-1.996 0-6.537 8.015-8.983 7.985-17.696-.18-28.096-.589-29.703-.609-35.452-.459-26.31-37.837-11.099-37.837h.289c2.215-.209-16.789-48 11.19-84.464 21.22-27.656 74.021-48.536 139.171-19.425h.04c.878.07 2.545-.369 4.85-1.248a69.738 69.738 0 0 0 3.214-1.338c18.833-8.354 62.869-35.521 80.644-61.951 4.831-7.176 31.938-8.983 30.94 17.966 37.927-26.948 95.07-6.183 96.161 13.459 1.001 18.002 1.222 30.151 3.907 51.458z" fill="#4b4b4c"/><path d="M412.399 2330.702s-.05 16.009-3.444 24.982c-2.93 5.28-55.371 10.858-188.067 5.959-35.452-.459-26.31-37.837-11.099-37.837h.289c.001-.001 47.739 15.259 202.321 6.896zm165.561 18.574c-12.378 3.877-102.756 9.456-114.22 1.258-1.427-3.094-.559-20.221-.559-20.221s84.537.938 113.631-8.514c19.114 2.525 10.131 26.479 1.148 27.477z" fill="#242929"/><path d="M580.196 2238.261c-16.129-4.801-59.026-1.876-88.09 19.922-35.931 26.948-27.398 70.503-28.925 72.13-10.979.888-36.889.998-50.752.389h-.03v.12c0 .11 0 .29-.01.529-.04-.01-.079-.03-.11-.04 4.99-86.833-51.799-111.394-51.799-111.394l13.853-5.649 12.975 11.977c39.923-9.981 92.821-52.898 92.821-52.898 37.927-26.948 92.161-12.541 96.161 8.459 3.017 15.839 3 35.999 3.906 56.455z" fill="#242929"/><path d="M398.757 2229.829c7.275 8.674-7.221-26.287-7.424-27.892s.683-3.397 4.195-5.202c13.857-7.604 23.126 24.799 27.314 22.71 2.885-1.947-9.599-22.602-11.949-30.024-1.406-3.535 4.545-7.251 6.732-4.542 7.611 9.427 12.6 30.799 11.94 34.158-.755 3.844-9.553 8.657-11.262 6.125-8.758-8.831-11.124-27.928-20.284-24.039-1.423.604.283 4.196.967 5.761.423.964 14.308 24.024 5.884 30.878-2.272 2.023-6.384 2.408-7.282 1.478-2.682-2.778-22.577-23.602-23.977-24.312-3.27-1.659 1.827-7.123 5.713-5.652 2.927 1.109 5.988 3.993 19.433 20.553z" fill="#190d0b"/><path d="M647.381 1251.418s-40.091-194.613-43.091-193.613 33.181 262.29 33.181 262.29z"/><path d="M96.923 501.224c1.5 6.17 71.95 83.71 132.18 131.11l.01.01c41.53 32.7 84.38 59.15 111.11 57.19 35.46-2.6 99.65-43.34 156.2-88.86l.01-.02c53.92-43.4 100.88-91.15 109.31-114.33 17.28-47.47-30.453-117.52-30.453-117.52-71 6-205.137 129.36-239.267 159.66-4.32 3.84-6.7 6-6.7 6s-159.33-96.47-166.37-99.33-68.57 55.68-66.03 66.09z" fill="#e6e6ef"/><path d="M329.323 534.465c5.42 2.86 18.42 10.86 26.42 17.86 4.31 3.77 3.84-2.87-19.72-23.86-4.32 3.839-6.7 6-6.7 6z" fill="#c6c6ce"/><path d="M96.758 489.12c-31.97-10.387-43.183-14.633-66.372-31.473-36.081-26.182-32.166-41.339-27.241-47.725 1.884-2.449 3.929-3.605 3.929-3.605-5.978-10.124-4.163-20.227.397-24.41 1.72-1.583 3.831-2.326 6.057-1.909-5.578-11.522-1.697-21.92 5.715-24.571 2.032-.722 4.339-.87 6.774-.291-8.129-12.164 1.885-25.021 13.572-21.915 21.817 5.793 47.785 22.266 64.26 30.362 26.023 12.778 44.597 66.84 52.029 80.27 5.99 12.353-36.833 51.75-59.12 45.267z" fill="#744747"/><path d="M21.098 436.455s43.716 9.812 45.843.827c1.332-5.627-10.249-11.933-12.823-13.002 4.047 1.25 7.896 2.307 11.048 2.934 11.403 2.243 16.145-6.179 5.715-15.621-2.259-2.045-3.969-3.316-6.296-5.659 16.787 6.249 22.334-3.857 5.355-16.904-13.698-11.432-9.961-7.127-20.884-17.407-11.108-9.138-14.173-19.352-14.092-25.351.132-9.786 5.73-12.856 5.73-12.856s18.318 4.152 66.472 31.663c9.784 5.591 21.426 26.628 21.426 26.628s-21.441 37.032-21.447 54.389a28.77 28.77 0 0 0-33.556-8.527c-7.389 2.927-6.605 6.839-12.372 8.628-11.491 3.559-40.119-9.742-40.119-9.742z" fill="#633b3b"/><path d="M44.975 336.871c-11.841-2.487-6.891 24.563 15.78 36.081 42.713 21.699 25.982 38.825 39.968 71.269 8.766 20.336 33.865 16.425 43.579 5.209a56.653 56.653 0 0 0 7.235-11.304c-11.724-26.94-29.012-61.883-41.056-70.649.008.001-54.094-28.21-65.506-30.606z" fill="#744747"/><path d="m60.829 427.14-57.68-17.207-.005-.011c1.884-2.449 3.929-3.605 3.929-3.605l47.043 17.959zm3.761-21.208L7.471 381.906c1.72-1.583 3.831-2.326 6.057-1.909zm-2.78-23.479-42.568-27.026c2.032-.722 4.339-.87 6.774-.291l25.312 18.614z" fill="#633b3b"/><path d="M52.604 376.608s31.959 18.394 27.139 28.468c-5.813 12.147-40.471-11.206-40.471-11.206z" fill="#744747"/><path d="M43.491 395.527s38.525 13.509 32.825 27.969c-4.828 12.248-48.06-9.093-48.06-9.093z" fill="#744747"/><path d="M36.84 419.008s30.134 6.847 30.198 17.424-45.94.023-45.94.023z" fill="#744747"/><path d="M73.328 410.493 7.471 381.906c1.72-1.583 3.831-2.326 6.057-1.909zM60.829 427.14l-57.68-17.207-.005-.011c1.884-2.449 3.929-3.605 3.929-3.605l47.043 17.959z" fill="#633b3b"/><path d="M78.603 384.375s-2.018 3.271-5.98 3.114-24.137-13.495-24.137-13.495l-22.502-18.622c-8.489-11.451.525-28.203 18.809-21.022l35.79 47.337z" fill="#744747"/><path d="m72.07 388.895-52.828-33.468c2.032-.722 4.339-.87 6.774-.291l25.312 18.614zM44.793 334.35s-1.833-1.532-6.73.603c-3.918 1.708-2.562 12.549 5.351 25.641 8.364 13.837 24.512 16.121 35.462 25.482l.853-6.347z" fill="#633b3b"/><path d="M44.793 334.35c-11.841-2.487-6.709 27.084 15.962 38.602 42.713 21.699 25.982 38.825 39.968 71.269 8.766 20.336 33.865 16.425 43.579 5.209a56.653 56.653 0 0 0 7.235-11.304c-11.724-26.94-29.012-61.883-41.056-70.649.008.001-17.443-13.366-65.688-33.127z" fill="#744747"/><path d="M229.113 632.344c41.53 32.7 84.38 59.15 111.11 57.19 35.46-2.6 91.067-37.73 137.067-74.73 12-110 49-176 46-182-34 45-53.73 160.33-57 166-7.49 13-113.522 75.97-127.547 76.52-51 2-108.41-42.59-109.63-42.98z" fill="#c6c6ce"/><path d="M784.29 363.805s-224.21-3.387-231.799 10.452c-50.201 91.548-59.981 134.923-49.748 254.068 3.292 38.326 2.987 96.344-18.453 193.48-24.153 109.425 241.659 62.514 251 45 4.625-8.672 97-23 129-17-10-96-14.935-202.899-13.547-213.48 13.547-165.52-45.751-268.369-66.453-272.52z" fill="#a0b5f4"/><path d="M630.29 365.805c-19.419 1.062-44-2-77.39 7.816-84.61 111.184-74.61 271.184-82.61 378.184-6.099 81.572-47 232-56 602-.559 22.993 62.694 32 93 32 14 0 41-805 123-1020zm268 1019c-4.55 8.53-73.18 10.71-145.88 10.43-6.29-.24-21.81-235.39-32.67-492.5v-.01l-.3-7.25c-.03-.55-.05-1.1-.07-1.65-1.53-36.73-2.97-73.86-4.26-110.76-.12-3.31-.24-6.63-.35-9.93-5.36-155.47-8.19-306.02-5.47-405.33 85-4 98 1 98 1 20.7 4.15 72.45 46.52 43.45 267.52-.64 4.9 3.07 35.38 9.04 82 .35 2.7.7 5.45 1.06 8.26 4.47 34.89 10.05 77.86 15.94 125.38.41 3.32.83 6.67 1.25 10.04 2.72 22.14 5.5 45.18 8.26 68.8.37 3.13.72 6.28 1.07 9.45.81 7.26 1.57 14.63 2.29 22.09 6.64 36.46 19.64 97.46 7.39 99.64.15 2.72.29 5.44.43 8.17 8 154.13 4.35 308.04.82 314.65z" fill="#e6e6ef"/><path d="M897.47 1070.155c-16.92 1.2-73.46 4.74-86.18-.35-15-6-18.72-123.52-18.72-123.52h1.87l.02.18.06.51c.26 2.39 1.19 10.73 2.57 21.92 3.95 32.26 11.54 88.25 17.2 93.91 6.76 6.76 64.85 1.1 82.75-.82.15 2.72.29 5.44.43 8.17z" fill="#c6c6ce"/><path d="m889.65 962.345-92.56 6.55-2.57-21.92-.06-.51-.02-.18 92.92-6.03c.81 7.26 1.57 14.63 2.29 22.09z" fill="#c6c6ce"/><path d="m563.611 613.611-65.846-5.338a4.155 4.155 0 0 1-3.806-4.477l3.563-43.954a4.155 4.155 0 0 1 4.477-3.806l65.846 5.338a4.155 4.155 0 0 1 3.806 4.477l-3.563 43.954a4.153 4.153 0 0 1-4.477 3.806z" fill="#fff"/><path d="m536.276 566.386-7.074-.573a.84.84 0 0 1-.77-.906l1.874-23.116a.84.84 0 0 1 .906-.77l7.074.573a.84.84 0 0 1 .77.906l-1.874 23.116a.842.842 0 0 1-.906.77z" fill="#572c21"/><path d="m558.183 583.671-50.967-4.132a1.5 1.5 0 0 1-1.374-1.616l.112-1.385a1.5 1.5 0 0 1 1.616-1.374l50.967 4.132a1.5 1.5 0 0 1 1.374 1.616l-.112 1.385a1.5 1.5 0 0 1-1.616 1.374zm-18.225 11.799-33.2-2.691a1.5 1.5 0 0 1-1.374-1.616l.112-1.385a1.5 1.5 0 0 1 1.616-1.374l33.2 2.691a1.5 1.5 0 0 1 1.374 1.616l-.112 1.385a1.5 1.5 0 0 1-1.616 1.374z" fill="#c6c6ce"/><g><path d="M646.172 1006.71c1.202 5.292-2.116 10.552-7.406 11.75l-182.91 41.027c-5.146.503-9.668-1.78-11.236-5.781-.074-.182-2.649-6.3-6.954-16.534-24.047-57.112-102.148-242.554-102.109-243.538-1.262-5.28 2-10.573 7.28-11.83l149.062-35.012 41.08-9.645a9.822 9.822 0 0 1 11.423 6.026c.073 1.046 102.068 262.673 101.77 263.537z" fill="#a02b42"/><path d="M333.465 793.037c-.017.385 10.523 28.825 24.837 66.85v.01c22.628 60.087 54.671 144.073 69.392 179.041 4.31 10.241 6.881 16.352 6.956 16.541 1.564 4 6.09 6.28 11.234 5.776l182.912-41.023c5.287-1.199 8.61-6.455 7.41-11.752.29-.868-101.702-262.487-101.777-263.533a9.825 9.825 0 0 0-11.42-6.03l-41.08 9.646-141.193 32.645c-5.273 1.259-8.539 6.547-7.271 11.83z" fill="#e2565d"/><path d="M390.522 752.27c-.006.076.193.707.59 1.852 1.399 4.018 5.285 14.423 11.85 30.022 1.515 3.592 2.412 5.745 2.437 5.804.553 1.406 2.139 2.206 3.953 2.04l66.21-15.247a3.434 3.434 0 0 0 2.599-4.118c.033-.5-14.279-37.706-14.302-38.074a3.456 3.456 0 0 0-4.015-2.11l-14.422 3.386-52.347 12.295a3.437 3.437 0 0 0-2.553 4.15z" fill="#b73b4d"/><path d="M358.3 859.898c22.629 60.087 54.672 144.073 69.393 179.041 4.31 10.241 6.881 16.352 6.956 16.541 1.564 4 6.09 6.28 11.233 5.776l182.913-41.023s-160.045-25.503-168.227-27.9c-8.179-2.41-102.267-132.435-102.267-132.435z" fill="#ce4653"/><path d="M391.11 754.122c1.4 4.018 5.286 14.423 11.85 30.022 1.516 3.592 2.413 5.745 2.438 5.804.553 1.406 2.139 2.206 3.953 2.04l66.21-15.247s-57.782-.468-60.663-.66-23.787-21.96-23.787-21.96z" fill="#a02b42"/></g><path d="M663.2 825.03c-28.678-7.887-103.989-11.612-134.095-3.275-34.562 9.57-69.864 36.293-71.659 38.951-1.793 2.659 2.966 11.245 20.762 5.622 10.562-3.338 20.717-8.203 31.287-12.215 14.477-5.496 46.573-1.034 46.573-1.034s-16.958 5.53-38.496 20.027c-7.497 5.046-23.878 60.039-23.726 63.451.151 3.412 4.728 4.696 8.845 3.703 8.626 7.905 16.502 7.958 23.667.566 22.47 11.084 41.275-18.804 75.949-31.191 15.306 9.45 65.523.223 81.795-21.727 7.664-10.341-10.4-59.99-20.902-62.878z" fill="#774647"/><path d="M566.328 843.853c-2.94-.87-7.49-2.06-12.93-2.92-9.69-1.54-22.2-2.07-33.41 1.99-7.37 2.67-20.39 8.73-31.57 14.12-9.54 4.61-17.74 8.74-19.9 9.83-.37.18-.56.28-.56.28s.16-.01.47-.02c1.61-.1 7.11-.52 13.42-2.02h.01c4.04-.96 7.37-1.91 10.2-2.84 12.95-4.23 15.3-7.91 25.66-9.49 12.47-1.9 27.67-.8 34.59-.12 1.16.12 2.09.22 2.73.29.31.04.55.07.72.09.06.01.1.01.14.02.11.01.17.02.17.02l10.63-6.2 3.22-1.88s-1.31-.48-3.59-1.15zm3.8 29.03c-5.65.89-13.09 2.34-20.07 4.53-6.3 1.98-12.23 4.57-16.15 7.93-.44.37-.86.76-1.25 1.16-2.81 2.88-11.43 16.97-19.17 30.05-2.79 4.71-5.46 9.28-7.7 13.15-3.72 6.39-6.27 10.87-6.27 10.87.23 0 .48.01.75.01.12 0 .24 0 .37-.01.61-.01 1.3-.09 2.05-.31 0 0 19.29-28.34 37.95-45.79 2.35-2.2 4.87-4.25 7.45-6.14.35-.27.71-.53 1.07-.78 7.53-5.39 15.46-9.48 21.33-12.17 5.38-2.44 9.01-3.71 9.01-3.71s-3.83.34-9.37 1.21zm18.92 13.16c-3.52 1.21-8.58 3.04-13.94 5.28-.7.29-1.4.59-2.11.89-8.03 3.46-16.36 7.73-20.91 12.1-1.62 1.55-3.25 3.31-4.85 5.18-10.74 12.56-20.52 30.67-20.87 31.31.41-.49 8.81-10.69 20.08-22.09 2.94-2.98 6.09-6.04 9.34-9.03 6.56-6.03 12.53-10.69 17.7-14.27 2.12-1.46 4.1-2.75 5.93-3.86 4.01-2.46 7.31-4.13 9.74-5.23 1.86-.86 3.22-1.37 4-1.65-.82.26-2.25.73-4.11 1.37z" fill="#633b3b"/><path d="M765.29 363.805s81-7 122 46c50.456 65.224 112.129 307.928 98.453 376.02-11.553 57.523-297.024 118.915-307.512 116.707s-36.722-82.984-31.105-88.096 202.043-89.232 202.043-89.232l-29.426-115.88s-59.091-227.35-54.453-245.519z" fill="#e6e6ef"/><path d="M878.03 862.005c-11 2.91-102.68 27.14-158.29 40.72l-.3-7.25c56.26-14.51 147.05-40.7 157.34-43.51.41 3.32.83 6.67 1.25 10.04zm-17.19-135.42c-8.16-1.44-16.26-2.6-19.11-1.46-17.62 8.96-77.68 35.61-126.62 57.94-.12-3.31-.24-6.63-.35-9.93 51.4-25.42 110.41-55.56 110.98-61.81.44-4.76-42.45-217.52-34.45-216.52 4.09.51 26 145 55.44 220.31 4.44.66 8.89 1.82 13.05 3.21 9.88 3.3 18.15 7.89 20.96 10 4.03 3.02-7.99.34-19.9-1.74z" fill="#c6c6ce"/><path d="M633.208 292.349s-.917 26.456-2.917 73.456c0 10 12.856 22.983 30 25 17 2 40-5 49.373-23.461 0 0-1.373-51.539-.373-89.539z" fill="#774647"/><path d="m633.208 292.349 76.037-15.853-.437 70.801-76.007-27.163z" fill="#633b3b"/><path d="M792.826 188.202c26.786 5.807 27.391 46.232-5.659 60.62-10.264 4.469-27.225 9.091-35.77 5.364-5.008 10.16-13.55 27.986-47.687 43.075-7.237 3.199-33.827 19.222-74.751 12.725-6.372-1.011-36.96-10.234-55.678-41-27.586-45.337 1.65-96.738 3.599-100.137-1.665-8.458-6.544-33.966 11.989-64.71 34.257-49.229 86.715-48.181 104.194-42.519 6.615 2.144 62.631 20.188 76.348 73.664 10.025 39.082.463 59.061 1.629 58.5 9.396-4.52 14.639-7.131 21.786-5.582z" fill="#774647"/><path d="M618.498 201.063c-2.48 1.12-4.45 4.15-4.38 6.98.1 3.84 3.95 6.31 5.73 7.45 7.6 4.87 19.68 4.84 21.23 1.28 2.15-4.93-14.63-19.3-22.58-15.71zm91.65-131.99c-35.2-11.15-61.71-7.71-81.19.92-22.15 9.81-40.49 37.67-48.28 50.98-.01 0-.01.01-.01.01 0 .01-.01.01-.01.02-2.58 4.41-3.99 7.22-3.99 7.22s.58-.02 1.66-.1c.75-.05 1.75-.13 2.96-.25 15.14-1.5 63.91-9.11 91.54-46.27 0 0 .22 28.17 14.08 57.81 2.25 4.82 4.87 9.68 7.9 14.47 7.61 12 17.85 23.52 31.64 32.75.72.48 1.45.96 2.19 1.43 1.64 1.04 3.34-2.11 4.78-7.98v-.01c.61-2.53 1.18-5.57 1.68-9 4.46-30.98 2.7-93.72-24.95-102z" fill="#633b3b"/><ellipse cx="675.237" cy="179.526" fill="#020202" rx="9.076" ry="9.703" transform="matrix(.0399 -.9992 .9992 .0399 468.9125 847.0622)"/><ellipse cx="597.341" cy="173.148" fill="#020202" rx="9.076" ry="9.703" transform="matrix(.0399 -.9992 .9992 .0399 400.5008 763.1064)"/><path d="M739.312 225.779c6.762-15.898-.835-34.202-16.967-40.884-16.133-6.682-34.691.788-41.453 16.685s.835 34.202 16.967 40.884c16.132 6.683 34.691-.787 41.453-16.685z" fill="url(#b)" opacity=".61"/><path d="M573.495 185.604c-2.493 5.68-4.935 12.9-6.786 20.901-1.795 7.759-2.296 14.798-2.768 20.911 0 0 7.635 7.192 17.663 6.396 1.298-.103 5.725-.629 10.177-3.353 11.369-6.958 15.651-22.417 8.748-34.055-8.5-14.333-27.034-10.8-27.034-10.8z" fill="url(#c)" opacity=".61"/><path d="M730.878 159.313c-4.18-5.61-15.85-12.12-28.61-16.27-5.08-1.65-10.34-2.93-15.36-3.63-8.26-1.16-15.9-.76-21.14 2.1-2.71 1.48-6.63 8.35 3.02 9.16 9.75.82 18.45 1.97 26.02 3.21 5.34.87 10.13 1.78 14.34 2.65 16.54 3.39 24.19 6.08 21.73 2.78zm-116.07-17.7c-6.7-8.73-26.64-8.18-36.42-3.69-.92.42-1.73.88-2.45 1.36h-.01c-.5.34-.94.69-1.33 1.05-.84.78-.46 1.19 1 1.48.6.12 1.38.22 2.34.32 5.65.58 17.4 1.14 33.52 5.47 5.63 1.51 4.62-4.33 3.35-5.99z"/><path d="M655.327 19.149C745.22-36.407 856.52 37.51 846.686 130.866c73.719 7.954 83.641 91.011 60.211 118.211 68.771 51.513 41.139 159.2-49.4 178.11-75.881 15.849-129.616-15.036-148.207-59.382.377-17.025-1-56-1-72.8 26.373-15.921 35.653-32.519 40.038-52.291 11.326-15.766 21.3-35.079 22.967-60.927 1.214-18.821-15.026-10.188-42.326-.032-42.18-41.086-32.748-88.538-59.443-117.271-20.23 31.377-46.528 46.239-77.709 47.812-24.27 25.662-8.892 48.945-11.641 53.7-31.863 63.453-18.235 124.997 52.814 144.609.043 9.853-.7 28.2-2.7 55.2-38.118-.08-62-2-112 23-24.399-3.225-67.446-57.335 1.724-157.987-2.747-38.29-2.944-76.848 4.216-109.589C542.509 58.94 586.112 8.361 655.327 19.149z"/><path d="M551.34 73.313s-49.281 56.878-52.246 95.798 52.217 101.918 52.217 101.918-46.422-70.609-43.739-98.65c2.683-28.04 43.768-99.066 43.768-99.066z"/><path d="M672.35 243.293c2.089 1.221-20.525 30.718-37.351 29.932-18.933-.884-36.185-27.015-34.39-35.152 1.287-5.83 68.217 3.159 71.741 5.22z" fill="#fff"/><path d="M672.35 243.293c-8.682-8.026-69.5-10.828-73.101-6.693-4.437 5.092 30.294 6.325 45.162 7.323 32.977 2.211 28.177-.411 27.939-.63z" fill="#633b3b"/><path d="M753.041 175.534c7.446-6.986 11.69-9.692 18.81-10.334 26.689-2.406 38.959 33.982 12.329 57.124-8.27 7.187-21.993 14.545-35.641 20.018z" fill="#744747"/><path d="M763.443 165.821c-9.489 8.551-30.065 25.308-30.648 34.091-.723 10.894 10.486 8.636 13.329 19.653 2.526 9.785-2.383 20.199-18.508 26.773 4.002-1.822 16.768-8.962 13.119-22.607-2.897-10.837-19.509-11.481-17.191-27.329 1.057-7.231 6.215-17.588 10.427-25.118zm143.454 83.256s56.987 34.62 60.084 68.969c1.606 17.811-24.203 44.505-59.72 63.098 0 0 52.626-39.361 49.313-64.725-4.139-31.689-49.677-67.342-49.677-67.342z"/></svg></g><g transform="translate(844.0540540540541 718.3783783783784) rotate(0.0 291.4864864864865 750.8108108108108) scale(0.8508194412834001 0.8502650367634799)"><svg width="685.19" height="1766.063" viewBox="0 0 685.19 1766.063"><path d="M645.813 292.345h-36.767v-209h44.318c18.653 0 33.306 15.97 31.706 34.554L672.126 268.2c-1.176 13.657-12.605 24.145-26.313 24.145z" fill="#b5b5b5"/><path d="M656.451 128.262h-10.809a6.596 6.596 0 0 1-6.596-6.596v-.091a6.596 6.596 0 0 1 6.596-6.596h10.809a6.596 6.596 0 0 1 6.596 6.596v.091a6.597 6.597 0 0 1-6.596 6.596zm0 32.542h-10.809a6.596 6.596 0 0 1-6.596-6.596v-.091a6.596 6.596 0 0 1 6.596-6.596h10.809a6.596 6.596 0 0 1 6.596 6.596v.091a6.597 6.597 0 0 1-6.596 6.596z" fill="#c5d6ff"/><circle cx="651.046" cy="263.18" fill="#c5d6ff" r="11"/><path d="M656.451 193.18h-10.809a6.596 6.596 0 0 1-6.596-6.596v-.091a6.596 6.596 0 0 1 6.596-6.596h10.809a6.596 6.596 0 0 1 6.596 6.596v.091a6.597 6.597 0 0 1-6.596 6.596z" fill="#c5d6ff"/><path d="M39.377 292.345h36.767v-209H31.825c-18.653 0-33.306 15.97-31.706 34.554L13.064 268.2c1.177 13.657 12.606 24.145 26.313 24.145z" fill="#b5b5b5"/><path d="M28.74 128.262h10.809a6.596 6.596 0 0 0 6.596-6.596v-.091a6.596 6.596 0 0 0-6.596-6.596H28.74a6.596 6.596 0 0 0-6.596 6.596v.091a6.596 6.596 0 0 0 6.596 6.596zm0 32.542h10.809a6.596 6.596 0 0 0 6.596-6.596v-.091a6.596 6.596 0 0 0-6.596-6.596H28.74a6.596 6.596 0 0 0-6.596 6.596v.091a6.596 6.596 0 0 0 6.596 6.596z" fill="#c5d6ff"/><circle cx="34.144" cy="263.18" fill="#c5d6ff" r="11"/><path d="M28.74 193.18h10.809a6.596 6.596 0 0 0 6.596-6.596v-.091a6.596 6.596 0 0 0-6.596-6.596H28.74a6.596 6.596 0 0 0-6.596 6.596v.091a6.596 6.596 0 0 0 6.596 6.596z" fill="#c5d6ff"/><path d="M165.046 421.552h354v1234h-354z" fill="#c1c1c1"/><path d="M600.387 0H85.705C72.087 0 61.046 11.04 61.046 24.659v332.786c0 13.619 11.04 24.659 24.659 24.659h514.682c13.619 0 24.659-11.04 24.659-24.659V24.659C625.046 11.04 614.006 0 600.387 0z" fill="#dbdbdb"/><path d="M587.375 22.521H98.718c-7.954 0-14.402 6.448-14.402 14.402V345.18c0 7.954 6.448 14.402 14.402 14.402h488.658c7.954 0 14.402-6.448 14.402-14.402V36.923c-.001-7.954-6.449-14.402-14.403-14.402z" fill="#efefef"/><path d="M165.046 428.552h354v1227h-354l293-1045z" fill="#b7b7b7"/><path d="M567.195 1701.552H113.897a7.851 7.851 0 0 1-7.851-7.851v-30.298a7.851 7.851 0 0 1 7.851-7.851h453.298a7.851 7.851 0 0 1 7.851 7.851v30.298a7.851 7.851 0 0 1-7.851 7.851zm-48.149-1273 83-46-518-1 81 47z" fill="#9e9d9d"/><path d="M558.043 75.406v232.29c0 8.76-7.09 15.86-15.85 15.86h-400.3c-8.75 0-15.85-7.1-15.85-15.86V75.406c0-8.76 7.1-15.85 15.85-15.85h400.3c8.76 0 15.85 7.09 15.85 15.85z" fill="#c5d6ff"/><path d="M318.006 294.552c-1.46 0-1.552-1.285-1.668-2.913-.071-.995-.155-2.449-.25-4.287-.176-3.428-.395-8.308-.669-14.92-.505-12.174-1.092-27.672-1.66-42.659-.333-8.793-.671-17.718-.959-25.019-1.46 11.874-3.369 28.025-4.815 40.47a1.5 1.5 0 0 1-1.49 1.327h-10.1a1.5 1.5 0 0 1-1.478-1.242c-.67-3.835-1.453-7.95-2.081-10.887-.89 2.945-2.049 7.116-3.07 11.009a1.5 1.5 0 0 1-1.451 1.12h-28.559c-2.097 5.926-2.871 5.926-3.76 5.926-1.639 0-1.775-.957-2.832-8.401l-.268-1.871c-.287 1.047-.576 2.16-.829 3.201a1.5 1.5 0 0 1-1.458 1.145h-10.773a1.5 1.5 0 0 1-1.401-.964 562.525 562.525 0 0 0-.698 4.532c-1.501 9.902-1.667 10.32-2.296 10.873a1.544 1.544 0 0 1-1.57.273c-1.214-.483-1.214-.483-2.983-19.647a2137.51 2137.51 0 0 0-.78-8.32 635.874 635.874 0 0 0-1.576 11.354 1.5 1.5 0 0 1-1.488 1.307h-11.64c-2.081 7.703-2.793 7.704-3.846 7.704-1.111 0-1.644 0-2.894-7.518a987.53 987.53 0 0 1-.493 5.852c-1.803 20.629-2.317 20.629-4.019 20.629-2.09 0-2.215 0-4.151-38.231-.186-3.677-.375-7.399-.552-10.692-1.07 6.548-2.334 14.83-3.239 20.975a1.5 1.5 0 0 1-1.484 1.281h-8.784c-1.457 10.668-2.925 10.667-4.009 10.667-1.668 0-2.202-1.186-3.667-9.94-.487 5.388-1.061 12.251-1.571 18.343-.58 6.922-1.179 14.08-1.663 19.364-.261 2.852-.47 4.949-.637 6.411-.295 2.574-.429 3.748-1.887 3.748-1.54 0-1.571-.561-1.866-5.925a1054.32 1054.32 0 0 1-.559-11.902c-.421-9.838-.935-23.172-1.431-36.067-.504-13.09-1.046-27.151-1.488-37.375-1.439 11.847-3.334 28.594-4.734 41.34a1.5 1.5 0 0 1-1.491 1.336h-9.627c-1.784 0-2.07-1.548-3.287-9.768l-.206-1.384c-.916 2.789-2.066 6.549-3.089 10.07a1.499 1.499 0 0 1-1.44 1.081h-17.241a1.5 1.5 0 0 1 0-3h16.116c4.327-14.816 4.824-14.815 6.104-14.815 1.598 0 1.726.866 2.725 7.607.33 2.228.848 5.728 1.234 7.207h7.369c.425-3.846 1.706-15.395 3.029-26.821.947-8.177 1.729-14.694 2.327-19.369.356-2.784.649-4.941.872-6.412.396-2.613.56-3.694 1.971-3.694 1.54 0 1.571.561 1.866 5.924.149 2.708.332 6.599.559 11.898.421 9.835.934 23.166 1.431 36.058.438 11.361.903 23.453 1.308 33.135.253-2.981.508-6.026.749-8.899.58-6.922 1.179-14.08 1.663-19.364.261-2.852.47-4.949.637-6.411.295-2.574.429-3.748 1.887-3.748 1.556 0 1.68.767 2.867 8.105.347 2.144.831 5.138 1.291 7.441.406-1.898.81-4.337 1.087-6.53a1.5 1.5 0 0 1 1.488-1.312h8.806c.384-2.584 1.299-8.689 2.253-14.734 2.725-17.266 2.789-17.266 4.427-17.266 1.478 0 1.59 1.313 1.745 3.13.097 1.137.207 2.777.326 4.789.238 3.997.517 9.519.813 15.366.4 7.889.918 18.115 1.418 25.707.758-7.443 1.606-17.786 2.281-27.447a1.5 1.5 0 0 1 2.982-.1c.733 5.319 1.594 11.017 2.25 14.793.302-1.013.607-2.102.874-3.117a1.5 1.5 0 0 1 1.451-1.12h11.476c2.709-20.742 3.108-20.741 4.684-20.741 1.698 0 1.698 0 3.464 19.125.263 2.85.551 5.965.825 8.793l.071-.466c1.504-9.921 1.56-9.948 2.492-10.408.44-.217.984-.205 1.414.032.41.226.961.53 2.24 4.258h8.517c2.076-8.297 2.762-8.296 3.868-8.296 1.638 0 1.774.956 2.831 8.399.128.904.274 1.929.42 2.899.25-.658.497-1.343.716-1.985a1.5 1.5 0 0 1 1.42-1.016h28.469c4.062-15.406 4.568-15.407 5.87-15.407 1.41 0 1.908 0 4.626 15.407h7.505c.448-3.845 1.805-15.463 3.199-27.089a2861.49 2861.49 0 0 1 2.399-19.563c1.267-9.943 1.267-9.943 2.447-10.205a1.513 1.513 0 0 1 1.609.681c.343.557.364.59 1.944 42.285.55 14.503 1.171 30.9 1.688 43.344.205-2.47.413-4.993.615-7.448.594-7.212 1.207-14.67 1.708-20.234.271-3.007.486-5.22.659-6.764.309-2.755.437-3.896 1.901-3.896 1.594 0 1.665.403 3.497 10.719.228 1.285.488 2.747.74 4.115.351-1.507.713-3.184 1.025-4.74a1.5 1.5 0 0 1 1.471-1.205h9.452c.332-2.601 1.116-8.682 1.939-14.703 2.366-17.297 2.431-17.297 4.095-17.297 1.48 0 1.591 1.134 1.861 3.874.15 1.522.333 3.706.56 6.677.421 5.505.935 12.963 1.431 20.176.277 4.018.576 8.359.865 12.427l.183-2.648c1.443-20.95 1.443-20.95 3.179-20.95 1.7 0 1.766.652 2.875 11.549.129 1.272.275 2.708.422 4.073.22-.866.435-1.758.627-2.603a1.5 1.5 0 0 1 1.463-1.168h11.517c3.382-20.74 3.809-20.741 5.315-20.741 1.703 0 1.703 0 3.513 19.435.235 2.519.489 5.249.735 7.795 1.276-9.498 1.445-9.828 2.527-10.243a1.714 1.714 0 0 1 1.395.076c.376.188 1.213.607 2.373 4.271h9.656a1.5 1.5 0 0 1 0 3h-10.773a1.5 1.5 0 0 1-1.443-1.09 23.36 23.36 0 0 0-.103-.352c-.265 1.79-.549 3.913-.789 5.71-.321 2.402-.624 4.671-.898 6.414-.433 2.752-.651 4.133-2.154 4.133-1.703 0-1.703 0-3.513-19.435-.296-3.181-.624-6.698-.927-9.755a623.471 623.471 0 0 0-2.158 12.523 1.5 1.5 0 0 1-1.481 1.26h-11.6c-1.827 7.762-2.586 8.008-3.321 8.246a1.592 1.592 0 0 1-1.556-.324c-.579-.509-.757-.863-1.472-7.626-.142 2.015-.283 4.069-.417 6.007-1.443 20.955-1.443 20.955-3.18 20.955-1.48 0-1.592-1.134-1.861-3.874-.15-1.522-.333-3.707-.561-6.679-.421-5.506-.935-12.966-1.432-20.181-.414-6.019-.878-12.759-1.286-18.229-.932 6.55-2.023 14.838-2.799 20.984a1.5 1.5 0 0 1-1.488 1.312h-9.546c-2.065 10.073-2.7 10.074-3.92 10.074-1.594 0-1.665-.403-3.497-10.719l-.095-.536c-.523 5.807-1.163 13.585-1.726 20.433-.583 7.085-1.134 13.776-1.592 18.892-.23 2.568-.433 4.701-.598 6.192-.28 2.516-.406 3.664-1.856 3.664z" fill="#fff"/><circle cx="165.451" cy="1731.467" fill="#676768" r="34.596"/><circle cx="165.451" cy="1731.467" fill="#b2b2b2" r="14.915"/><circle cx="511.642" cy="1731.403" fill="#676768" r="34.596"/><circle cx="511.642" cy="1731.403" fill="#b2b2b2" r="14.915"/><path d="M478.342 114.253s10.332-11.819 23.036-10.579c9.542.932 18.897 9.9 7.283 31.243-13.042 23.97-30.912 34.302-30.912 34.302s-18.379-9.505-31.082-34.549c-7.7-15.18-5.882-26.649 6.268-30.003 12.871-3.556 24.632 8.208 25.407 9.586zm-79.369 35.803v173.5h-3v-172h-269.93v-3h271.43c.83 0 1.5.67 1.5 1.5z" fill="#fff"/><path d="M399.043 150.046c0 .15-.02.3-.07.43-.18.62-.75 1.08-1.43 1.08-.82 0-1.5-.67-1.5-1.5v-1.5l-.07-89h3z" fill="#fff"/><g fill="#fffffd"><path d="M427.02 215.075h101.11c2.163 0 3.917 1.544 3.917 3.449 0 1.905-1.754 3.449-3.917 3.449H427.02c-2.163 0-3.917-1.544-3.917-3.449.001-1.905 1.754-3.449 3.917-3.449zm.161 22.015h77.748c2.163 0 3.917 1.544 3.917 3.449 0 1.905-1.754 3.449-3.917 3.449h-77.748c-2.163 0-3.917-1.544-3.917-3.449 0-1.905 1.753-3.449 3.917-3.449zm.076 21.673h46.748c2.163 0 3.917 1.544 3.917 3.449 0 1.905-1.754 3.449-3.917 3.449h-46.748c-2.163 0-3.917-1.544-3.917-3.449.001-1.905 1.754-3.449 3.917-3.449zm74.67.234h25.748c2.163 0 3.917 1.544 3.917 3.449 0 1.905-1.754 3.449-3.917 3.449h-25.748c-2.163 0-3.917-1.544-3.917-3.449.001-1.905 1.754-3.449 3.917-3.449zM154.3 89.529h101.109c2.163 0 3.917 1.544 3.917 3.449 0 1.905-1.754 3.449-3.917 3.449H154.3c-2.163 0-3.917-1.544-3.917-3.449.001-1.905 1.754-3.449 3.917-3.449zm.127 25.532h77.748c2.163 0 3.917 1.544 3.917 3.449 0 1.905-1.754 3.449-3.917 3.449h-77.748c-2.163 0-3.917-1.544-3.917-3.449.001-1.905 1.754-3.449 3.917-3.449z"/></g></svg></g><g transform="translate(93.24324324324324 287.02702702702703) rotate(0.0 1071.081081081081 968.918918918919) scale(0.8558929128730063 0.8569866120404038)"><svg width="2502.839" height="2261.223" viewBox="0 0 2502.839 2261.223"><path d="m1663.978 785.011-19.61 156.18c-1.45.062-5.846 165.172-69.096 167.242-7.75-1.07 26.687-127.956 36.257-165.592 19.859-78.114 52.449-157.83 52.449-157.83z" fill="#b5b5b5"/><path d="M1687.351 785.723c-5.51-5.5-17.51-5.5-23.37-.71-11.16 9.12-46.33 313.63-88.73 323.42 0 0 105.52 14.78 147.55-28.21 42.04-42.999-30.72-289.779-35.45-294.5zm-11.51 30.5c-4.42 0-8-5.15-8-11.5s3.58-11.5 8-11.5 8 5.15 8 11.5-3.58 11.5-8 11.5z" fill="#dbdbdb"/><path d="M386.337 769.223a2.5 2.5 0 0 1-2.059-3.915c.306-.445 30.752-45.323 47.426-115.113 9.782-40.942 12.98-82.329 9.507-123.012-4.34-50.84-19.173-100.735-44.088-148.299-33.578-64.104-53.971-121.583-60.613-170.84-5.591-41.463-1.466-76.079 12.259-102.886 13.146-25.678 34.73-42.411 59.215-45.909a2.494 2.494 0 0 1 1.465.235c29.983 14.879 63.409 22.845 99.348 23.676 28.811.669 59.311-3.225 90.635-11.565 53.442-14.23 91.24-36.786 91.615-37.012a2.5 2.5 0 1 1 2.58 4.282c-.381.229-38.68 23.1-92.771 37.524-31.799 8.48-62.778 12.444-92.092 11.771-36.426-.831-70.348-8.855-100.833-23.849-22.544 3.503-42.454 19.18-54.712 43.124-13.251 25.883-17.206 59.507-11.754 99.939 6.564 48.679 26.78 105.602 60.087 169.188 25.246 48.197 40.269 98.772 44.652 150.323 3.506 41.241.248 83.186-9.685 124.669-16.912 70.634-47.811 116.132-48.121 116.584a2.49 2.49 0 0 1-2.061 1.085z" fill="#7c7c7c"/><path d="M376.839 47.223h32v1023h-32z" fill="#c1c1c1"/><path d="M1680.84 25.223v32h-1305v-32z" fill="#c1c1c1"/><path d="M1675.339 798.223h-.001a2.5 2.5 0 0 1-2.499-2.501l.5-738.5a2.5 2.5 0 0 1 2.5-2.498h.001a2.5 2.5 0 0 1 2.499 2.502l-.5 738.5a2.5 2.5 0 0 1-2.5 2.497z" fill="#7c7c7c"/><path d="M355.839 20.914v96.952c0 8.628 10.427 12.955 16.536 6.861l97.19-96.952c6.117-6.102 1.795-16.553-6.845-16.553h-97.19c-5.352.001-9.691 4.34-9.691 9.692z" fill="#dbdbdb"/><path d="M1385.705 117.434c-57.88 0-119.586-6.121-183.83-18.254-62.027-11.714-113.272-30.643-162.83-48.948-103.702-38.305-193.264-71.386-334.783-15.185a2.5 2.5 0 0 1-1.846-4.647c143.3-56.908 233.694-23.52 338.362 15.142 49.364 18.234 100.409 37.088 162.024 48.725 73.496 13.88 143.63 19.855 208.456 17.758 51.815-1.676 100.368-8.482 144.31-20.23 74.642-19.956 110.375-47.539 110.728-47.816a2.5 2.5 0 0 1 3.086 3.934c-1.471 1.154-36.897 28.493-112.522 48.712-44.31 11.847-93.243 18.71-145.44 20.398-8.483.274-17.056.411-25.715.411z" fill="#7c7c7c"/><path d="M1712.839 20.914v96.952c0 8.628-10.427 12.955-16.536 6.861l-97.19-96.952c-6.117-6.102-1.795-16.553 6.844-16.553h97.19c5.353.001 9.692 4.34 9.692 9.692z" fill="#dbdbdb"/><path d="M735.499 25.223h-93l-1.021 32h94.702z" fill="#c1c1c1"/><circle cx="393.339" cy="47.223" fill="#b2b2b2" r="15.5"/><circle cx="1672.339" cy="47.223" fill="#b2b2b2" r="15.5"/><path d="M246.839 1536.223h2240v28h-2240z" fill="#676768"/><path d="M839.677 835.661c-9.709 4.261-20.469 7.829-31.28 11.33a402.844 402.844 0 0 1 2.95 4.88c6.309-3.725 13.171-7.639 19.26-11.12 3.044-1.679 6.229-3.497 9.22-5.14-.049.01-.099.03-.15.05zm-10.989 32.4a208.204 208.204 0 0 1-7.06 2.03c.35.66.69 1.31 1.03 1.95 3.224-1.703 6.533-3.412 9.69-5.13-1.22.4-2.441.78-3.66 1.15zm5.21 323.71c-6.585-37.317-14.044-73.729-21.56-109.52a1597.843 1597.843 0 0 0-14.27 8.02c.07.01.14.03.2.07 5.651 8.69-1.718 30.537-4.049 40.71-11.885 38.672-32.686 78.775-69.441 98.8 37.411 7.329 75.882 11.995 113.11 19.42.46-.07.9-.16 1.34-.26 1.824.914 3.717 1.826 5.67 2.7-3.62-17.63-7.221-38.44-11-59.94zm-26.89-134.79c-.695-3.333-1.381-6.587-2.03-9.74-.307 2.22-.598 4.503-.89 6.68.902.92 1.807 1.876 2.72 2.84l.72 2.66c-.181-.82-.351-1.64-.52-2.44zm32.669-221.32c-9.709 4.261-20.469 7.829-31.28 11.33a402.844 402.844 0 0 1 2.95 4.88c6.309-3.725 13.171-7.639 19.26-11.12 3.044-1.679 6.229-3.497 9.22-5.14-.049.01-.099.03-.15.05zm-12.129 32.74c-1.993.609-4 1.178-5.92 1.69.35.66.69 1.31 1.03 1.95 3.224-1.703 6.533-3.412 9.69-5.13-1.6.521-3.194 1.02-4.8 1.49zm6.35 323.37c-6.585-37.317-14.044-73.729-21.56-109.52a1597.843 1597.843 0 0 0-14.27 8.02c.07.01.14.03.2.07 5.651 8.679-1.717 30.542-4.049 40.71-11.885 38.67-32.683 78.778-69.441 98.8 37.411 7.33 75.883 11.994 113.11 19.42.46-.07.9-.16 1.34-.26 1.824.914 3.717 1.826 5.67 2.7-3.62-17.63-7.221-38.44-11-59.94zm-27.1-135.03c.015.01.721 2.664.73 2.68-.869-4.064-1.737-8.261-2.55-12.18-.307 2.22-.598 4.503-.89 6.68.902.911 1.786 1.873 2.71 2.82zm167.66 195.91c-7.495-146.837-52.197-295.074-118.84-425.67l-.01-.01C798.326 724.623 722.11 608.628 611.459 652.745c-8.021 5.186-13.111 12.386-16.051 21.216-6.94 20.83-1.9 50.71 4.74 84.26 6.794 34.411 12.852 64.733 21.15 103.55.01 0 0 .01 0 .01 24.672 115.233 51.85 232.094 80.2 346.99 18.627 70.121 33.138 142.293 57.988 209.121 10.39 23.899 24.006 42.165 46.982 49.959 45.657 7.358 108.726-19.034 137.62-60.561 28.492-40.864 31.91-103.21 30.37-154.639zm-86.571-210.98c15.864 56.596 63.205 240.867-14.557 260.391-14.329 1.863-15.963-3.618-22.062-23.292-7.452-27.59-11.708-55.645-17.37-87-8.306-57.856-35.084-154.974-38.543-204.2 3.393-4.56 9.445-5.946 18.113-9.131 16.051-5.099 37.67-8.909 42.971-5.619 8.698 5.391 20.499 32.171 31.448 68.851zm-233.869-331.53c26.629-16.016 103.112 59.011 128.98 98.96 0 0 0 .01.01.01 2.04 2.81 4.06 5.62 6.05 8.44v.01c16.044 23.095 31.56 47.709 42.51 73.31 6.322 17.456 12.474 26.564-11.74 32.539-11.106 3.323-24.388 6.106-35.72 6.291-10.311-.016-9.059-3.207-14.96-12.28-13.038-23.736-25.59-49.307-53.45-93.36-11.991-24.65-79.81-101.99-61.68-113.92zm152.99 346.84c-.695-3.333-1.381-6.587-2.03-9.74-.307 2.22-.598 4.503-.89 6.68.902.92 1.807 1.876 2.72 2.84l.72 2.66c-.181-.82-.351-1.64-.52-2.44zm26.89 134.79c-6.585-37.317-14.044-73.729-21.56-109.52a1597.843 1597.843 0 0 0-14.27 8.02c.07.01.14.03.2.07 5.651 8.688-1.718 30.538-4.049 40.71-11.885 38.671-32.686 78.777-69.441 98.8 37.411 7.329 75.882 11.995 113.11 19.42.46-.07.9-.16 1.34-.26 1.824.914 3.717 1.826 5.67 2.7-3.62-17.63-7.221-38.44-11-59.94zm-5.21-323.71a208.204 208.204 0 0 1-7.06 2.03c.35.66.69 1.31 1.03 1.95 3.224-1.703 6.533-3.412 9.69-5.13-1.22.4-2.441.78-3.66 1.15zm10.989-32.4c-9.709 4.261-20.469 7.829-31.28 11.33a402.844 402.844 0 0 1 2.95 4.88c6.309-3.725 13.171-7.639 19.26-11.12 3.044-1.679 6.229-3.497 9.22-5.14-.049.01-.099.03-.15.05zm-10.989 32.4a208.204 208.204 0 0 1-7.06 2.03c.35.66.69 1.31 1.03 1.95 3.224-1.703 6.533-3.412 9.69-5.13-1.22.4-2.441.78-3.66 1.15zm10.989-32.4c-9.709 4.261-20.469 7.829-31.28 11.33a402.844 402.844 0 0 1 2.95 4.88c6.309-3.725 13.171-7.639 19.26-11.12 3.044-1.679 6.229-3.497 9.22-5.14-.049.01-.099.03-.15.05zm-32.669 221.32c-.695-3.333-1.381-6.587-2.03-9.74-.307 2.22-.598 4.503-.89 6.68.902.92 1.807 1.876 2.72 2.84l.72 2.66c-.181-.82-.351-1.64-.52-2.44zm26.89 134.79c-6.585-37.317-14.044-73.729-21.56-109.52a1597.843 1597.843 0 0 0-14.27 8.02c6.146 7.711-1.659 31.141-3.849 40.78-11.884 38.672-32.686 78.773-69.441 98.8 37.411 7.329 75.882 11.995 113.11 19.42.46-.07.9-.16 1.34-.26 1.824.914 3.717 1.826 5.67 2.7-3.62-17.63-7.221-38.44-11-59.94z" fill="#dbdbdb"/><path d="M936.839 1536.223h-690l-212-778h691z" fill="#676768"/><path d="M910.839 1314.223c-76.06 159.48-547.39 133.98-651 0-58-75-264-544-185-604 137.57-104.48 608.16-46.28 658 11 22.59 25.97 31.65 66.92 38.21 112.89 7.43 52.09 11.66 110.63 28.79 161.11 12.99 38.28 26.8 73.44 40.18 105.42 45.68 109.28 86.18 181.39 70.82 213.58zm-661.459 381h2112.459v-131H247.524c-13.854 0-24.995 11.449-24.678 25.361l1.856 81.414c.307 13.468 11.266 24.225 24.678 24.225z" fill="#a0b5f4"/><path d="m2149.839 1545.223-1818 1s-134-11-80-115c12-26 54-43 106-51 27-13 295.398-74.985 457-51 411 61 534-7 654 8 41.087 5.136 79.09 20.3 118.3 25.01 13.01 1.56 25.98 2.77 38.89 3.66 296.99 20.68 783.39-165.38 826.81 88.33 11.431 66.78-303 91-303 91z" fill="#6f8fc9"/><g fill="#676768"><path d="M821.839 1805.073v7.8c0 2.97-1.44 5.61-3.67 7.24a8.898 8.898 0 0 1-5.33 1.76h-431a9.003 9.003 0 0 1-9-9v-7.8c0-2.74 1.23-5.2 3.17-6.85a8.94 8.94 0 0 1 5.83-2.15h431c2.22 0 4.27.81 5.83 2.15a8.974 8.974 0 0 1 3.17 6.85z"/><path d="M822.839 1828.003v7.79c0 3-1.46 5.65-3.71 7.28a8.947 8.947 0 0 1-5.29 1.72h-431c-2.44 0-4.68-.98-6.29-2.56a8.986 8.986 0 0 1-2.71-6.44v-7.79c0-2.97 1.44-5.61 3.67-7.24a8.898 8.898 0 0 1 5.33-1.76h431a9.003 9.003 0 0 1 9 9z"/><path d="M821.839 1849.503v7.79c0 2.97-1.44 5.61-3.67 7.24a8.898 8.898 0 0 1-5.33 1.76h-431a9.003 9.003 0 0 1-9-9v-7.79c0-2.99 1.46-5.64 3.71-7.27a8.887 8.887 0 0 1 5.29-1.73h431c2.44 0 4.68.98 6.29 2.57a8.963 8.963 0 0 1 2.71 6.43z"/><path d="M822.839 1872.423v7.8a9 9 0 0 1-9 9h-431a9 9 0 0 1-9-9v-7.8c0-2.97 1.44-5.61 3.67-7.24a8.898 8.898 0 0 1 5.33-1.76h431a9.003 9.003 0 0 1 9 9zm-11-139.405h-431a9 9 0 0 1-9-9v-7.795a9 9 0 0 1 9-9h431a9 9 0 0 1 9 9v7.795a9 9 0 0 1-9 9z"/><path d="M812.839 1755.947h-431a9 9 0 0 1-9-9v-7.795a9 9 0 0 1 9-9h431a9 9 0 0 1 9 9v7.795a9 9 0 0 1-9 9z"/><path d="M820.839 1760.653v7.79a8.937 8.937 0 0 1-3.67 7.24 8.898 8.898 0 0 1-5.33 1.76h-431a9.003 9.003 0 0 1-9-9v-7.79c0-4.98 4.03-9 9-9h431c4.971 0 9 4.02 9 9z"/><path d="M821.839 1783.573v7.8c0 2.74-1.23 5.2-3.17 6.85a8.94 8.94 0 0 1-5.83 2.15h-431a8.94 8.94 0 0 1-5.83-2.15 8.974 8.974 0 0 1-3.17-6.85v-7.8c0-2.97 1.44-5.61 3.67-7.24a8.898 8.898 0 0 1 5.33-1.76h431a9.003 9.003 0 0 1 9 9z"/></g><path d="m302.839 2201.223 123.626-60.891a6.045 6.045 0 0 0 3.374-5.423v-33.64a6.045 6.045 0 0 0-6.045-6.045h-88.667c-17.832 0-32.287 14.456-32.287 32.287v73.712z" fill="#959599"/><path d="M385.839 2186.723c0 41.145-33.355 74.5-74.5 74.5h-17.5c-32.704-7.87-57-39.38-57-74.5 0-41.145 33.355-74.5 74.5-74.5s74.5 33.355 74.5 74.5z" fill="#4b4b4c"/><circle cx="294.339" cy="2186.723" fill="#676768" r="74.5"/><circle cx="294.339" cy="2186.723" fill="#b2b2b2" r="53.5"/><path d="M353.839 1979.223h50v133h-50z" fill="#b2b2b2"/><path d="M348.031 1940.223h60.617a5.19 5.19 0 0 1 5.191 5.191v41.617a5.192 5.192 0 0 1-5.191 5.192h-60.617a5.191 5.191 0 0 1-5.191-5.192v-41.617a5.19 5.19 0 0 1 5.191-5.191z" fill="#676768"/><path d="m322.886 2183.469 87.579-43.137a6.045 6.045 0 0 0 3.374-5.423v-33.64a6.045 6.045 0 0 0-6.045-6.045h-88.667c-17.832 0-32.287 14.456-32.287 32.287v33.531c-.001 18.519 19.432 30.609 36.046 22.427z" fill="#dbdbdb"/><path d="m353.839 1992.223 38 18 12 85v-103zm1947.873 208.782 123.626-60.891a6.044 6.044 0 0 0 3.374-5.423v-33.64a6.045 6.045 0 0 0-6.045-6.045H2334c-17.832 0-32.287 14.456-32.287 32.287v73.712z" fill="#959599"/><path d="M2384.712 2186.505c0 41.145-33.355 74.5-74.5 74.5h-17.5c-32.705-7.87-57-39.38-57-74.5 0-41.145 33.355-74.5 74.5-74.5s74.5 33.355 74.5 74.5z" fill="#4b4b4c"/><circle cx="2293.212" cy="2186.505" fill="#676768" r="74.5"/><circle cx="2293.212" cy="2186.505" fill="#b2b2b2" r="53.5"/><path d="M2352.712 1979.005h50v133h-50z" fill="#b2b2b2"/><path d="M2346.903 1940.005h60.617a5.192 5.192 0 0 1 5.192 5.192v41.617a5.192 5.192 0 0 1-5.192 5.192h-60.617a5.191 5.191 0 0 1-5.191-5.192v-41.617a5.191 5.191 0 0 1 5.191-5.192z" fill="#676768"/><path d="m2321.758 2183.25 87.579-43.137a6.044 6.044 0 0 0 3.374-5.423v-33.64a6.045 6.045 0 0 0-6.045-6.045h-88.667c-17.832 0-32.287 14.456-32.287 32.287v33.531c0 18.52 19.433 30.61 36.046 22.427z" fill="#dbdbdb"/><path d="m2352.712 1992.005 38 18 12 85v-103zm-1552 209 123.626-60.891a6.044 6.044 0 0 0 3.374-5.423v-33.64a6.045 6.045 0 0 0-6.045-6.045H833c-17.832 0-32.287 14.456-32.287 32.287v73.712z" fill="#959599"/><path d="M883.712 2186.505c0 41.145-33.355 74.5-74.5 74.5h-17.5c-32.704-7.87-57-39.38-57-74.5 0-41.145 33.355-74.5 74.5-74.5s74.5 33.355 74.5 74.5z" fill="#4b4b4c"/><circle cx="792.212" cy="2186.505" fill="#676768" r="74.5"/><circle cx="792.212" cy="2186.505" fill="#b2b2b2" r="53.5"/><path d="M851.712 1979.005h50v133h-50z" fill="#b2b2b2"/><path d="M845.903 1940.005h60.617a5.191 5.191 0 0 1 5.191 5.192v41.617a5.192 5.192 0 0 1-5.191 5.192h-60.617a5.192 5.192 0 0 1-5.192-5.192v-41.617a5.193 5.193 0 0 1 5.192-5.192z" fill="#676768"/><path d="m820.758 2183.25 87.579-43.137a6.044 6.044 0 0 0 3.374-5.423v-33.64a6.045 6.045 0 0 0-6.045-6.045h-88.667c-17.832 0-32.287 14.456-32.287 32.287v33.531c0 18.52 19.433 30.61 36.046 22.427z" fill="#dbdbdb"/><path d="m851.712 1992.005 38 18 12 85v-103z" fill="#959599"/><path d="M266.018 1765.223H2343.4c10.184 0 18.44-8.256 18.44-18.44v-33.12c0-10.184-8.256-18.44-18.44-18.44H265.545c-10.287 0-18.585 8.417-18.438 18.703l.473 33.12c.144 10.081 8.356 18.177 18.438 18.177z" fill="#5b5b5b"/><path d="M2474.616 1967.223H283.978c-10.57 0-19.138-8.568-19.138-19.138v-39.723c0-10.57 8.569-19.138 19.138-19.138h2190.638c15.587 0 28.223 12.636 28.223 28.223V1939c0 15.587-12.636 28.223-28.223 28.223z" fill="#959599"/><path d="M1871.839 1518.223c-50.54 8.87-93.12 25.61-129.65 47.13-140.55 82.78-191.5 236.23-261.34 283.86l-.01.01c-1.35 1.03-4.41.28-9-1.99h-.01c-22.01-10.86-79.25-56.37-152.7-105.73-103.96-69.87-240.39-147.44-355.29-145.28-200.05 3.76-337.16 64.66-427.32 123.74-87.27 57.17-130.55 112.63-144.35 112.93-.9.01-1.68-.2-2.33-.67-12.55-9.64-22.97-21.14-31.74-33.88 0 0 0-.01-.01-.01-60.41-87.73-43.02-234.11-110.25-234.11-16.49-2.62-24.95-7.52-28.49-13.99l-.01-.01c-10.09-18.44 19.72-49.62 17.5-77l1607.25-.4z" fill="#6f8fc9"/><path d="M2328.467 1824.223h-431.34c-66.433 0-120.287-53.854-120.287-120.287v-86.362c0-11.792 9.559-21.351 21.351-21.351h629.213c16.809 0 30.436 13.627 30.436 30.436v68.192c-.001 71.45-57.923 129.372-129.373 129.372z" fill="#959599"/><path d="M1796.839 1463.223s144.064-81.263 190.532-99.631c46.468-18.369 201.468-56.295 454.468 91.168l-148.085 142.08zm-32 23-22.64 79.12-.01.01c-140.55 82.78-191.5 236.23-261.34 283.86.83-1.03 28.99-25.99 75.99-102.99 79.48-130.211 122-179 208-260zm-293.009 361.01c-22.01-10.86-79.25-56.37-152.7-105.73l-14.66-61.17 41.42-144.11s31.95 37.83 37.95 134.91c5.999 97.08 35.999 141.11 87.99 176.1zM602.244 1415.81c-17.404.413-136.448 22.898-201.132 118.541-29.402 43.474 26.867-26.488 89.789-58.582 106.939-54.546 213.665-37.746 218.802-47.646 5.136-9.9-72.055-18.726-107.459-12.313z" fill="#597eb5"/><path d="M2444.838 1301.221c-24.09-27.13-54.72-48.89-89.61-65.67-160.58-77.27-411.35-49.16-530.39 45.67-25.15 20.04-42.99 49.04-55.5 82.27-12.69 33.74-19.88 71.84-23.61 109.35-1.15 11.44-1.97 22.81-2.53 33.99v.01c-.5 9.98-.8 19.81-.92 29.38-.05 3.11-.07 6.18-.07 9.22-.03 6.41.03 12.68.14 18.78.01.18.01.35.02.53v.5c1.14 58.12 7.47 100.97 7.47 100.97 3.6 10.61 11.91 20.28 24.13 29 .93.67 1.89 1.33 2.87 1.98 7.45 4.99 16.19 9.66 26.06 14.01 3.2 1.41 6.52 2.79 9.95 4.13 4.58 1.79 9.36 3.53 14.33 5.2.86.29 1.73.58 2.61.87.7.23 1.4.45 2.1.68 1.43.46 2.88.92 4.34 1.37.34.11.68.21 1.02.31.63.2 1.27.39 1.91.58.82.25 1.64.5 2.47.74.73.22 1.47.43 2.2.64 2.28.66 4.59 1.31 6.93 1.94 2.75.75 5.55 1.48 8.38 2.2 1.42.36 2.85.72 4.29 1.07a558.292 558.292 0 0 0 19.42 4.4c1.9.41 3.81.8 5.74 1.18 1.93.39 3.88.77 5.83 1.15.98.19 1.96.38 2.95.56 1.97.38 3.95.74 5.95 1.1.99.18 2 .36 3 .53 1 .18 2.01.36 3.02.53 2.85.49 5.73.97 8.64 1.44 8.6 1.39 17.42 2.68 26.4 3.86 1.72.23 3.44.45 5.17.67 3.75.48 7.53.94 11.33 1.37 2.57.3 5.17.59 7.78.88 2.59.28 5.2.56 7.82.82 1.7.17 3.4.35 5.11.51 7.1.69 14.29 1.33 21.54 1.9 1.69.14 3.38.27 5.08.4 7.54.57 15.14 1.08 22.81 1.52 3.35.2 6.72.39 10.1.55 1.1.07 2.21.12 3.33.17 2.52.12 5.06.24 7.59.35 4.29.19 8.59.36 12.91.5 1.82.07 3.65.13 5.47.18.34.02.67.03 1 .03 2.59.08 5.17.15 7.77.21 1.85.05 3.71.1 5.56.13 2.64.06 5.28.11 7.92.15 1.62.03 3.24.05 4.87.07.61.01 1.22.01 1.84.02 1.26.02 2.53.03 3.8.04l4.32.03c12.97.08 25.96 0 38.91-.26 1.97-.04 3.95-.08 5.92-.13 1.11-.02 2.229-.05 3.34-.08 1.41-.04 2.82-.07 4.23-.12 1.98-.05 3.97-.11 5.95-.18 2.49-.08 4.98-.16 7.46-.26 2.39-.09 4.78-.18 7.16-.29.55-.02 1.1-.04 1.66-.07 1.89-.08 3.78-.17 5.67-.26.9-.04 1.81-.08 2.72-.13.47-.02.94-.04 1.41-.07 1.53-.07 3.05-.15 4.58-.24l.61-.03c1.72-.09 3.44-.19 5.16-.29 1.71-.09 3.43-.2 5.14-.31 1.09-.06 2.19-.13 3.29-.2 1.92-.12 3.83-.24 5.74-.38 3.92-.26 7.82-.55 11.71-.85 1.98-.15 3.96-.31 5.93-.47h.05a1067.424 1067.424 0 0 0 11.38-.98c9.06-.82 18.02-1.73 26.85-2.73.95-.11 1.91-.22 2.85-.33.44-.04.88-.1 1.32-.15 2.86-.33 5.7-.67 8.52-1.03 1.07-.13 2.14-.27 3.21-.41 4.05-.52 8.06-1.05 12.04-1.61.72-.1 1.44-.2 2.17-.31 1.21-.17 2.42-.34 3.62-.52 1.7-.25 3.39-.5 5.07-.76.95-.14 1.91-.29 2.85-.44 1.2-.18 2.39-.37 3.58-.56 2.11-.33 4.22-.68 6.31-1.02 2.6-.44 5.19-.88 7.75-1.33 1.16-.21 2.31-.41 3.46-.62s2.29-.42 3.43-.63c2-.37 3.99-.74 5.97-1.12 2.52-.49 5.02-.99 7.5-1.5 1.1-.22 2.2-.45 3.3-.68 2.19-.46 4.37-.93 6.52-1.4 2.47-.54 4.92-1.1 7.34-1.66.77-.17 1.53-.35 2.28-.53 2.2-.52 4.38-1.05 6.53-1.59 2.07-.52 4.12-1.04 6.15-1.57 1.02-.26 2.03-.53 3.03-.8 1.01-.27 2-.54 3-.81 3.97-1.09 7.85-2.21 11.64-3.36.7-.21 1.4-.43 2.09-.64 3.13-.97 6.19-1.96 9.19-2.97.75-.25 1.5-.5 2.24-.76 7.49-2.58 14.54-5.29 21.11-8.12 1.54-.66 3.06-1.34 4.54-2.02 2.23-1.03 4.4-2.07 6.5-3.12.7-.35 1.4-.7 2.08-1.06 1.38-.71 2.73-1.43 4.04-2.15 1.32-.73 2.62-1.46 3.87-2.19.1-.06.19-.12.28-.16.91-.55 1.8-1.08 2.67-1.63.3-.18.58-.36.87-.54 4.86-3.05 9.22-6.23 13.04-9.52.38-.33.76-.66 1.13-1 .37-.32.73-.65 1.08-.98.45-.42.89-.83 1.31-1.25.24-.23.48-.46.71-.7.7-.68 1.36-1.37 2-2.06.39-.43.77-.85 1.15-1.28a66.008 66.008 0 0 0 2.37-2.89c.32-.42.64-.84.95-1.26.02-.03.03-.05.05-.07.29-.4.57-.81.85-1.22.03-.03.05-.06.06-.09.22-.31.42-.62.62-.93a48.17 48.17 0 0 0 1.86-3.14c.47-.86.9-1.71 1.29-2.58.15-.31.29-.62.41-.93.24-.55.46-1.09.67-1.64 0 0 22.56-287.8-46-365zm-190.67-42.82c37.84 5.43 68.18 16.56 92.38 30.86.85.5 1.68 1 2.51 1.51.07.04.13.08.19.12.58.35 1.15.7 1.72 1.07.2.12.41.25.61.38.6.37 1.2.76 1.79 1.15.6.38 1.2.77 1.79 1.17.52.34 1.04.69 1.56 1.04 1.01.68 2.01 1.37 3 2.07.62.43 1.24.87 1.85 1.32.9.64 1.79 1.3 2.67 1.97.46.33.91.67 1.35 1.01.9.68 1.79 1.37 2.67 2.07a175.568 175.568 0 0 1 5.25 4.31l.16.13c.74.63 1.47 1.27 2.19 1.91.8.7 1.58 1.4 2.36 2.12.83.76 1.65 1.52 2.46 2.29.43.4.86.81 1.28 1.22.55.53 1.1 1.07 1.65 1.61.21.2.41.4.6.6.8.79 1.58 1.58 2.34 2.38.59.6 1.16 1.21 1.73 1.82.48.51.95 1.01 1.41 1.52.1.1.19.21.28.31.39.42.77.85 1.15 1.27 1.2 1.33 2.36 2.67 3.49 4.02.29.34.57.68.85 1.02.19.22.37.43.54.65.37.45.74.9 1.1 1.35 1.54 1.9 3.02 3.82 4.44 5.74a185.779 185.779 0 0 1 5.11 7.26c.15.21.29.43.43.64.44.67.88 1.34 1.31 2.02.15.22.3.45.44.68.53.84 1.05 1.68 1.57 2.52.28.45.56.91.83 1.36.71 1.17 1.4 2.35 2.06 3.52.34.58.67 1.17.99 1.76.46.83.91 1.65 1.35 2.48.58 1.06 1.14 2.12 1.67 3.19.29.56.57 1.11.85 1.67.74 1.49 1.45 2.98 2.14 4.46.39.83.77 1.66 1.13 2.49.17.37.34.75.49 1.12.27.6.53 1.2.78 1.8 1.34 3.15 2.56 6.27 3.66 9.35a167.469 167.469 0 0 1 2.96 8.97c.45 1.48.87 2.94 1.25 4.39.13.46.25.92.37 1.38.27.98.51 1.95.74 2.91.12.47.23.94.34 1.41s.22.93.32 1.39c.19.86.38 1.71.56 2.55.1.52.21 1.04.31 1.56.09.45.18.9.26 1.35.11.54.21 1.08.3 1.62.1.58.2 1.15.29 1.71a105.21 105.21 0 0 1 .63 4.13c.09.62.17 1.23.24 1.84.05.4.1.8.14 1.19.23 1.96.41 3.85.53 5.67.03.36.05.72.07 1.08.03.36.05.71.06 1.06.02.37.04.73.05 1.08.02.36.03.71.04 1.06l.03 1.06c.01.34.01.67.01 1 .02.95.01 1.86-.01 2.75-.01.82-.04 1.62-.08 2.39-.06 1.26-.16 2.46-.28 3.58-.03.24-.05.48-.08.71-.03.28-.07.56-.11.83l-.06.41c-.06.44-.13.87-.2 1.28-.06.29-.11.57-.16.84-.28 1.33-.6 2.5-.96 3.48-.08.21-.16.41-.24.61 0 0-.01.01-.01.02-.06.13-.11.26-.17.38-.11.24-.23.47-.35.68-.06.11-.13.22-.19.32-.12.2-.25.38-.38.54s-.26.31-.4.44c-8.51 8.12-82.78-21.42-126.75-45.88-14.59-8.13-25.85-15.69-30.25-21.12-1.05-1.3-2.49-4.69-4.14-9.55-4.16-12.24-9.69-33.86-14.01-55.24-6.33-31.36-10.02-62.21-2.85-62.21zm-266.33-.18c8.66 0 .89 44.65-7.74 81.16-2.76 11.7-5.62 22.57-8.04 30.86-2.24 7.64-4.11 13.08-5.22 14.98-13.12 22.5-131.68 74.86-153.89 68.98-1.49-.39-2.54-1.04-3.11-1.98-4.45-7.41-5.16-50.31 18.65-94.26 23.25-42.94 69.91-86.89 159.35-99.74z" fill="#dbdbdb"/><path d="M2043.839 1252.223c10-8 135-11 148-1 10.724 8.25-16 93-29 95s-79.298 1-91 0-38.848-85.322-28-94z" fill="#b2b2b2"/><path d="M2069.452 1267.424c6.538-5.231 88.265-7.192 96.765-.654 7.012 5.394-10.461 60.805-18.961 62.112-8.5 1.308-51.846.654-59.497 0-7.651-.653-25.399-55.783-18.307-61.458z" fill="#676768"/><path d="M383.018 1279.031v-.06c-.04-1.54-.08-3.09-.13-4.65-.86-25.89-3.46-53.49-7.62-82.09v-.01c-.31-2.1-.62-4.21-.95-6.32-.01-.01-.01-.01 0-.02-.32-2.12-.66-4.24-1-6.38-.43-2.71-.88-5.42-1.34-8.15-.01-.01-.01-.02-.01-.03-.69-4.11-1.42-8.24-2.17-12.38-.73-4.05-1.49-8.11-2.29-12.19 0-.02-.01-.05-.01-.07-.01-.01-.01-.02-.01-.03-1.08-5.56-2.22-11.14-3.41-16.74-.021-.07-.04-.14-.05-.22-.4-1.86-.79-3.72-1.2-5.59-.41-1.9-.83-3.8-1.25-5.71-.82-3.65-1.66-7.31-2.51-10.97-.01-.05-.03-.1-.04-.15-.86-3.71-1.75-7.43-2.66-11.15-3.23-13.2-6.72-26.45-10.46-39.7a.292.292 0 0 1-.02-.09c-1.43-5.05-2.89-10.09-4.39-15.14-1.49-5.05-3.02-10.09-4.59-15.12-.01-.02-.01-.03-.02-.05a1166.717 1166.717 0 0 0-18.18-53.83c-.93-2.54-1.87-5.09-2.81-7.62a.185.185 0 0 1-.02-.07c-1.38-3.67-2.76-7.32-4.16-10.96 0-.01-.01-.03-.01-.04-2.11-5.48-4.26-10.93-6.44-16.35v-.01c-1.05-2.61-2.11-5.2-3.17-7.79-2.13-5.18-4.3-10.33-6.5-15.44-5.5-12.77-11.19-25.31-17.07-37.55-1.07-2.24-2.16-4.46-3.24-6.68-2.18-4.44-4.37-8.83-6.59-13.18-1.66-3.26-3.34-6.5-5.03-9.7-1.69-3.21-3.39-6.4-5.11-9.55-2.29-4.21-4.6-8.37-6.93-12.47-2.79-4.93-5.62-9.78-8.48-14.55a660.4 660.4 0 0 0-6.47-10.59c-.73-1.16-1.45-2.32-2.18-3.47-1.94-3.07-3.9-6.1-5.86-9.09s-3.94-5.94-5.93-8.85c-4.72-6.91-9.5-13.59-14.35-20.01-25.01-33.17-51.58-59.53-78.88-76.14-6.36-3.86-12.75-7.2-19.18-9.97-.41-.18-.82-.35-1.23-.52-.83-.34-1.68-.67-2.54-1h-.01c-.86-.32-1.74-.63-2.63-.94-.45-.15-.91-.3-1.36-.45-1.36-.44-2.75-.86-4.17-1.26-.47-.14-.95-.27-1.43-.39-1.44-.38-2.91-.74-4.39-1.08-.99-.22-1.99-.44-3-.64-1.51-.3-3.04-.58-4.59-.84-23.01-3.78-49.29-1.97-65.11 8.23-.43.28-.85.56-1.26.85-.31.22-.62.44-.92.67-.91.67-1.78 1.37-2.6 2.11-.24.2-.47.41-.69.63-.3.27-.6.55-.88.85-.26.25-.51.5-.76.76-.05.06-.1.11-.15.17-.26.27-.521.55-.76.84-.21.23-.41.47-.6.7l-.17.2c-.26.32-.52.63-.76.96-.06.07-.11.14-.16.21-.21.27-.41.54-.6.81-.25.34-.48.68-.71 1.02-.2.3-.39.59-.58.9-.07.1-.14.21-.2.31-.17.27-.34.56-.5.84-.83 1.41-1.57 2.88-2.23 4.4-.18.4-.35.81-.5 1.22-1.15 2.85-2.04 5.89-2.71 9.09-.08.36-.15.72-.21 1.08-.14.7-.27 1.42-.38 2.14-.16.97-.29 1.96-.41 2.96-.01.11-.03.22-.04.33-.05.47-.1.94-.14 1.41-.01.04-.01.07-.01.1-.05.41-.08.82-.11 1.24-.03.23-.04.46-.06.69-.04.46-.07.93-.09 1.4-.04.57-.07 1.14-.09 1.72-.03.58-.04 1.16-.06 1.74-.6 23.51 6.15 53.19 12.38 84.99 5.56 28.3 12.35 61.08 20 96.62 4.62 21.46 9.55 43.93 14.71 67.03 19.17 86.03 41.45 180.83 62.3 265.03a7876.48 7876.48 0 0 0 17.01 67.52c9.21 35.89 17.84 68.29 25.43 95.19 12.75 45.31 26.51 84.27 62.53 96.37.91.14 1.83.27 2.75.38.93.12 1.87.22 2.81.31.62.06 1.26.11 1.89.16.46.03.94.07 1.41.1.36.03.72.05 1.09.07.51.02 1.021.05 1.54.07 1.48.06 2.98.09 4.5.08.62 0 1.25-.01 1.87-.02.46 0 .91-.01 1.37-.03.32 0 .64-.01.96-.03h.01c.54-.02 1.08-.04 1.63-.07.35-.01.71-.03 1.07-.06.55-.03 1.12-.07 1.68-.11.35-.01.7-.04 1.04-.07.58-.04 1.15-.09 1.73-.15.57-.05 1.15-.11 1.73-.17.48-.05.98-.1 1.46-.16.6-.06 1.21-.14 1.82-.22.42-.05.85-.11 1.28-.17.7-.09 1.41-.2 2.12-.31.47-.07.95-.15 1.43-.23.64-.1 1.28-.21 1.93-.33 1.08-.18 2.16-.39 3.25-.61a159.24 159.24 0 0 0 16.64-4.28c.7-.22 1.4-.45 2.1-.68a161.767 161.767 0 0 0 10.41-3.82c.06-.03.12-.05.18-.07 1.33-.54 2.64-1.1 3.95-1.67 1.11-.48 2.2-.97 3.29-1.48.96-.44 1.91-.88 2.85-1.34.14-.07.28-.14.42-.2h.03c.22-.11.42-.22.63-.33.06-.03.12-.06.17-.09.74-.37 1.49-.74 2.23-1.12.86-.44 1.72-.89 2.57-1.35.4-.21.79-.42 1.18-.64.64-.34 1.28-.7 1.91-1.06.66-.36 1.31-.74 1.96-1.12.95-.55 1.9-1.11 2.84-1.69.82-.5 1.64-1.01 2.45-1.52 1.08-.69 2.15-1.38 3.22-2.09 3.19-2.13 6.31-4.38 9.34-6.75.8-.62 1.59-1.25 2.37-1.89 2.17-1.76 4.28-3.58 6.34-5.47.51-.46 1.01-.92 1.5-1.4.34-.31.68-.63 1.01-.95.7-.67 1.38-1.34 2.06-2.02.48-.47.96-.96 1.43-1.45.38-.39.76-.79 1.13-1.18.84-.89 1.67-1.79 2.49-2.7 1.01-1.13 2.01-2.28 2.98-3.44 1.94-2.33 3.8-4.73 5.57-7.19.51-.71 1.01-1.43 1.5-2.16.3-.44.59-.87.88-1.32.5-.77 1-1.54 1.49-2.33.09-.14.18-.28.26-.43 1.01-1.63 1.98-3.31 2.92-5.03.5-.9.98-1.82 1.46-2.75.38-.73.75-1.47 1.11-2.22.13-.25.25-.5.37-.75.1-.2.2-.4.29-.61.29-.58.56-1.17.83-1.76l.48-1.05c.34-.75.67-1.51 1-2.28.43-1 .86-2.01 1.27-3.03v-.01c.36-.89.72-1.8 1.06-2.71a145 145 0 0 0 .94-2.5c.04-.11.08-.22.12-.32.33-.91.65-1.82.96-2.74.3-.86.59-1.73.88-2.61.34-1.05.68-2.11 1.01-3.18.12-.41.24-.81.36-1.21.13-.4.25-.8.37-1.21.08-.29.17-.59.25-.88.09-.29.17-.59.25-.88.17-.59.33-1.18.49-1.77.26-.94.51-1.88.76-2.83.03-.12.06-.25.1-.38.38-1.47.74-2.95 1.1-4.46.11-.47.22-.95.33-1.43.05-.21.09-.41.14-.62.21-.92.41-1.86.61-2.79.22-1.01.43-2.02.64-3.04.01-.07.02-.14.04-.2.22-1.09.43-2.19.64-3.29.2-1.11.41-2.22.6-3.34.2-1.11.39-2.24.57-3.37s.36-2.27.54-3.42c.17-1.15.34-2.3.5-3.46.05-.34.09-.67.14-1.01 1.04-7.65 1.84-15.59 2.41-23.81.21-3.02.38-6.08.53-9.17.02-.51.04-1.02.07-1.53.09-1.97.16-3.95.22-5.95.07-2.47.13-4.96.17-7.47.11-6.99.059-14.14-.12-21.42zm-118.2-285.74c.76.47 1.55 1.11 2.35 1.9.14.12.27.26.41.41 1.31 1.36 2.67 3.11 4.07 5.24.4.61.81 1.24 1.22 1.9v.01c.88 1.44 1.78 3.01 2.68 4.71.31.57.61 1.15.91 1.74l.92 1.84c.47.94.93 1.9 1.39 2.89v.01c.37.79.74 1.6 1.11 2.42.37.83.74 1.67 1.12 2.54 2.25 5.17 4.53 10.99 6.82 17.35.15.42.3.85.45 1.28.15.42.3.85.45 1.27.31.86.61 1.72.91 2.6 1.82 5.25 3.63 10.84 5.42 16.69.65 2.09 1.29 4.23 1.92 6.39.57 1.92 1.13 3.87 1.69 5.85.38 1.35.77 2.72 1.15 4.1a742.597 742.597 0 0 1 6.581 25.56c.99 4.15 1.96 8.35 2.91 12.61.37 1.71.75 3.44 1.13 5.16.54 2.52 1.07 5.05 1.59 7.61 0 .01.01.01.01.02.69 3.34 1.36 6.71 2 10.09.18.91.35 1.82.52 2.73 1.33 7.01 2.57 14.1 3.71 21.21.12.72.23 1.44.35 2.15.32 2.06.64 4.13.95 6.19.23 1.53.46 3.07.68 4.61 1.39 9.69 2.44 18.83 3.18 27.42 2.01 23.33 1.76 42.7-.17 58.63-1.01 8.46-2.5 15.94-4.37 22.54-.33 1.17-.67 2.31-1.02 3.42-.62 1.94-1.28 3.8-1.96 5.58-.46 1.18-.93 2.33-1.41 3.45-.25.56-.49 1.1-.74 1.64-.41.89-.83 1.76-1.27 2.61-.18.35-.36.69-.54 1.03-.43.82-.87 1.62-1.33 2.4-1.91 3.29-3.97 6.15-6.12 8.63-.62.71-1.24 1.38-1.88 2.03-9.41 9.59-20.55 12.33-30.77 10.47-2.54-.46-4.96-3.57-7.29-8.78-7.76-17.33-14.62-57.86-22.26-101.2-17.45-99.02-42.18-195.98-38.54-204.21.17-.38.46-.77.87-1.18.3-.31.68-.62 1.11-.94.15-.11.3-.22.45-.32.37-.25.77-.5 1.2-.75.43-.27.9-.52 1.4-.78.24-.13.49-.26.75-.38.25-.13.52-.26.79-.39h.01c.47-.23.96-.45 1.46-.67h.01c.51-.23 1.03-.45 1.57-.67h.01c.54-.23 1.1-.45 1.67-.67 1.15-.44 2.37-.89 3.63-1.32.63-.22 1.27-.43 1.92-.65.17-.05.33-.11.5-.16.49-.16.99-.32 1.5-.47 1.01-.32 2.03-.63 3.07-.93l1.06-.3c.7-.2 1.41-.4 2.11-.59 14.778-3.98 31.419-6.4 35.979-3.57zM61.447 731.031c.29-.15.61-.3.96-.42 11.25-4 26.69.32 45.49 12.91.89.6 1.79 1.22 2.7 1.85.45.32.9.64 1.36.97.92.65 1.84 1.33 2.77 2.02 3.46 2.57 7.03 5.41 10.7 8.51.53.44 1.06.89 1.59 1.35 2.21 1.89 4.46 3.89 6.75 5.98.77.71 1.55 1.42 2.33 2.15 1.02.95 2.04 1.91 3.07 2.9.79.75 1.58 1.51 2.38 2.29 3.16 3.08 6.39 6.33 9.67 9.74 1.09 1.14 2.18 2.29 3.29 3.46l1.66 1.78c5.01 5.38 10 11.07 14.9 16.95 1.4 1.68 2.79 3.37 4.17 5.08 4.46 5.51 8.84 11.15 13.09 16.86.76 1.02 1.51 2.04 2.27 3.07 33.77 46.01 59.15 95.31 54.44 106.8-.53 1.3-2.35 2.68-5.03 4.07-.41.21-.85.42-1.3.63-.46.21-.93.43-1.42.64s-.99.42-1.51.63c-.26.1-.53.21-.81.31-.81.32-1.65.63-2.52.93s-1.78.61-2.72.91c-.61.2-1.24.4-1.88.59h-.01c-.63.2-1.28.39-1.93.57-.99.28-2 .56-3.03.83-.67.19-1.35.36-2.03.53-.01-.01-.01-.01-.02 0-1.03.26-2.07.51-3.11.75 0 0-.01-.01-.02 0-.69.17-1.39.32-2.08.47-.01-.01-.01 0-.02 0-1.4.31-2.8.6-4.19.86-.01-.01-.01-.01-.02 0-3.11.6-6.18 1.1-9.08 1.46-.9.12-1.78.22-2.64.3 0 0-.01-.01-.02 0-1.29.13-2.54.23-3.72.3-1.95.12-3.73.14-5.3.06-.42-.02-.82-.05-1.2-.08-.57-.06-1.11-.12-1.6-.21-.44-.07-.85-.17-1.22-.27-.96-.26-1.7-.62-2.16-1.08-1.26-1.24-2.85-3.6-4.85-7-.33-.57-.67-1.17-1.03-1.79s-.73-1.28-1.11-1.96c-.19-.34-.38-.69-.58-1.04-.39-.71-.79-1.45-1.21-2.21-.21-.39-.42-.78-.64-1.17-.43-.79-.87-1.61-1.33-2.46-.45-.85-.92-1.73-1.41-2.63-.48-.9-.98-1.83-1.49-2.78-4.6-8.6-10.33-19.35-17.45-32-.4-.71-.8-1.41-1.2-2.13-.81-1.43-1.64-2.88-2.48-4.36-.42-.74-.85-1.48-1.28-2.23-.86-1.5-1.74-3.02-2.64-4.56-.45-.78-.9-1.55-1.36-2.34-.92-1.56-1.85-3.15-2.8-4.76-.96-1.62-1.93-3.25-2.92-4.9-4.46-7.45-9.31-15.34-14.58-23.63-.47-.73-.93-1.47-1.4-2.2-.94-1.47-1.89-2.93-2.83-4.39-.95-1.46-1.9-2.92-2.85-4.37-.96-1.45-1.91-2.9-2.87-4.34l-1.44-2.16c-.96-1.44-1.91-2.87-2.87-4.29-.96-1.43-1.92-2.85-2.87-4.26-.96-1.41-1.91-2.82-2.86-4.22-.95-1.39-1.9-2.78-2.84-4.16l-1.41-2.07c-.94-1.37-1.87-2.73-2.8-4.09-.93-1.35-1.85-2.69-2.76-4.02-2.74-4-5.41-7.9-7.97-11.69-.85-1.27-1.7-2.51-2.53-3.75-.42-.61-.83-1.23-1.24-1.84-.81-1.22-1.62-2.43-2.41-3.62-1.58-2.38-3.11-4.71-4.56-6.96v-.01c-1.09-1.69-2.14-3.35-3.15-4.96-.67-1.08-1.33-2.14-1.96-3.18s-1.25-2.06-1.84-3.07c-.53-.9-1.05-1.79-1.54-2.66a131.78 131.78 0 0 1-3.17-5.83c-.45-.88-.87-1.74-1.27-2.57-1.69-3.54-2.91-6.67-3.54-9.34-.24-.97-.4-1.88-.47-2.72v-.01c-.299-3.21.551-5.5 2.81-6.72z" fill="#dbdbdb"/><path d="M299.361 1944.223h-42.043a7.479 7.479 0 0 1-7.479-7.479v-16.043a7.479 7.479 0 0 1 7.479-7.479h42.043a7.479 7.479 0 0 1 7.479 7.479v16.043a7.48 7.48 0 0 1-7.479 7.479z" fill="#676768"/><path d="m1794.839 2195.223 123.626-60.891a6.045 6.045 0 0 0 3.374-5.423v-33.64a6.045 6.045 0 0 0-6.045-6.045h-88.667c-17.832 0-32.287 14.456-32.287 32.287v73.712z" fill="#959599"/><path d="M1877.839 2180.723c0 41.145-33.355 74.5-74.5 74.5h-17.5c-32.704-7.87-57-39.38-57-74.5 0-41.145 33.355-74.5 74.5-74.5s74.5 33.355 74.5 74.5z" fill="#4b4b4c"/><circle cx="1786.339" cy="2180.723" fill="#676768" r="74.5"/><circle cx="1786.339" cy="2180.723" fill="#b2b2b2" r="53.5"/><path d="M1845.839 1973.223h50v133h-50z" fill="#b2b2b2"/><path d="M1840.031 1934.223h60.617a5.192 5.192 0 0 1 5.192 5.191v41.617a5.192 5.192 0 0 1-5.192 5.192h-60.617a5.192 5.192 0 0 1-5.192-5.192v-41.617a5.192 5.192 0 0 1 5.192-5.191z" fill="#676768"/><path d="m1814.886 2177.469 87.579-43.137a6.045 6.045 0 0 0 3.374-5.423v-33.64a6.045 6.045 0 0 0-6.045-6.045h-88.667c-17.832 0-32.287 14.456-32.287 32.287v33.531c-.001 18.519 19.432 30.609 36.046 22.427z" fill="#dbdbdb"/><path d="m1845.839 1986.223 38 18 12 85v-103z" fill="#959599"/><path d="M840.02 1100.643c-.01-.02-.02-.03-.03-.05-28.85-47.62-57.25-63.35-66.15-78.37-8.91-15.02-2.79-188.11-2.79-188.11 7.43 52.09 11.66 110.63 28.79 161.11 12.99 38.28 26.799 73.44 40.18 105.42z" fill="#8fa9ea"/><path d="M1629.029 1366.893s-106.75 50.95-182.93 56.25c-78.1 5.43-258.04.92-250.22-4.7 20.56-14.76 251.57 18.78 394.26-55.21a773.671 773.671 0 0 0 38.89 3.66zm-1103.19 308.33s73.727-80.227 332-111c235-28 447 50 460-7l1 176-587 9z" fill="#597eb5"/><path d="M536.52 1719.963c-87.27 57.17-130.55 112.63-144.35 112.93 3.17-3.16 28.85-28.68 48.67-47.67 24-23 68-107 96-117z" fill="#597eb5"/><path d="M889.018 1561.101c-.85-4.13-1.44-9.46-1.76-15.19-.17-3.15-.26-6.43-.26-9.69h-51.37c.08 3.18.08 6.47-.02 9.72-.2 6.66-.79 13.17-1.75 18.28-.21 1.13-.44 2.18-.68 3.16 2.01-.28 4.03-.55 6.06-.82.89-.12 1.78-.23 2.68-.35l3.95-.51c3.94-.51 7.93-1 11.97-1.48h31.94c-.28-.94-.53-1.98-.76-3.12zm420.96 9.89c.34.91.66 1.82.94 2.71-.281-.89-.59-1.8-.94-2.71zm-420.96-9.89c-.85-4.13-1.44-9.46-1.76-15.19-.17-3.15-.26-6.43-.26-9.69h-51.37c.08 3.18.08 6.47-.02 9.72-.2 6.66-.79 13.17-1.75 18.28-.21 1.13-.44 2.18-.68 3.16 2.01-.28 4.03-.55 6.06-.82.89-.12 1.78-.23 2.68-.35l3.95-.51c3.94-.51 7.93-1 11.97-1.48h31.94c-.28-.94-.53-1.98-.76-3.12zm421.9 12.6c-.28-.89-.59-1.8-.94-2.71.34.91.659 1.82.94 2.71zm63.21 94.62c-.01-.78-.01-1.55-.03-2.32-.01-.77-.02-1.55-.04-2.32-.03-1.73-.08-3.47-.14-5.22-.1-2.58-.22-5.15-.36-7.73-.06-1.08-.12-2.16-.19-3.23 0-.06-.01-.12-.01-.18-.12-1.83-.25-3.65-.39-5.48-.22-2.74-.46-5.48-.73-8.22-.36-3.65-.78-7.3-1.24-10.92 0-.01 0-.03-.01-.04-.17-1.39-.36-2.77-.56-4.15-.17-1.3-.36-2.6-.56-3.89-.35-2.34-.73-4.67-1.13-6.98-.21-1.26-.43-2.51-.66-3.76-.32-1.77-.66-3.53-1-5.27-.26-1.31-.53-2.62-.81-3.92-.55-2.6-1.13-5.17-1.74-7.71-.15-.64-.3-1.27-.46-1.9-.15-.63-.31-1.26-.47-1.89-.26-1.03-.52-2.06-.8-3.08-.16-.64-.33-1.27-.51-1.9-.61-2.25-1.25-4.47-1.91-6.65-.17-.57-.34-1.14-.52-1.7-.3-.96-.6-1.9-.9-2.84-.25-.79-.51-1.58-.77-2.35l-.15-.45c-.5-1.47-1.01-2.92-1.53-4.35-.19-.53-.38-1.06-.58-1.58-.33-.89-.66-1.77-1-2.64-.15-.38-.3-.76-.45-1.13-.95-2.41-1.93-4.75-2.96-7.02-.27-.62-.55-1.23-.83-1.84-.67-1.46-1.36-2.89-2.06-4.28-.2-.4-.4-.8-.61-1.19-.3-.59-.61-1.17-.92-1.75-.33-.64-.67-1.26-1.02-1.88-.06-.11-.11-.21-.17-.31-.01-.01-.01-.02-.02-.03-.28-.51-.56-1.01-.85-1.5-.35-.6-.7-1.2-1.06-1.79-.35-.59-.71-1.18-1.08-1.75-.31-.5-.62-.99-.95-1.48a50 50 0 0 0-.8-1.2c-.25-.38-.5-.75-.76-1.11a77.07 77.07 0 0 0-3.12-4.23c-.26-.34-.53-.68-.8-1-.25-.31-.49-.61-.75-.9-.28-.35-.58-.7-.88-1.04-10.49-12.02-24.9-22.65-42.5-31.9-10.7-5.63-22.58-10.74-35.48-15.35h-.03a372.96 372.96 0 0 0-22.61-7.3c-53.36-15.48-120.18-23.68-191.38-24.94-42.59-.75-86.74.98-130.51 5.13-4.42.42-8.84.86-13.25 1.33-35.19 3.74-70.01 9.04-103.43 15.87-14.88 3.04-29.48 6.38-43.72 10.03h-.03c-61.01 15.61-115.28 36.74-155.8 63.13-4.94 3.2-9.67 6.49-14.18 9.86-7.79 5.82-14.93 11.86-21.36 18.14-6.27 6.11-11.87 12.45-16.72 19-11.96 16.14-17.85 53.85-17.94 91.76v.26c-.01 6.69.16 13.39.51 19.98.22 4.05.5 8.06.85 12 .54 6.03 1.23 11.9 2.09 17.5.28 1.84.57 3.65.89 5.43.17.97.34 1.93.53 2.87 1.29 6.79 2.83 13.07 4.64 18.63.48 1.49.97 2.92 1.49 4.3 1.3 3.46 2.7 6.57 4.22 9.27 2.32 4.14 4.9 7.33 7.74 9.35.32.23.65.45.98.65.16.1.34.19.55.28.08.04.17.08.27.12s.21.09.32.13c.51.21 1.12.4 1.83.59.14.04.29.09.44.12.26.07.55.14.84.21.14.03.29.07.45.1 1 .23 2.12.45 3.38.67.24.04.48.08.73.12.1.02.2.04.3.05.4.07.82.13 1.24.2.54.08 1.09.16 1.66.24.57.09 1.15.17 1.76.25 1.27.16 2.61.33 4.02.49.74.08 1.5.17 2.28.25a440.925 440.925 0 0 0 9.26.89c3.69.32 7.68.63 11.96.93 1.16.09 2.33.17 3.53.24 1.13.08 2.27.16 3.44.23 2.29.15 4.64.29 7.07.43 1.21.07 2.43.14 3.68.21 2.5.14 5.06.28 7.68.41.65.04 1.31.07 1.98.1 2.14.11 4.33.22 6.55.32l3.33.15c.12.01.24.02.36.02l1.94.09 1.96.09 3.64.15 4.8.21c.95.03 1.91.07 2.87.11.93.04 1.87.08 2.82.11l3.8.15c.9.03 1.8.07 2.71.1 28.82 1.06 62.28 1.94 98.63 2.62l8.1.15c5.67.1 11.4.19 17.19.28 1.48.03 2.96.05 4.45.07 2.97.05 5.95.09 8.95.13a6728.641 6728.641 0 0 0 22.37.29l7.56.09c.43 0 .86.01 1.3.01 9.41.11 18.93.2 28.53.28h.01c1.23.02 2.46.03 3.69.04 6.19.05 12.41.1 18.66.14 4.07.03 8.16.05 12.25.07 7.37.04 14.77.08 22.19.11l11.14.03c3.72.02 7.44.03 11.16.03 4.23.01 8.46.02 12.69.02 7.94.01 15.87.01 23.8 0 3.58 0 7.15 0 10.73-.01l11.83-.03 10.24-.03c.52 0 1.04 0 1.55-.01 6.95-.02 13.88-.05 20.78-.09 1.27-.01 2.53-.01 3.8-.02l17.95-.12 8.22-.06c11.28-.09 22.43-.2 33.43-.32 2.74-.03 5.51-.07 8.3-.1 2.2-.03 4.4-.05 6.59-.08l6.55-.09 6.5-.09c6.85-.09 13.62-.2 20.3-.31 3.48-.05 6.94-.12 10.36-.17.37-.01.73-.02 1.09-.02 3.33-.07 6.62-.13 9.89-.19 2.8-.06 5.58-.11 8.34-.17 37.05-.76 70.56-1.76 98.49-2.99 47.02-2.06 78.24-4.8 83.94-8.22.63-.38 1.26-.79 1.87-1.24.3-.22.61-.45.91-.69a27.047 27.047 0 0 0 2.47-2.18c.28-.27.55-.54.82-.82.03-.03.06-.06.08-.09.91-.96 1.8-2 2.65-3.11.29-.37.57-.75.85-1.14l.09-.12c.15-.2.29-.41.43-.61a56.14 56.14 0 0 0 3.62-5.98c.3-.55.59-1.12.87-1.69.28-.56.55-1.13.82-1.71.02-.02.03-.05.04-.08.42-.9.83-1.83 1.23-2.77.36-.83.7-1.69 1.04-2.55.24-.61.47-1.23.7-1.85.65-1.76 1.26-3.58 1.85-5.45.26-.82.51-1.65.76-2.5l.12-.42c.18-.65.37-1.31.56-1.98.45-1.68.89-3.4 1.3-5.15.09-.36.18-.73.26-1.11.06-.25.12-.5.17-.75.14-.62.28-1.24.41-1.87.21-.95.4-1.91.6-2.87.15-.79.3-1.59.45-2.39.15-.81.3-1.63.44-2.46.19-1.1.37-2.22.55-3.35s.36-2.27.52-3.41l.27-2.01c.27-1.97.51-3.97.73-6 .36-3.27.67-6.6.92-9.99l.12-1.66c.03-.4.06-.81.08-1.21.07-1.03.13-2.06.19-3.1.06-1.15.12-2.3.17-3.46.02-.3.03-.6.04-.9.04-.97.08-1.94.11-2.91l.09-2.95.06-2.96c.01-.55.02-1.1.02-1.65.01-.68.02-1.36.02-2.05.01-1.34.01-2.69 0-4.03-.001-.56-.001-1.12-.01-1.68zm-108.93-139.78c4.31 1.85 8.21 3.74 11.64 5.68 1.16.65 2.28 1.32 3.37 2 .28.18.56.35.84.53 3.84 2.44 7.25 5.02 10.28 7.7.47.41.92.83 1.37 1.24.2.18.39.36.58.54.47.45.93.9 1.38 1.34.88.88 1.73 1.77 2.53 2.66.34.37.68.75 1.01 1.13.67.78 1.32 1.56 1.93 2.34.31.38.61.77.9 1.16l.87 1.17c1.12 1.54 2.14 3.09 3.07 4.63.16.27.32.54.47.8.09.15.17.29.25.43.22.39.44.78.65 1.17.22.39.43.78.62 1.16.19.36.38.73.56 1.09.05.09.09.18.13.27.22.45.44.9.65 1.36.17.38.34.76.5 1.13l.09.21c.19.45.38.9.56 1.34.19.46.36.92.53 1.37.34.91.66 1.82.94 2.71.11.34.21.67.31 1s.2.66.29.99c.19.66.36 1.31.52 1.95.15.64.3 1.27.43 1.9.06.32.12.63.18.94.13.67.24 1.32.34 1.97.05.35.1.69.14 1.03.02.1.03.21.04.31.05.39.09.78.13 1.16.02.27.05.54.07.8.03.39.05.77.08 1.15.02.38.03.76.05 1.12.01.43.02.84.02 1.25 0 .39-.01.77-.02 1.14-.03 1.11-.11 2.14-.23 3.1-.06.51-.14 1-.23 1.47-.08.47-.18.91-.29 1.33-.14.56-.31 1.08-.49 1.55-.05.14-.1.28-.16.41-.23.56-.49 1.04-.76 1.42-4.83 6.79-46.43-.35-104.31-8.7-2.52-.36-5.07-.73-7.65-1.09-30.1-4.28-64.18-8.73-99.54-11.68-20.66-1.72-39.64-3.01-57-3.98-97.99-5.44-144.52-.59-150.61-5.19-.94-.71-1.76-2.41-2.45-4.83-.28-.94-.53-1.98-.76-3.12-.85-4.13-1.44-9.46-1.76-15.19-.17-3.15-.26-6.43-.26-9.69 0-13.48 1.52-26.68 4.84-30 4.37-4.37 16.6-7.91 34.02-10.48 28.8-4.26 71.8-5.9 116.98-4.38 11.92.4 24 1.01 36 1.86 49.92 3.52 101.57 11.02 141.75 21.03h.01c17.37 4.33 32.59 9.13 44.6 14.29zm-562.62 17.48h.03c7.59-3.46 15.25-6.73 22.91-9.8 48.77-19.56 95.93-30.7 105.32-24 2.91 2.08 4.47 12.37 4.79 24 .08 3.18.08 6.47-.02 9.72-.2 6.66-.79 13.17-1.75 18.28-.21 1.13-.44 2.18-.68 3.16-.89 3.52-2 6.01-3.34 6.84-8 5-49 12-115 35-62.18 21.67-123 52-125 34-.35-3.15-.06-6.46.87-9.91 5.19-19.36 30.44-43.12 75-68.59.29-.17.58-.33.88-.5 11.31-6.42 23.52-12.55 35.99-18.2zm607.4 24.97c.34.91.66 1.82.94 2.71-.281-.89-.59-1.8-.94-2.71zm-420.96-9.89c-.85-4.13-1.44-9.46-1.76-15.19-.17-3.15-.26-6.43-.26-9.69h-51.37c.08 3.18.08 6.47-.02 9.72-.2 6.66-.79 13.17-1.75 18.28-.21 1.13-.44 2.18-.68 3.16 2.01-.28 4.03-.55 6.06-.82.89-.12 1.78-.23 2.68-.35l3.95-.51c3.94-.51 7.93-1 11.97-1.48h31.94c-.28-.94-.53-1.98-.76-3.12zm0 0c-.85-4.13-1.44-9.46-1.76-15.19-.17-3.15-.26-6.43-.26-9.69h-51.37c.08 3.18.08 6.47-.02 9.72-.2 6.66-.79 13.17-1.75 18.28-.21 1.13-.44 2.18-.68 3.16 2.01-.28 4.03-.55 6.06-.82.89-.12 1.78-.23 2.68-.35l3.95-.51c3.94-.51 7.93-1 11.97-1.48h31.94c-.28-.94-.53-1.98-.76-3.12zm467.49-1.23c-.19-.53-.38-1.06-.58-1.58-.33-.89-.66-1.77-1-2.64-.15-.38-.3-.76-.45-1.13-.95-2.41-1.93-4.75-2.96-7.02-.27-.62-.55-1.23-.83-1.84h-7.51l-50.48.03c.2.18.39.36.58.54.47.45.93.9 1.38 1.34.88.88 1.73 1.77 2.53 2.66.34.37.68.75 1.01 1.13.67.78 1.32 1.56 1.93 2.34.31.38.61.77.9 1.16l.87 1.17c1.12 1.54 2.14 3.09 3.07 4.63.16.27.32.54.47.8.09.15.17.29.25.43.22.39.44.78.65 1.17.22.39.43.78.62 1.16h51.08c-.5-1.47-1.01-2.92-1.53-4.35zm0 0c-.19-.53-.38-1.06-.58-1.58-.33-.89-.66-1.77-1-2.64-.15-.38-.3-.76-.45-1.13-.95-2.41-1.93-4.75-2.96-7.02-.27-.62-.55-1.23-.83-1.84h-7.51l-50.48.03c.2.18.39.36.58.54.47.45.93.9 1.38 1.34.88.88 1.73 1.77 2.53 2.66.34.37.68.75 1.01 1.13.67.78 1.32 1.56 1.93 2.34.31.38.61.77.9 1.16l.87 1.17c1.12 1.54 2.14 3.09 3.07 4.63.16.27.32.54.47.8.09.15.17.29.25.43.22.39.44.78.65 1.17.22.39.43.78.62 1.16h51.08c-.5-1.47-1.01-2.92-1.53-4.35z" fill="#dbdbdb"/><path d="M2474.616 1967.223h-721.638c-10.57 0-19.138-8.568-19.138-19.138v-39.723c0-10.57 8.568-19.138 19.138-19.138h721.638c15.587 0 28.223 12.636 28.223 28.223V1939c0 15.587-12.636 28.223-28.223 28.223z" fill="#777"/><path d="M819.13 1843.073a8.963 8.963 0 0 1 2.71 6.43v7.79c0 2.97-1.44 5.61-3.67 7.24a9.003 9.003 0 0 1 4.67 7.89v7.8a9 9 0 0 1-9 9h-431s92.49-3.17 194.76-22.93c4.771-.92 9.57-1.87 14.38-2.87 24.84-5.15 50.03-11.29 74.4-18.63 4.61-1.38 9.18-2.81 13.72-4.29 17.16-5.56 33.79-11.75 49.47-18.63 2.15-.95 4.27-1.9 6.38-2.87 12.5-5.74 24.33-11.93 35.27-18.63 2.31-1.41 4.57-2.85 6.8-4.3 8.92-5.84 17.17-12.05 24.62-18.63 1.07-.95 2.13-1.91 3.16-2.87 3.51-3.25 6.81-6.59 9.91-10.03l5.05 5.11a8.937 8.937 0 0 1-3.59 6.03 9.003 9.003 0 0 1 4.67 7.89v7.8c0 2.74-1.23 5.2-3.17 6.85a8.974 8.974 0 0 1 3.17 6.85v7.8c0 2.97-1.44 5.61-3.67 7.24a9.003 9.003 0 0 1 4.67 7.89v7.79c-.001 3-1.46 5.65-3.71 7.28z" fill="#565656"/><path d="M1344.839 1775.223c-5.7 3.42-36.92 6.16-83.94 8.22-27.93 1.23-61.44 2.23-98.49 2.99-22.09.46-45.44.83-69.62 1.12-86.73 1.05-184.12 1.06-272.25.06-23.67-.26-46.67-.6-68.62-1.01-36.35-.68-69.81-1.56-98.63-2.62-58.12-2.15-97.39-5.08-103.45-8.76 0 0 425.86 21.61 657.19-184.23 57.88 8.35 99.48 15.49 104.31 8.7 4.93-6.92 4.5-43.47-34.5-65.47-3.43-1.94-7.33-3.83-11.64-5.68a409.427 409.427 0 0 0 27.14-40.22c17.6 9.25 32.01 19.88 42.5 31.9 48 55 52.88 229.27 10 255z" fill="#d3d3d3"/><path d="M1092.79 1787.553c-86.73 1.05-153.82 1.67-241.95.67-24-16-51-73-1.63-112.91 32.63-21.09 68.15-17.81 96.52 3.22z" fill="#b2b2b2"/><path d="M1180.37 1982.872c34.582-22.217 36.253-72.163 3.233-96.642l-255.518-189.423c-19.624-14.548-46.202-15.437-66.755-2.233-34.582 22.217-36.253 72.163-3.233 96.642l255.518 189.423c19.624 14.548 46.202 15.437 66.755 2.233z" fill="#dbdbdb"/><circle cx="1149.47" cy="1934.924" fill="#676768" r="33.894"/><circle cx="892.23" cy="1742.522" fill="#676768" r="33.894"/><path d="M2345.839 1833.223c0 2.48-1.01 4.74-2.64 6.36-.53.53-1.13 1-1.78 1.38-1.34.8-2.91 1.26-4.58 1.26h-431c-1.27 0-2.48-.27-3.58-.74-3.19-1.39-5.42-4.56-5.42-8.26 0-2.48 1.01-4.74 2.64-6.36a8.954 8.954 0 0 1 6.36-2.64h431a9 9 0 0 1 9 9z" fill="#676768"/><path d="M2346.839 1849.223c0 2.48-1.01 4.74-2.64 6.36-.57.57-1.22 1.07-1.93 1.47a8.877 8.877 0 0 1-4.43 1.17h-431c-2.04 0-3.93-.68-5.43-1.83a8.964 8.964 0 0 1-3.57-7.17c0-2.48 1.01-4.74 2.64-6.36.53-.53 1.13-1 1.78-1.38 1.34-.8 2.91-1.26 4.58-1.26h431c1.27 0 2.48.27 3.58.74 3.19 1.39 5.42 4.56 5.42 8.26z" fill="#676768"/><path d="M2345.839 1864.223c0 2.48-1.01 4.74-2.64 6.36-.53.53-1.13 1-1.78 1.38-1.34.8-2.91 1.26-4.58 1.26h-431c-1.27 0-2.48-.27-3.58-.74-3.19-1.39-5.42-4.56-5.42-8.26 0-2.48 1.01-4.74 2.64-6.36.57-.57 1.22-1.07 1.93-1.47a8.877 8.877 0 0 1 4.43-1.17h431c2.04 0 3.93.68 5.43 1.83a8.964 8.964 0 0 1 3.57 7.17z" fill="#676768"/><path d="M2346.839 1880.223c0 2.48-1.01 4.74-2.64 6.36a8.954 8.954 0 0 1-6.36 2.64h-431a9 9 0 0 1-9-9c0-2.48 1.01-4.74 2.64-6.36.53-.53 1.13-1 1.78-1.38 1.34-.8 2.91-1.26 4.58-1.26h431c1.27 0 2.48.27 3.58.74 3.19 1.39 5.42 4.56 5.42 8.26z" fill="#676768"/><path d="M41.329 723.223s242.511 176 222.511 609l-8.043 31.369-232.851-634.42z" fill="#8fa9ea"/><path d="M383.018 1279.031c-.749-29.659-3.833-61.158-8.7-93.13-.01-.01-.01-.01 0-.02-.759-4.845-1.535-9.674-2.34-14.53-15.176-88.339-41.161-175.001-76.38-257.44-44.135-99.547-145.817-299.16-277.019-239.844-34.123 27.93-12.015 82.823-5.704 126.493 9.594 48.743 22.755 110.277 34.713 163.651 24.517 109.698 51.821 225.202 79.31 332.55 23.299 67.373 24.172 164.339 87.954 191.563 48.926 6.083 100.163-16.37 132.056-53.373 34.604-43.387 36.391-102.593 36.11-155.92zm-118.2-285.74c3.344 2.193 5.71 5.777 8.05 9.45v.01c2.114 3.444 4.141 7.421 5.9 11.18 28.421 67.126 67.165 222.709 31.842 287.16-7.201 15.748-37.97 33.623-46.063 12.35-7.759-17.33-14.62-57.86-22.259-101.2-14.576-105.488-52.122-198.081-31.96-208.95.473-.227.964-.46 1.47-.67.513-.227 1.035-.46 1.58-.67 13.292-5.595 44.352-12.823 51.44-8.66zM61.447 731.031c43.126-12.403 104.348 65.029 129.151 97.448 33.769 46.012 59.15 95.312 54.44 106.802-5.052 6.261-16.473 8.28-24.19 10.64-.01-.01-.01-.01-.02 0-1.03.26-2.07.51-3.11.75 0 0-.01-.01-.02 0-.69.17-1.39.32-2.08.47-1.39.295-2.817.604-4.21.86-.01-.01-.01-.01-.02 0-4.065.771-7.81 1.338-11.72 1.76 0 0-.01-.01-.02 0-16.381 2.66-17.39-3.289-24.62-16.451-7.878-14.641-16.697-31.358-26.64-48.589-21.645-38.626-48.263-75.612-72.81-112.62v-.01c-4.736-9.226-23.839-32.498-14.131-41.06z" fill="#dbdbdb"/><path d="M358.089 1798.333c-60.41-87.73-43.02-234.11-110.25-234.11-16.49-2.62-24.95-7.52-28.49-13.99.35.31 6.97 5.94 24.49 3.99 18-2 45.88-17.85 55.62.41 25.38 47.59 23.9 183.81 58.63 243.7z" fill="#597eb5"/><path d="M2490.839 1666.223c-38.46 101.7-522.43 117.95-687.94 44.99 5.43-.46 364.21-31.88 502.52-304.69 43.97 24.46 118.24 54 126.75 45.88 9.78-9.33 5.96-109.01-85.62-163.14 3.68-17.2 6.6-35.09 8.68-53.71 34.89 16.78 65.52 38.54 89.61 65.67 68.56 77.2 46 365 46 365zm-2124.5-264.19v.01c-3.9 9.64-8.51 18.26-13.86 25.72-32.03 44.61-94.03 67.32-137.62 60.56-36.02-12.1-49.78-51.06-62.53-96.37-7.59-26.9-16.22-59.3-25.43-95.19-5.5-21.4-11.2-44.05-17.01-67.52-20.85-84.2-43.13-179-62.3-265.03a8920.81 8920.81 0 0 1-14.71-67.03c-7.65-35.54-14.44-68.32-20-96.62-6.23-31.8-12.98-61.48-12.38-84.99.001 0 180.34 811.26 365.84 686.46z" fill="#d3d3d3"/><path d="M2346.839 1880.223c0 2.48-1.01 4.74-2.64 6.36a8.954 8.954 0 0 1-6.36 2.64h-430.13c11.79 0 141.23-.36 258.3-16 4.79-.64 9.55-1.31 14.29-2 24.5-3.57 48.21-7.86 69.89-13 4.09-.97 8.1-1.97 12.03-3 14.82-3.88 28.5-8.19 40.6-13 1.65-.66 3.27-1.32 4.86-2 11.42-4.84 21.28-10.15 29.16-16a9 9 0 0 1 9 9c0 2.48-1.01 4.74-2.64 6.36-.53.53-1.13 1-1.78 1.38 3.19 1.39 5.42 4.56 5.42 8.26 0 2.48-1.01 4.74-2.64 6.36-.57.57-1.22 1.07-1.93 1.47a8.964 8.964 0 0 1 3.57 7.17c0 2.48-1.01 4.74-2.64 6.36-.53.53-1.13 1-1.78 1.38 3.19 1.39 5.42 4.56 5.42 8.26z" fill="#565656"/><path d="M491.521 1117.364c13.846 10.554 115.878 36.73 226.144 2.484 50.121-15.566-37.527 3.889-106.706-10.375-117.573-24.244-190.396-104.054-200.593-99.535s49.507 90.308 81.155 107.426z" fill="#8fa9ea"/></svg></g><g transform="translate(335.6756756756757 719.1891891891893) rotate(0.0 671.7567567567569 454.054054054054) scale(0.8550401763099381 0.8556354108992976)"><svg width="1571.287" height="1061.326" viewBox="0 0 1571.287 1061.326"><linearGradient id="d" gradientTransform="matrix(1.1608 -.5127 -.5132 -1.1616 1803.4324 3673.1208)" gradientUnits="userSpaceOnUse" x1="-12.266" x2="22.892" y1="3021.861" y2="3021.861"><stop offset=".077" stop-color="#fab697"/><stop offset=".577" stop-color="#fd7b68"/></linearGradient><linearGradient id="e" gradientTransform="matrix(-.6002 1.1194 1.1192 .6011 15012.2695 4181.2085)" gradientUnits="userSpaceOnUse" x1="2739.291" x2="2774.43" y1="-11795.405" y2="-11795.405"><stop offset=".077" stop-color="#fab697"/><stop offset=".727" stop-color="#fd7b60"/></linearGradient><path d="M399.482 736.325c-22.071-.929-45-10-59-32-20.68-32.497-213.69-367.37-112-406 113 11 152 105 181 292 3-17 7-22 19-24 8 10 45 22 86 21 12 1-20 153-115 149z" fill="#ffbec4"/><path d="M409.482 590.325s2.965 10.78 26.483 27.39l-29.483-11.39s2-10 3-16zm81.938 10.427s-11.012 1.878-31.937-3.427c-19.839-5.03 5 9 17 12z" fill="#f297ab"/><path d="M588.439 349.042a24.088 24.088 0 0 0 2.15-3.246c.197-.337.381-.686.546-1.05 6.422-13.499-7.2-24.477-15.92-22.097.333-.208.66-.409.996-.622.077-.038.142-.084.218-.132 2.297-1.455 4.146-2.966 5.611-4.499l.01-.001c10.137-10.609 1.528-22.051-6.235-21.799-4.76.155-15.463 5.801-28.749 13.624-.845.43-1.695.857-2.556 1.278 0 0-.163.077-.45.226a2.907 2.907 0 0 1-.23.114c-6.884 3.32-14.203 6.221-20.994 7.25-5.277.798-10.234.468-14.438-1.675-13.373-6.816-9.181-28.359-30.84-45.101-4.28-3.312-13.121-5.706-16.256-3.383-5.67 4.214 9.192 24.348 14.464 54.724 6.064 34.991-5.177 32.726.981 60.703 1.437 6.537 3.435 15.295 6.587 22.588-.765 2.127-4.282 11.888-9.183 25.631-15.53 43.44-45.02 126.73-46 135.04 24.33 27.71 79.96 25.39 86.53 20.71.48-.85 1.19-4.11 2.05-9.18.01-.04.02-.08.02-.12h.01c4.08-23.94 11.67-87.66 16.48-129.31a6705.382 6705.382 0 0 0 2.968-25.907c.243-.078.485-.153.729-.234 9.26-3.084 17.278-11.251 22.535-14.368.01-.001.009-.011.019-.012-.001-.01.008-.021.028-.023.76-.438 1.45-.778 2.083-.981 5.18-1.673 9.302-3.26 12.666-4.801 2.445-1.12 4.474-2.212 6.206-3.288 1.189-.653 2.71-1.597 4.661-2.926 8.171-6.14 6.165-14.207 1.653-17.905 1.204-.411 2.96-1.482 5.509-3.59 11.167-9.233 4.38-21.055-3.859-25.638z" fill="#fbb798"/><g fill="#f58f73"><path d="M578.611 395.03c.564.316-1.483 3.665-4.341 7.357-3.364 1.542-7.486 3.129-12.666 4.801-.633.204-1.323.544-2.083.982.502-.512 5.528-5.536 4.488-6.387-1.094-.896-31.471 7.803-35.522-3.491-1.392-3.881 2.29-7.263 2.29-7.263s-9.851 1.988-12.437-3.784c-1.411-3.166 1.236-10.776 20.919-17.574-7.831 2.389-25.665 6.972-28.676.258-3.983-8.899 20.204-25.04 25.235-27.592-2.241 1.007-30.588 13.534-34.782 2.415-2.83-7.516 9.374-18.15 21.8-26.666 6.791-1.029 14.109-3.93 20.994-7.25-5.424 2.752-41.056 21.221-38.647 30.859 2.432 9.666 44.629-6.362 66.488-17.327-15.074 7.966-60.565 32.976-57.141 43.026 2.785 8.174 37.174-3.729 58.005-11.797-20.477 8.605-53.37 23.605-51.31 30.354 1.431 4.671 16.56 3.101 31.918.202-11.152 3.153-20.783 6.747-20.875 9.751-.416 14.052 44.436-1.96 46.343-.874zm-5.581-71.348c-.439.235-.889.461-1.358.688.458-.247.898-.471 1.299-.682 1.461-.769 2.523-1.307 3.058-1.581a97.628 97.628 0 0 1-2.999 1.575z"/><path d="M586.384 378.356c.276-.058.414-.081.414-.081s-.137.034-.401.11c-2.651.727-18.063 4.898-33.253 7.77 14.035-3.973 30.461-7.25 33.24-7.799zm1.636-29.036c-.106.051-.25.115-.414.182a528.67 528.67 0 0 1-14.896 6.018c7.254-3.045 12.921-5.269 14.874-6.036.174-.067.319-.122.436-.164zm-5.979-31.924c-1.465 1.533-3.314 3.044-5.611 4.499-.076.048-.141.095-.218.132l-16.864 9.361-11.751 6.519-3.097-.425-2.588-.355z"/><path d="m590.342 346.207-46.482 19.402 2.773 1.659 41.928-18.167zm.574 29.575-48.94 12.208 1.965 1.022 43.098-10.541zm-74.154 202.243-.03.12-2.05 9.18c-6.57 4.68-62.2 7-86.53-20.71 0 0 38.88 21.11 88.6 11.41zm19.47-155.41s-9.631 2.604-18.19 3.157c-8.56.553 11.506 3.828 17.473 3.19z"/></g><path d="M839.482 495.325c77.444-15.886 524-42 524-42 10.845-2.096 23.972 110.744 13 116-121 34-407 91-535 93-223 125-247 295-561 267l-24.466-160.803c118.466-90.197 505.466-257.197 583.466-273.197z" fill="#a5556b"/><path d="M1571.26 300.253c-.04 3.2-.15 6.5-.33 9.9-.97 18.14-3.96 39.23-10.31 64.19v.01c-.59 2.34-1.21 4.71-1.86 7.12-3.41 12.5-7.63 25.93-12.82 40.41-3.76 10.49-5.51 42.39-10.59 74.71-.87 5.61-1.85 11.23-2.97 16.76-3.86 19.24-9.28 37.29-17.44 49.53-23.4 35.1-84.08 27.94-112.53 18.58-1.6-.52-3.09-1.05-4.47-1.58-23 14-61.52 14.82-127.97 31.26-5.32 1.31-10.71 2.62-16.15 3.9-4.18 5.85-66.88 10.84-67.88-2.16 7.69-7.69 16-51 5.86-78.81-15.07-41.34-19.86-60.19-17.86-69.19 3-13 30-26 69.06-20.56 2.45-.1 4.89-.19 7.31-.27h.01c11.62-.23 61.4-3.3 95.27-5.03h.01c2.64-.13 5.18-.25 7.6-.37h.01c9.84-.47 17.64-.77 21.73-.77.1-.07.2-.14.3-.22 2.98-2.16 6.66-5.02 10.78-8.34 21.01-16.94 53.25-45.8 59.98-54.67 1.75-2.31 3.48-4.6 5.16-6.87 13.61-18.4 24.4-35.07 26.78-43.9 1.02-8.23 1.94-15.5 2.95-22.07 3.49-22.44 8.17-36.71 22.23-53.05 32.66-37.91 58.91-24.48 62.82-3.88 2.86 15.03 5.65 32.77 5.32 55.37z" fill="#efefef"/><path d="M1269.972 611.145c-5.32 1.31-10.71 2.62-16.15 3.9 24.34-124.27-10.82-170.72-10.82-170.72 2.45-.1 4.89-.19 7.31-.27h.01c.05.09.1.18.16.27 34 56 19.49 166.82 19.49 166.82z" fill="#dbdbdb"/><path d="M1353.2 438.653c-10.72 21.1-39.47 65.35-83.41 106.72l-4.52-3.18-2.35-5.25s57.08-52.52 82.67-97.92h.01c2.64-.13 5.18-.25 7.6-.37zm49.211 142.81c-1.6-.52-3.09-1.05-4.47-1.58 2.6-79.77-17.35-130.22-22.7-142.22 2.98-2.16 6.66-5.02 10.78-8.34 19.77 70.23 16.39 152.14 16.39 152.14zm168.849-281.21c-.04 3.2-.15 6.5-.33 9.9-31.63 2.51-57.56 11.63-57.56 11.63s-4.68 1.41-10.25 2.99c-7.39 2.09-16.35 4.47-18.01 4.22-.2-.03-.29-.1-.28-.2.09-.62 4.13-2.65 15.03-7.06 4.14-1.67 9.27-3.69 15.55-6.1 20.981-8.05 39.83-12.75 55.85-15.38z" fill="#dbdbdb"/><path d="M1560.621 374.343v.01c-.59 2.34-1.21 4.71-1.86 7.12l-73.65-52.48-.28-.2-6.89-4.91c1.02-8.23 1.94-15.5 2.95-22.07l.01.01c3.58 4.85 10.56 11.98 18.96 19.91 1.06 1 2.15 2.01 3.26 3.04 24.23 22.47 57.5 49.57 57.5 49.57zm-25.27 122.25c-.87 5.61-1.85 11.23-2.97 16.76-23.7 1.93-77.66 7.12-118.07 16.98-4.83 1.18-9.46 2.43-13.83 3.74v-4.52s4.37-2.03 12.61-5.13c20.149-7.59 63.419-21.58 122.26-27.83z" fill="#dbdbdb"/><path d="M1493.32 507.383h-12.25c-5.05-47.41-24.9-105.35-35.07-132.73 1.75-2.31 3.48-4.6 5.16-6.87 23.651 50.7 42.16 139.6 42.16 139.6z" fill="#dbdbdb"/><path d="M1358.182 1044.715v.01h-.02c-22.46 11.89-48.29 19.2-63.84 15.74-29.57-6.57-83.39-65.34-92.11-69.71-8.73-4.37-22.41-4.98-44.82-13.69-19.86-7.73-42.76-46.15-40.02-48.44l.01-.01.18-.09c11.2-2.49 53.53-72.2 53.53-72.2 48.54 6.22 54.77 27.38 77.17 44.81 12.51 9.73 30.73 19.37 62.24 29.88 48.55 16.18 82.63 32.86 90.87 63.48 4.42 16.45-17.11 36.42-43.19 50.22z" fill="#c5d6ff"/><path d="M1358.162 1044.724c-22.46 11.89-48.29 19.2-63.84 15.74-29.57-6.57-83.39-65.34-92.11-69.71-8.73-4.37-22.41-4.98-44.82-13.69-19.86-7.73-42.76-46.15-40.02-48.44l.01-.01.18-.09s19.11 33.45 38.52 39.63c19.4 6.17 40.4 1.17 50.4 11.17s64.77 68 83.38 75c18.38 6.91 67.04-9.189 68.3-9.6z" fill="#aec3ed"/><path d="M1103.482 929.325c-31-22-288-144-382-230 0 0-64 60-170 140-56.74 42.82-127 103-233 108-65.75 3.1-111.25-10.03-142.24-31.73-7.36-5.15-13.9-10.78-19.69-16.79-52.94-54.87-44.16-141.38-32.07-181.48l100-9s80.59-25.36 110-12c44-15 75-60 316-181 67.24-33.76 108.7-30.828 168 20 42 36 350 312 350 312 12 10-36 94-65 82z" fill="#c16b81"/><path d="M328.872 704.755c-29.39 41.57-119.605 77.249-152.63 210.84-7.36-5.15-13.9-10.78-19.69-16.79l-6.07-42.48 119-131zm6.242-5.673s19.368.243 35.368-5.757c0 0 80 16 79-6 0 0 24-2 20.462-14.17l-118.042-26.872-29.42 23.043zm386.368.243s-31.106-30.83-40.553-38.915 27.72 50.595 27.72 50.595z" fill="#a5556b"/><path d="M311.623 396.021c24.858 30.066 28.344 183.957 29.344 264.342.226 18.168 26.515 43.961 23.515-24.039-2.742-62.141 10-147-4-177-20.803-44.578-71-109-71-96 0 .001 13 19.001 22.141 32.697z" fill="#f297ab"/><path d="M344.164 690.465s-8.42 8.45-19.59 18.03c-.01.01-.01.01-.02.01-59.72 51.17-168.26 115.01-164.07 193.82-4 14-22 14-26-24-1.4-2.55-2.74-5.19-4.01-7.91-8.69-18.6-14.21-40.53-15.34-57.27-1.63-24.06-.05-43.43.15-45.69-.08.01-.12.01-.12.01l-64.55-255.87s2.97-16.27-2.58-21.17c-4.79-4.22-11.42-125.71 33.31-147.79 48.55-23.97 123.54-38.81 137.14-41.31 58.34 50.11 120.46 120.25 134 169 13.38 48.17-17.01 113.05-5.27 210.26z" fill="#ffbec4"/><path d="M335.164 680.465c-30.818.021-82.53 17.756-111.564 6-83.82-28.789-53.128-106.765-64.12-186.143-13-98.998-25.19-122.978-22-85.998 7.252 83.38-11.461 195.936-21.171 240.69-1.968 25.231.231 60.26 4.661 75.86 0 0-.01 0 0 .01 3.831 15.123 204.194-45.419 214.194-50.419z" fill="#f297ab"/><path d="M351.902 681.085c-6.69 8.7-16.16 17.83-27.33 27.41-.01.01-.01.01-.02.01-14.07 3.82-28.07-.18-28.07-.18-138 51-181.18 104.94-181.18 104.94l-.17-.12c-1.73-25.61.17-45.91.17-45.91l69.18-78.91 167.26-7.96z" fill="#f297ab"/><path d="M134.482 878.325c-1.4-2.55-2.74-5.19-4.01-7.91 6.01-54.09 37.091-84.748 42.01-86.09 11-3-32 23-38 94z" fill="#f297ab"/><path d="M158.361 251.999c5.151 2.492 25.855 13.353 56.144 13.257l4.321 45.866s-22.423 21.497-52.236 4.335z" fill="#f58f73"/><path d="M218.02 264.349c37.542-20.791 60.82-55.327 58.605-89.726-.54-8.375-2.381-13.939-12.11-35.954-4.165-9.425-2.362-26.167-7.508-45.495-2.815-10.571-7.118-26.734-17.123-38.746-23.426-28.123-79.249-52.798-128.56-25.809-40.21 22.004-65.88 70.413-49.604 115.792-1.086-.077-16.847-4.863-24.715 3.129a16.375 16.375 0 0 0-4.8 9.912c-.222 2.483-1.463 11.083 7.019 24.435 7.311 11.516 16.113 17.502 22.7 20.01 5.108 1.947 12.645 3.857 17.66-2.796 2.554-3.387 3.235-10.638.898-17.92a101.391 101.391 0 0 0 29.21 54.682c18.701 18.014 52.825 29.498 52.831 29.5 28.327 9.229 55.497-1.014 55.497-1.014z" fill="#fbb798"/><path d="M177.17 192.579c-2.094.924 18.832 20.833 33.886 20.07 16.937-.857 32.43-19.616 32.459-25.605.018-4.29-62.817 3.975-66.345 5.535z" fill="#fff"/><path d="M245.141 185.073c-2.36-3.01-68.22.62-69.48 6.92-.02.1-.37.51 1.36.82h.01c2.43.43 8.97.64 26.28-.52 10.86-.73 33.64-2.59 40.21-5.26 1.509-.61 2.169-1.27 1.62-1.96z" fill="#f88c79"/><path d="M159.8 17.013c-.04-.01-.09-.01-.13-.01-10.88-.73-22.38.17-34.19 3.44-7.24 2.01-14.6 4.91-22 8.88-.23.13-.36 1.82-.41 4.32-.17 8.08.41 24.68.41 24.68 1.02-.39 2.2-.76 3.54-1.12 4.59-1.21 10.97-2.2 18.46-3 10.49-1.12 23.17-1.86 36.21-2.29 28.88-.94 59.51-.35 72 1.02 3.34.36 5.39.78 5.75 1.25-5.029-7.41-37.68-34.33-79.64-37.17z" fill="#f58f73"/><path d="M247.981 140.602c-10.945 5.656-15.229 19.12-9.569 30.073s19.121 15.247 30.066 9.59 15.229-19.12 9.569-30.073c-5.66-10.952-19.121-15.246-30.066-9.59z" fill="url(#d)"/><path d="M147.471 153.724c-10.945 5.656-15.229 19.12-9.569 30.073s19.121 15.247 30.066 9.59c10.945-5.656 15.229-19.12 9.569-30.073s-19.121-15.247-30.066-9.59z" fill="url(#e)"/><path d="M177.482 309.325c-3.165-59.499-37-91-60-167-10.016-33.097-10.881-99.387-10.881-99.387 18.361-2.012 103.884-14.527 126.236 9.089 7.671 8.103 15.513 17.274 24.727 65.896a72.674 72.674 0 0 0 3.206 12.136c29.253 46.641 5.303 104.145-46.288 135.266 1 10 2 22 3.4 36 19.521 2.772 57.6 5 81.6 19 1.858-68.387-4-221-50.099-288.686-25.87-31.39-118.588-51.474-162.673-.693C38.205 48.3 19.078 83.651 20.085 127.113c1.577 68.026 30.987 179.991 47.824 224.477 8.452-6.962 18.527-10.979 27.705-15.396 22.868-1.87 43.868 30.13 63.868 24.13 15.103-4.53 20-26.999 18-50.999z"/><ellipse cx="166.255" cy="128.236" rx="9.724" ry="9.731" transform="matrix(.849 -.5284 .5284 .849 -42.6559 107.2241)"/><ellipse cx="237.541" cy="119.83" rx="9.724" ry="9.731" transform="matrix(.849 -.5284 .5284 .849 -27.4474 143.6252)"/><path d="M169.721 94.543c-2.79-1.81-6.1-2.72-9.64-2.96-15.39-1.05-34.98 10.37-34.04 13.57.17.58-.1.08 3.56-.62 9.78-1.88 20.97-2.53 29.47-3.33 10.95-1.01 17.419-2.26 10.65-6.66zm55.09-6.37c-9.13 1.35-14.4 7.89-7.42 7.92 17.56.08 32.78.49 33.79-.06 1.369-.74-13.131-9.82-26.37-7.86z"/><path d="M219.662 152.136c4.057 1.26 6.72 6.824 6.137 11.055-1.292 9.352-24.293 14.274-27.669 10.973-4.402-4.313 11.968-25.002 21.532-22.028z" fill="#f88c79"/><path d="M463.902 665.105c16.92 10.86-3.75 20.38-34.44 11.5 37.04 21.73-40.84 9.72-63.34 3.42 0 0-33.35 32.4-68.45 20.28-3.84.12-105.69 41.32-151.43 55.77-1.61.51-3.15.98-4.61 1.42v.01c-2.64.79-5.03 1.46-7.13 2-2.3.59-4.26 1.02-5.83 1.27-2.18.34-3.59.34-4.11-.08-43.01-34.73-20.69-86.85-15.58-87.47 107.81-13.03 167.72-23.55 167.72-23.55s77.67-48.74 92.68-49.37c4.71-.19 9.93-3.82 42.53 8.21 26.28 9.7 54.58 20.83 60.83 28.9 6.63 8.54-1.89 10.28-1.89 10.28 24.88 7.48 12.4 21.14-6.95 17.41z" fill="#fbb798"/><path d="M409.61 643.233c-2.56-.89-5.03-1.75-7.39-2.56.229.94.45 1.88.68 2.81 1.84.67 3.73 1.36 5.67 2.05 2.13.77 4.31 1.55 6.51 2.34.88-.58 1.77-1.16 2.68-1.76-2.789-.99-5.509-1.95-8.15-2.88zm0 0c-2.56-.89-5.03-1.75-7.39-2.56.229.94.45 1.88.68 2.81 1.84.67 3.73 1.36 5.67 2.05 2.13.77 4.31 1.55 6.51 2.34.88-.58 1.77-1.16 2.68-1.76-2.789-.99-5.509-1.95-8.15-2.88zm63.031 3.18c-3.12-1.81-18.24-7.35-34.89-13.12-.6-.21-1.2-.41-1.8-.63-.01 0-.01 0-.02-.01-.01 0-.01 0-.02-.01-.01 0-.01 0-.02-.01-5.67-1.93-11.5-3.91-17.02-5.77-2.1-.7-4.16-1.38-6.16-2.04-1.28-.42-2.54-.83-3.76-1.23a862.93 862.93 0 0 0-11.729-3.75c-6.14-1.91-9.95-2.95-9.71-2.57.23.37 4.13 1.95 10.11 4.22 2.63 1 5.66 2.12 8.96 3.33h.01c1.42.53 2.88 1.06 4.39 1.62 2.14.77 4.35 1.57 6.61 2.39 5.64 2.03 11.59 4.16 17.38 6.22 7.5 2.67 14.75 5.22 20.74 7.33.01 0 .02.01.03.01 7.48 2.63 13 4.55 14.62 5.12h.01l.48.17c.04-.01.07-.01.11-.02.06-.01.12-.03.18-.04.04-.01.08-.02.12-.04.11-.03.23-.07.36-.12.1-.03.21-.07.31-.11.31-.11.62-.25.92-.45.06-.03.13-.07.19-.11.03-.01.05-.03.08-.05-.101-.09-.262-.2-.481-.33zm-70.42-5.74c.229.94.45 1.88.68 2.81 1.84.67 3.73 1.36 5.67 2.05 2.13.77 4.31 1.55 6.51 2.34.88-.58 1.77-1.16 2.68-1.76-2.79-.99-5.51-1.95-8.15-2.88-2.561-.89-5.03-1.75-7.39-2.56zm7.389 2.56c-2.56-.89-5.03-1.75-7.39-2.56.229.94.45 1.88.68 2.81 1.84.67 3.73 1.36 5.67 2.05 2.13.77 4.31 1.55 6.51 2.34.88-.58 1.77-1.16 2.68-1.76-2.789-.99-5.509-1.95-8.15-2.88zm40.21 14.35h-.01c-10.4-3.72-21.63-7.77-32.05-11.47-2.79-.99-5.51-1.95-8.15-2.88-2.56-.89-5.03-1.75-7.39-2.56-.62-.21-1.24-.42-1.84-.63-3.31-1.13-6.37-2.16-9.09-3.04-8.59-2.78-13.91-4.18-13.31-3.1.19.35 4.8 2.17 11.78 4.78 2.8 1.04 5.97 2.2 9.39 3.45h.01c1.22.44 2.46.9 3.74 1.35 1.84.67 3.73 1.36 5.67 2.05 2.13.77 4.31 1.55 6.51 2.34 11.03 3.94 22.58 8.02 31.68 11.22h.01c10.07 3.55 17.13 6.01 17.13 6.01.16.03.33.05.48.08.16.03.31.05.46.08.3.05.58.1.85.14 2.46.38 3.94.48 6.94.24-6.48-2.23-14.37-5.04-22.81-8.06zm-5.84 22.02c-.59-.22-10.18-3.74-22.07-8.04-4.27-1.55-8.83-3.19-13.37-4.81-2.03-.73-4.06-1.45-6.05-2.16-2.84-1.01-5.61-1.98-8.24-2.9-1.03-.36-2.04-.71-3.02-1.05-5.3-1.84-9.83-3.36-12.83-4.28-2.48-.77-3.92-1.13-3.87-.91.05.23 1.34.87 3.5 1.79 2.94 1.27 7.49 3.07 12.7 5.06.55.21 1.1.42 1.66.63 3.12 1.19 6.43 2.43 9.73 3.66 2.36.88 4.72 1.76 7.01 2.6 3.65 1.35 7.13 2.62 10.13 3.71 6.03 2.2 10.19 3.7 10.19 3.7h.01l.01.01h.01c4.25 1.39 8.74 2.31 13.48 2.87.35.05.68.09 1.03.13zm-297.738 76.472c-1.61.51-3.15.98-4.61 1.42v.01c-2.64.79-5.03 1.46-7.13 2-2.3.59-4.26 1.02-5.83 1.27-2.42-4-4.19-7.45-4.19-7.45l2-79 22-6c0 14.85-10.19 46.52-2.24 87.75z" fill="#f58f73"/><path d="M11.803 731.408c11.968 18.01 30.782 26.774 45.249 30.402 10.364 2.606 18.052 2.855 18.052 2.855 6.385 12.736 21.697 8.424 30.928 4.29 4.35-1.948 7.337-3.866 7.419-3.944 7.031 11.314 21.031-5.686 21.031-5.686-10.09-29.634 14-91 14-91-9-15-29.69-15.339-31.79-13.57-.021.012-.042.023-.062.045s-.041.034-.051.045c-.031.034-.061.056-.082.079-.02.022-.042.023-.051.045-.031.022-.052.034-.052.034l.008-.054.252-2.599.166-1.69 11.976-122.278-33.314-192.057c-108 13-105 363-83.679 395.083z" fill="#ffbec4"/><path d="M113.452 765.01c-3.962-18.968 1.077-33.596-3.535-29.084-2.003 1.959-4.433 14.346-3.884 33.028 4.349-1.948 7.337-3.865 7.419-3.944zm-38.347-.345c-7.414-46.078 30.672-102.63 41.298-109.716l.252-2.599c-22.337 9.876-57.801 61.217-59.603 109.46 10.364 2.605 18.053 2.855 18.053 2.855z" fill="#f297ab"/><path d="M297.672 700.305s-8.508-2.839-12.508-4.839c-4.552-2.276-1.958 1.539 6.521 6.769z" fill="#f58f73"/></svg></g><g transform="translate(1917.5675675675677 211.62162162162164) rotate(0.0 115.94594594594594 207.16216216216213) scale(0.8535133364443132 0.854763379416584)"><svg width="271.691" height="484.724" viewBox="0 0 271.691 484.724"><path d="M206.542 484.724 8.781 460.739c-11.767-49.875-19-267 27.745-460.739l235.165 42.498c-55.003 205.803-66.751 339.321-65.149 442.226z" fill="#12376b" opacity=".5"/><g fill="#fff"><path d="M137.751 72.264c-2.334-2.386-35.334-12.786-37.942 41.894 0 0-21.518 23.297-23.846 47.813-2.327 24.516-4.936 79.196-9.124 90.769s-43.608 60.527-31.7 88.828c13.008 30.916 63.412 28.718 73.087 32.763 9.675 4.044 44.634 25.082 49.196 28.298 6.564 4.627 50.225-80.122 45.024-86.094-1.429-1.641-45.823-27.046-50.583-47.358-11.83-50.487-13.383-135.299-15.03-137.531-1.646-2.232 1.066-32.334-.78-36.274-2.306-4.925 4.176-20.576 1.698-23.108z" opacity=".35"/><path d="M122.631 80.721c-2.206.568-14.012 24.684-11.804 27.226s13.076 2.289 13.982.199c.905-2.09 6.205-29.583-2.178-27.425zm-13.707 35.433c-1.645 1.38-13.554 29.901-8.505 31.068 5.049 1.168 19.041-.02 19.947-2.109.906-2.09 3.78-29.43 2.119-29.7-1.662-.268-12.261-.35-13.561.741zm-8.739 39.243c-3.507 4.272 5.963 28.238 5.149 32.023-2.631 12.242-12.565 40.213-9.46 44.722 4.063 5.899 39.476.565 41.498-6.006 1.579-5.131-9.477-40.021-10.581-44.308-2.158-8.383-3.759-27.709-4.964-28.633-2.484-1.905-19.656-.218-21.642 2.202zm-6.96 90.492c1.905-2.484 44.006-9.884 46.49-7.979 1.905 1.461.379 22.682-1.096 23.523-3.298 1.88-43.748-4.072-45.429-6.016-1.004-1.161-1.87-7.044.035-9.528zm-.794 22.826c-7.175-.628-13.376 4.131-15.784 15.411-2.716 12.723-5.887 17.396-14.178 21.249-4.965 2.307-19.746 6.468-20.727 21.086C40.68 342.27 56.282 354 71.144 352.168s20.074-14.914 26.326-18.69c10.066-6.08 13.573-10.352 11.717-19.432-2.72-13.306-4.209-15.863-1.9-22.339 3.835-10.751 1.17-21.589-14.856-22.992z"/><path d="M116.417 278.287c-.138.747-.452 5.572-3.044 12.748-4.136 11.447 4.988 22.851 2.363 30.815-1.446 4.386-9.314 10.03-6.342 14.628 1.843 2.852 15.023 7.341 24.94-4.082 11.492-13.236 7.506-30.674 6.323-33.67-1.578-3.994 2.835-10.356 3.556-15.836 1.286-9.786-25.96-14.565-27.796-4.603z"/><path d="M149.126 318.867c-6.676.256-3.53 14.274-8.261 19.055-2.939 2.969-21.388 5.982-19.074 13.862 1.671 5.69 12.906 6.423 21.989 10.361 10.449 4.53 18.087 13.634 20.479 13.844 2.139.187 15.748-22.963 14.959-24.96s-13.63-6.737-16.206-10.337c-2.579-3.601-5.292-22.155-13.886-21.825z"/></g><path d="M17.281 451.739c-1-3-1.5-11-1.5-14 4 1 48 6 52 6 0 1 0 6.936 1 14-1 0-46.5-5-51.5-6z" fill="#606368" opacity=".5"/></svg></g><g transform="translate(92.43243243243244 863.5135135135135) rotate(0.0 163.78378378378378 349.8648648648649) scale(0.8525964798739395 0.8508386791460723)"><svg width="384.2" height="822.4" viewBox="0 0 384.2 822.4"><g><path d="M383 612c-.7-29.7-3.8-61.2-8.7-93.1C345.8 362.2 233.3-59.2 18.6 7c-34.1 27.9-12 82.8-5.7 126.5 9.6 48.7 22.8 110.3 34.7 163.7 24.5 109.7 51.8 225.2 79.3 332.5 23.3 67.4 24.2 164.3 88 191.6C338.6 832.4 393.2 721.2 383 612zM264.8 326.2c3.3 2.2 5.7 5.8 8 9.4 34.2 69.8 73.2 228.9 37.7 298.3-7.2 15.7-38 33.6-46.1 12.4-7.8-17.3-14.6-57.9-22.3-101.2-14.6-105.5-52.1-198.1-32-208.9 13.8-6.4 46.6-14.2 54.7-10zM61.4 64C133.9 53.5 243.8 224.5 245 268.2c-5.1 6.3-16.5 8.3-24.2 10.6-1 .3-2.1.5-3.1.8-2.1.5-4.2.9-6.3 1.3-4.1.8-7.8 1.3-11.7 1.8-16.4 2.7-17.4-3.3-24.6-16.5-27.5-54.5-64.4-110.1-99.5-161.2-4.8-9.2-23.9-32.5-14.2-41z" style="fill:#dbdbdb"/><path d="M366.3 735c-3.9 9.6-8.5 18.3-13.9 25.7-32 44.6-94 67.3-137.6 60.6-36-12.1-49.8-51.1-62.5-96.4-7.6-26.9-16.2-59.3-25.4-95.2-5.5-21.4-11.2-44.1-17-67.5-20.8-84.2-43.1-179-62.3-265-5.2-23.1-10.1-45.6-14.7-67-7.6-35.5-14.4-68.3-20-96.6-6.2-31.8-13-61.5-12.4-85 0-.1 180.3 811.2 365.8 686.4z" style="fill:#d3d3d3"/></g></svg></g><g transform="translate(1441.6216216216217 410.2702702702703) rotate(0.0 68.91891891891896 415.13513513513516) scale(0.8582679815556533 0.8515592515592516)"><svg width="160.6" height="975" viewBox="0 0 160.6 975"><g><g><path d="M112.1 649.9c-5.5-5.5-17.5-5.5-23.4-.7C77.6 658.3 42.4 962.8 0 972.6c0 0 105.5 14.8 147.5-28.2 42.1-43-30.7-289.8-35.4-294.5zm-11.5 30.5c-4.4 0-8-5.1-8-11.5 0-6.3 3.6-11.5 8-11.5s8 5.2 8 11.5-3.6 11.5-8 11.5z" style="fill:#dbdbdb"/></g><g><path d="M100.1 662.2c-1.3 0-2.4-1.1-2.4-2.4l.5-657.4c0-1.3 1.1-2.4 2.4-2.4 1.3 0 2.4 1.1 2.4 2.4l-.5 657.5c-.1 1.3-1.1 2.3-2.4 2.3z" style="fill:#7c7c7c"/></g></g></svg></g><g transform="translate(2070.810810810811 480.81081081081084) rotate(0.0 48.24324324324334 52.70270270270271) scale(0.8546190122806615 0.846629762292413)"><svg width="112.9" height="124.5" viewBox="0 0 112.9 124.5"><path d="M6.2.1c-11.8-2.5-6.7 27.1 16 38.6 42.7 21.7 26 38.8 40 71.3 8.8 20.3 33.9 16.4 43.6 5.2 2.9-3.5 5.3-7.3 7.2-11.3C101.2 77 83.9 42 71.9 33.3c0 0-17.5-13.4-65.7-33.2z" style="fill:#744747"/></svg></g></svg>