<svg enable-background="new 0 0 228.6 646.1" height="647" viewBox="0 0 228.6 646.1" width="229" xmlns="http://www.w3.org/2000/svg"><path d="m95.8 69.1h50.1v-42.3c0-14.8-12-26.8-26.9-26.8h-8c-14.9 0-27 12-27 26.8v30.6c0 6.5 5.3 11.7 11.8 11.7z" fill="#002552"/><path d="m49.3 264.9-.8 4.1-1.6 146.1c-.1 13.1 10.4 23.8 23.5 23.8 11.4 0 21.2-8.2 23.2-19.5l33.4-192.3-16.6-3.4c-28.3-5.8-55.9 12.7-61.1 41.2z" fill="#2887ff"/><path d="m33.3 476.9 14.9 144.2s28.4-2.3 28.7-2.2l5-62.9s11.1-85.9 11.1-85.9v-.1l2.5-59c.6-13.7-10.7-25.1-24.4-24.5-10.5.4-19.5 7.7-22 17.9l-15.1 61c-.8 3.8-1 7.6-.7 11.5z" fill="#2887ff"/><path d="m81.6 636.4h-45.3l-2.4-11.2c-.7-3.2-.2-6.6 1.3-9.5l6.1-11.6 18.4-10.3 18.5 10.3 3.8 9.8c2.1 5.4 2.5 11.3 1.1 17z" fill="#73b1ff"/><path d="m75 646.1h-31.3c-1.8 0-3.3-1-3.9-2.4l-3.2-8h45.4l-3.2 8c-.5 1.5-2.1 2.4-3.8 2.4z" fill="#016dea"/><path d="m68.8 591.2h-18.9c-1.9 0-3.5 1.6-3.5 3.5v18.2c0 1.9 1.6 3.5 3.5 3.5h18.9c1.9 0 3.5-1.6 3.5-3.5v-18.2c0-1.9-1.6-3.5-3.5-3.5z" fill="#73b1ff"/><path d="m56.1 630.6h6.5c2.7 0 4.9 2.2 4.9 4.8 0 2.7-2.2 4.8-4.9 4.8h-6.5c-2.7 0-4.9-2.2-4.9-4.8.1-2.6 2.2-4.8 4.9-4.8z" fill="#016dea"/><path d="m177.8 268.1.2.9 1.6 146.1c.1 13.1-10.4 23.8-23.5 23.8-11.4 0-21.2-8.2-23.2-19.5l-33.5-192.3 13.4-2.8c30.1-6.1 59.4 13.6 65 43.8z" fill="#2887ff"/><path d="m192.9 477.4-13.7 139.6s-30 2.3-30.3 2.4l-4.5-62.9s-11.1-85.9-11.1-85.9v-.1l-2.5-59c-.6-13.7 10.7-25.1 24.4-24.5 10.5.4 19.5 7.7 22 17.9l15.1 61.2c.8 3.6 1 7.4.6 11.3z" fill="#2887ff"/><path d="m144.7 636.4h45.3l2.4-11.2c.7-3.2.2-6.6-1.3-9.5l-6.1-11.6-18.4-10.3-18.5 10.3-3.8 9.8c-2.1 5.4-2.5 11.3-1.1 17z" fill="#73b1ff"/><path d="m151.4 646.1h31.2c1.8 0 3.3-1 3.9-2.4l3.2-8h-45.3l3.2 8c.5 1.5 2.1 2.4 3.8 2.4z" fill="#016dea"/><path d="m157.6 591.2h18.9c1.9 0 3.5 1.6 3.5 3.5v18.2c0 1.9-1.6 3.5-3.5 3.5h-18.9c-1.9 0-3.5-1.6-3.5-3.5v-18.2c0-1.9 1.5-3.5 3.5-3.5z" fill="#73b1ff"/><path d="m170.3 630.6h-6.5c-2.7 0-4.9 2.2-4.9 4.8 0 2.7 2.2 4.8 4.9 4.8h6.5c2.7 0 4.9-2.2 4.9-4.8-.1-2.6-2.3-4.8-4.9-4.8z" fill="#016dea"/><path d="m177 97.3-65.8-11.6-63.2 12.3c-11.7 2.2-.4 44.3.8 59.3l-.9 94.8v22.1h130.8l-.1-22.4-.3-93.9c-.1-0 10.9-58.7-1.3-60.6z" fill="#92c3ff"/><path d="m117 85.7 22.7 4.4 39.1 7.7c11 1.1 19.6 10.3 19.6 21.6 0 3.5-.8 6.8-2.3 9.7l-34.1 87.5z" fill="#92c3ff"/><path d="m176 119.7 28.6 98.2" fill="none" stroke="#93c3ff" stroke-linecap="round" stroke-miterlimit="3.708" stroke-width="39.8606"/><path d="m217.1 171.1 11.2 56.3c1.2 5.8-1.5 11.7-6.6 14.8l-5.7 3.4c-6.7 4-15.3 1.9-19.3-4.8l-5.6-9.3c-1.8-2.9-2.4-6.4-1.8-9.7l7.2-39.9z" fill="#c68882"/><path d="m111.3 85.7-24.8 4.9-37.1 7.3c-11 1.1-19.6 10.3-19.6 21.6 0 3.5.8 6.8 2.3 9.7l34.1 87.5z" fill="#92c3ff"/><path d="m51.3 119.3-28.6 98.2" fill="none" stroke="#93c3ff" stroke-linecap="round" stroke-miterlimit="3.708" stroke-width="39.8606"/><path d="m11.4 171.1-11.1 56.3c-1.2 5.8 1.5 11.7 6.6 14.8l5.7 3.4c6.7 4 15.3 1.9 19.3-4.8l5.6-9.3c1.8-2.9 2.4-6.4 1.8-9.7l-7.2-39.9z" fill="#c68882"/><path d="m29.7 155.3s-15.4-3.2-17.5 6.6c-2.1 9.9-2.5 17 .1 20.2s17.6 3.6 21.4-6.1c3.9-9.8-4-20.7-4-20.7z" fill="#c78982"/><path d="m111.5 133.2-14.2-45.9v-28.7h17.9 15.8v30.2l-15.5 44.5c-.7 1.9-3.4 1.8-4-.1z" fill="#c68882"/><path d="m127.3 78.9-8.8 8.5h12.5v-6.9c0-2-2.3-3-3.7-1.6z" fill="#b67e7b"/><path d="m116 12.6h-3.6c-12 0-21.8 9.7-21.8 21.8v13.1 11.6c0 3.7 1.4 7.3 4 10l12.4 13.2h16.8l13.6-13.3c2.6-2.7 4-6.3 4-10v-11.6-12.9c0-12.1-9.8-21.9-21.9-21.9z" fill="#c68882"/><path d="m93.3 54.1h14.4c1 0 1.7-.8 1.7-1.7v-14.2c0-1-.8-1.7-1.7-1.7h-14.4c-4.9 0-8.9 4-8.9 8.8s4 8.8 8.9 8.8z" fill="#c68882"/><path d="m137.7 48.8.1-.1h-.1v-3c0-2.3-1.9-4.2-4.3-4.2h-8.9c-3.2 0-5.7 2.6-5.7 5.7v.7c0 .3 0 .6.1.8h-.1v10c0 2.1-1.7 3.8-3.8 3.8h-5.7l10.9 4 12.9-11.9 2.4-3h2.2z" fill="#b67e7b"/><path d="m147.7 63.8-1.9-12.4-1.9-30.7c0-7.2-5.9-13.1-13.1-13.1h-29.6l3.8 14.3c2.2 8.2 9.4 13.9 17.7 14.4 2 .1 3.6 1.7 3.6 3.7v16.4c0 4 1.7 7.9 4.7 10.6s4.8 5.5 20.7 5.7z" fill="#002552"/><path d="m13.4 137.6h198.6v83.4h-198.6z" fill="#2887ff"/><path d="m20.7 143.7h182v71.1h-182z" fill="#fff"/><path d="m84.6 156.9h8.8v42.6h-8.8z" fill="#2887ff"/><path d="m108.2 156.9h8.8v42.6h-8.8z" fill="#2887ff"/><path d="m125.9 171.1h8.8v28.4h-8.8z" fill="#2887ff"/><path d="m125.9 156.9h8.8v8.5h-8.8z" fill="#2887ff"/><path d="m90.5 174h20.6v8.5h-20.6z" fill="#2887ff"/><g fill="#c68882"><path d="m33 160c-1.5 1.6-4.2 2-6.6.7l-17.8-11.5c-.6-.4-1-1.1-1-1.8v-2.6c0-1.9 1.6-3.5 3.5-3.5h1c.5 0 1 .2 1.4.5l19.1 16.2c.7.5.8 1.4.4 2z"/><path d="m29.5 167.8c-1.5 1.6-4.2 2-6.6.7l-17.7-11.6c-.6-.4-1-1.1-1-1.8v-2.6c0-1.9 1.6-3.5 3.5-3.5h1c.5 0 1 .2 1.4.5l19.1 16.2c.7.6.8 1.4.3 2.1z"/><path d="m24.5 175.2c-.1 0-.1.1 0 0-1.6 1.4-4.2 1.4-6.3 0l-15.4-12.7c-.5-.4-.8-1.1-.7-1.8l.3-2.4c.2-1.8 1.8-3.1 3.7-2.9l.9.1c.5.1.9.3 1.2.6l16.1 17.2c.6.6.6 1.4.2 1.9z"/><path d="m21.1 180.8c-1.4 1.3-3.8 1.4-5.8.2l-12.3-9.2c-.5-.4-.8-1-.7-1.6l.2-2.2c.1-1.7 1.6-2.9 3.3-2.8l.9.1c.4 0 .8.2 1.2.5l13.1 13.3c.5.4.6 1.2.1 1.7z"/><path d="m188.9 158.4c.1 0 .1 0 0 0 1.5 1.6 4.2 2 6.6.7l17.8-11.5c.6-.4 1-1.1 1-1.8v-2.6c0-1.9-1.6-3.5-3.5-3.5h-1c-.5 0-1 .2-1.4.5l-19.1 16.2c-.7.5-.8 1.3-.4 2z"/><path d="m192.4 166.1s0 .1 0 0c1.5 1.6 4.2 2 6.6.7l17.7-11.5c.6-.4 1-1.1 1-1.8v-2.5c0-1.9-1.6-3.5-3.5-3.5h-1c-.5 0-1 .2-1.4.5l-19.1 16.2c-.6.4-.8 1.3-.3 1.9z"/><path d="m197.5 173.6c1.6 1.4 4.2 1.4 6.3 0l15.4-12.7c.5-.4.8-1.1.7-1.8l-.3-2.4c-.2-1.8-1.9-3.1-3.7-2.9l-.9.1c-.5.1-.9.3-1.2.6l-16.1 17.2c-.7.5-.7 1.4-.2 1.9z"/><path d="m200.8 179.1c1.4 1.3 3.8 1.4 5.8.2l12.4-9.2c.5-.4.8-1 .7-1.6l-.2-2.2c-.1-1.7-1.6-2.9-3.3-2.8l-.9.1c-.4 0-.8.2-1.2.5l-13.2 13.3c-.5.5-.5 1.2-.1 1.7z"/></g></svg>